<svg width="600" height="600" viewBox="0 0 600 600" fill="none" xmlns="http://www.w3.org/2000/svg">
<rect width="600" height="600" fill="#011580"/>
<mask id="path-2-outside-1_84_35" maskUnits="userSpaceOnUse" x="283" y="271" width="35" height="40" fill="black">
<rect fill="white" x="283" y="271" width="35" height="40"/>
<path d="M306.45 309H287.25C286.617 309 286.15 308.867 285.85 308.6C285.583 308.3 285.45 307.833 285.45 307.2V274.8C285.45 274.167 285.583 273.717 285.85 273.45C286.15 273.15 286.617 273 287.25 273H303.2C306.467 273 308.883 273.633 310.45 274.9C312.017 276.133 312.8 278.05 312.8 280.65V283.05C312.8 284.45 312.55 285.6 312.05 286.5C311.583 287.367 310.85 288.017 309.85 288.45C311.983 288.65 313.567 289.383 314.6 290.65C315.633 291.917 316.15 293.767 316.15 296.2V300.8C316.15 303.6 315.35 305.667 313.75 307C312.183 308.333 309.75 309 306.45 309ZM296.7 281.5V286.9H300.95C301.583 286.9 302.05 286.733 302.35 286.4C302.683 286.067 302.85 285.567 302.85 284.9V283.5C302.85 282.833 302.683 282.333 302.35 282C302.05 281.667 301.583 281.5 300.95 281.5H296.7ZM296.7 294.6V300.5H303.2C303.833 300.5 304.3 300.333 304.6 300C304.933 299.667 305.1 299.167 305.1 298.5V296.55C305.1 295.883 304.933 295.4 304.6 295.1C304.3 294.767 303.833 294.6 303.2 294.6H296.7Z"/>
</mask>
<path d="M285.85 308.6L284.729 309.597L284.788 309.662L284.853 309.721L285.85 308.6ZM285.85 273.45L284.789 272.389H284.789L285.85 273.45ZM310.45 274.9L309.507 276.066L309.514 276.073L309.522 276.079L310.45 274.9ZM312.05 286.5L310.739 285.772L310.734 285.78L310.729 285.789L312.05 286.5ZM309.85 288.45L309.254 287.074L309.71 289.943L309.85 288.45ZM314.6 290.65L313.438 291.598L313.438 291.598L314.6 290.65ZM313.75 307L312.79 305.848L312.784 305.853L312.778 305.858L313.75 307ZM296.7 281.5V280H295.2V281.5H296.7ZM296.7 286.9H295.2V288.4H296.7V286.9ZM302.35 286.4L301.289 285.339L301.261 285.367L301.235 285.397L302.35 286.4ZM302.35 282L301.235 283.003L301.261 283.033L301.289 283.061L302.35 282ZM296.7 294.6V293.1H295.2V294.6H296.7ZM296.7 300.5H295.2V302H296.7V300.5ZM304.6 300L303.539 298.939L303.511 298.967L303.485 298.997L304.6 300ZM304.6 295.1L303.485 296.103L303.538 296.162L303.597 296.215L304.6 295.1ZM306.45 307.5H287.25V310.5H306.45V307.5ZM287.25 307.5C287.033 307.5 286.903 307.476 286.837 307.458C286.776 307.44 286.797 307.435 286.847 307.479L284.853 309.721C285.549 310.339 286.451 310.5 287.25 310.5V307.5ZM286.971 307.603C287.015 307.653 287.01 307.674 286.992 307.613C286.974 307.547 286.95 307.417 286.95 307.2H283.95C283.95 307.999 284.111 308.901 284.729 309.597L286.971 307.603ZM286.95 307.2V274.8H283.95V307.2H286.95ZM286.95 274.8C286.95 274.581 286.974 274.462 286.988 274.414C287.001 274.371 286.992 274.429 286.911 274.511L284.789 272.389C284.102 273.077 283.95 274.024 283.95 274.8H286.95ZM286.911 274.511C286.868 274.554 286.842 274.554 286.884 274.541C286.933 274.525 287.046 274.5 287.25 274.5V271.5C286.413 271.5 285.483 271.695 284.789 272.389L286.911 274.511ZM287.25 274.5H303.2V271.5H287.25V274.5ZM303.2 274.5C306.322 274.5 308.329 275.114 309.507 276.066L311.393 273.734C309.438 272.153 306.612 271.5 303.2 271.5V274.5ZM309.522 276.079C310.623 276.945 311.3 278.358 311.3 280.65H314.3C314.3 277.742 313.41 275.321 311.378 273.721L309.522 276.079ZM311.3 280.65V283.05H314.3V280.65H311.3ZM311.3 283.05C311.3 284.283 311.078 285.16 310.739 285.772L313.361 287.228C314.022 286.04 314.3 284.617 314.3 283.05H311.3ZM310.729 285.789C310.44 286.327 309.979 286.759 309.254 287.074L310.446 289.826C311.721 289.274 312.727 288.407 313.371 287.211L310.729 285.789ZM309.71 289.943C311.573 290.118 312.73 290.731 313.438 291.598L315.762 289.702C314.403 288.036 312.394 287.182 309.99 286.957L309.71 289.943ZM313.438 291.598C314.168 292.494 314.65 293.95 314.65 296.2H317.65C317.65 293.584 317.098 291.34 315.762 289.702L313.438 291.598ZM314.65 296.2V300.8H317.65V296.2H314.65ZM314.65 300.8C314.65 303.318 313.94 304.889 312.79 305.848L314.71 308.152C316.76 306.444 317.65 303.882 317.65 300.8H314.65ZM312.778 305.858C311.604 306.856 309.596 307.5 306.45 307.5V310.5C309.904 310.5 312.762 309.81 314.722 308.142L312.778 305.858ZM295.2 281.5V286.9H298.2V281.5H295.2ZM296.7 288.4H300.95V285.4H296.7V288.4ZM300.95 288.4C301.828 288.4 302.779 288.166 303.465 287.403L301.235 285.397C301.268 285.359 301.295 285.354 301.27 285.362C301.237 285.374 301.14 285.4 300.95 285.4V288.4ZM303.411 287.461C304.125 286.747 304.35 285.798 304.35 284.9H301.35C301.35 285.335 301.242 285.387 301.289 285.339L303.411 287.461ZM304.35 284.9V283.5H301.35V284.9H304.35ZM304.35 283.5C304.35 282.602 304.125 281.653 303.411 280.939L301.289 283.061C301.242 283.013 301.35 283.065 301.35 283.5H304.35ZM303.465 280.997C302.779 280.234 301.828 280 300.95 280V283C301.14 283 301.237 283.026 301.27 283.038C301.295 283.046 301.268 283.041 301.235 283.003L303.465 280.997ZM300.95 280H296.7V283H300.95V280ZM295.2 294.6V300.5H298.2V294.6H295.2ZM296.7 302H303.2V299H296.7V302ZM303.2 302C304.078 302 305.029 301.766 305.715 301.003L303.485 298.997C303.518 298.959 303.545 298.954 303.52 298.962C303.487 298.974 303.39 299 303.2 299V302ZM305.661 301.061C306.375 300.347 306.6 299.398 306.6 298.5H303.6C303.6 298.935 303.492 298.987 303.539 298.939L305.661 301.061ZM306.6 298.5V296.55H303.6V298.5H306.6ZM306.6 296.55C306.6 295.667 306.38 294.684 305.603 293.985L303.597 296.215C303.549 296.172 303.545 296.141 303.557 296.176C303.572 296.221 303.6 296.335 303.6 296.55H306.6ZM305.715 294.097C305.029 293.334 304.078 293.1 303.2 293.1V296.1C303.39 296.1 303.487 296.126 303.52 296.138C303.545 296.146 303.518 296.141 303.485 296.103L305.715 294.097ZM303.2 293.1H296.7V296.1H303.2V293.1Z" fill="white" mask="url(#path-2-outside-1_84_35)"/>
</svg>
