<svg width="600" height="600" viewBox="0 0 600 600" fill="none" xmlns="http://www.w3.org/2000/svg">
<rect width="600" height="600" fill="#3555FD"/>
<mask id="path-2-outside-1_84_24" maskUnits="userSpaceOnUse" x="282" y="277" width="30" height="40" fill="black">
<rect fill="white" x="282" y="277" width="30" height="40"/>
<path d="M294 315H286.25C285.617 315 285.15 314.867 284.85 314.6C284.583 314.3 284.45 313.833 284.45 313.2V280.8C284.45 280.167 284.583 279.717 284.85 279.45C285.15 279.15 285.617 279 286.25 279H308.55C309.183 279 309.633 279.15 309.9 279.45C310.2 279.717 310.35 280.167 310.35 280.8V286.75C310.35 287.383 310.2 287.85 309.9 288.15C309.633 288.417 309.183 288.55 308.55 288.55H295.8V293.75H304.5C305.133 293.75 305.583 293.9 305.85 294.2C306.15 294.467 306.3 294.917 306.3 295.55V301.55C306.3 302.183 306.15 302.65 305.85 302.95C305.583 303.217 305.133 303.35 304.5 303.35H295.8V313.2C295.8 313.833 295.65 314.3 295.35 314.6C295.083 314.867 294.633 315 294 315Z"/>
</mask>
<path d="M284.85 314.6L283.729 315.597L283.788 315.662L283.853 315.721L284.85 314.6ZM284.85 279.45L283.789 278.389H283.789L284.85 279.45ZM309.9 279.45L308.779 280.447L308.838 280.512L308.903 280.571L309.9 279.45ZM295.8 288.55V287.05H294.3V288.55H295.8ZM295.8 293.75H294.3V295.25H295.8V293.75ZM305.85 294.2L304.729 295.197L304.788 295.262L304.853 295.321L305.85 294.2ZM305.85 302.95L304.789 301.889L304.789 301.889L305.85 302.95ZM295.8 303.35V301.85H294.3V303.35H295.8ZM295.35 314.6L294.289 313.539H294.289L295.35 314.6ZM294 313.5H286.25V316.5H294V313.5ZM286.25 313.5C286.033 313.5 285.903 313.476 285.837 313.458C285.776 313.44 285.797 313.435 285.847 313.479L283.853 315.721C284.549 316.339 285.451 316.5 286.25 316.5V313.5ZM285.971 313.603C286.015 313.653 286.01 313.674 285.992 313.613C285.974 313.547 285.95 313.417 285.95 313.2H282.95C282.95 313.999 283.111 314.901 283.729 315.597L285.971 313.603ZM285.95 313.2V280.8H282.95V313.2H285.95ZM285.95 280.8C285.95 280.581 285.974 280.462 285.988 280.414C286.001 280.371 285.992 280.429 285.911 280.511L283.789 278.389C283.102 279.077 282.95 280.024 282.95 280.8H285.95ZM285.911 280.511C285.868 280.554 285.842 280.554 285.884 280.541C285.933 280.525 286.046 280.5 286.25 280.5V277.5C285.413 277.5 284.483 277.695 283.789 278.389L285.911 280.511ZM286.25 280.5H308.55V277.5H286.25V280.5ZM308.55 280.5C308.756 280.5 308.858 280.525 308.888 280.536C308.909 280.543 308.849 280.526 308.779 280.447L311.021 278.453C310.34 277.687 309.368 277.5 308.55 277.5V280.5ZM308.903 280.571C308.824 280.501 308.807 280.441 308.814 280.462C308.825 280.492 308.85 280.594 308.85 280.8H311.85C311.85 279.982 311.663 279.01 310.897 278.329L308.903 280.571ZM308.85 280.8V286.75H311.85V280.8H308.85ZM308.85 286.75C308.85 286.954 308.825 287.067 308.809 287.116C308.796 287.158 308.796 287.132 308.839 287.089L310.961 289.211C311.655 288.517 311.85 287.587 311.85 286.75H308.85ZM308.839 287.089C308.921 287.008 308.979 286.999 308.936 287.012C308.888 287.026 308.769 287.05 308.55 287.05V290.05C309.326 290.05 310.273 289.898 310.961 289.211L308.839 287.089ZM308.55 287.05H295.8V290.05H308.55V287.05ZM294.3 288.55V293.75H297.3V288.55H294.3ZM295.8 295.25H304.5V292.25H295.8V295.25ZM304.5 295.25C304.706 295.25 304.808 295.275 304.838 295.286C304.859 295.293 304.799 295.276 304.729 295.197L306.971 293.203C306.29 292.437 305.318 292.25 304.5 292.25V295.25ZM304.853 295.321C304.774 295.251 304.757 295.191 304.764 295.212C304.775 295.242 304.8 295.344 304.8 295.55H307.8C307.8 294.732 307.613 293.76 306.847 293.079L304.853 295.321ZM304.8 295.55V301.55H307.8V295.55H304.8ZM304.8 301.55C304.8 301.754 304.775 301.867 304.759 301.916C304.746 301.958 304.746 301.932 304.789 301.889L306.911 304.011C307.605 303.317 307.8 302.387 307.8 301.55H304.8ZM304.789 301.889C304.871 301.808 304.929 301.799 304.886 301.812C304.838 301.826 304.719 301.85 304.5 301.85V304.85C305.276 304.85 306.223 304.698 306.911 304.011L304.789 301.889ZM304.5 301.85H295.8V304.85H304.5V301.85ZM294.3 303.35V313.2H297.3V303.35H294.3ZM294.3 313.2C294.3 313.404 294.275 313.517 294.259 313.566C294.246 313.608 294.246 313.582 294.289 313.539L296.411 315.661C297.105 314.967 297.3 314.037 297.3 313.2H294.3ZM294.289 313.539C294.371 313.458 294.429 313.449 294.386 313.462C294.338 313.476 294.219 313.5 294 313.5V316.5C294.776 316.5 295.723 316.348 296.411 315.661L294.289 313.539Z" fill="white" mask="url(#path-2-outside-1_84_24)"/>
</svg>
