<svg width="600" height="600" viewBox="0 0 600 600" fill="none" xmlns="http://www.w3.org/2000/svg">
<rect x="1" y="1" width="598" height="598" stroke="black" stroke-width="2" stroke-dasharray="7 7"/>
<rect width="300" height="600" fill="#3555FD"/>
<mask id="path-3-outside-1_84_40" maskUnits="userSpaceOnUse" x="132" y="272" width="30" height="40" fill="black">
<rect fill="white" x="132" y="272" width="30" height="40"/>
<path d="M144 310H136.25C135.617 310 135.15 309.867 134.85 309.6C134.583 309.3 134.45 308.833 134.45 308.2V275.8C134.45 275.167 134.583 274.717 134.85 274.45C135.15 274.15 135.617 274 136.25 274H158.55C159.183 274 159.633 274.15 159.9 274.45C160.2 274.717 160.35 275.167 160.35 275.8V281.75C160.35 282.383 160.2 282.85 159.9 283.15C159.633 283.417 159.183 283.55 158.55 283.55H145.8V288.75H154.5C155.133 288.75 155.583 288.9 155.85 289.2C156.15 289.467 156.3 289.917 156.3 290.55V296.55C156.3 297.183 156.15 297.65 155.85 297.95C155.583 298.217 155.133 298.35 154.5 298.35H145.8V308.2C145.8 308.833 145.65 309.3 145.35 309.6C145.083 309.867 144.633 310 144 310Z"/>
</mask>
<path d="M134.85 309.6L133.729 310.597L133.788 310.662L133.853 310.721L134.85 309.6ZM134.85 274.45L133.789 273.389H133.789L134.85 274.45ZM159.9 274.45L158.779 275.447L158.838 275.512L158.903 275.571L159.9 274.45ZM145.8 283.55V282.05H144.3V283.55H145.8ZM145.8 288.75H144.3V290.25H145.8V288.75ZM155.85 289.2L154.729 290.197L154.788 290.262L154.853 290.321L155.85 289.2ZM155.85 297.95L154.789 296.889L154.789 296.889L155.85 297.95ZM145.8 298.35V296.85H144.3V298.35H145.8ZM145.35 309.6L144.289 308.539H144.289L145.35 309.6ZM144 308.5H136.25V311.5H144V308.5ZM136.25 308.5C136.033 308.5 135.903 308.476 135.837 308.458C135.776 308.44 135.797 308.435 135.847 308.479L133.853 310.721C134.549 311.339 135.451 311.5 136.25 311.5V308.5ZM135.971 308.603C136.015 308.653 136.01 308.674 135.992 308.613C135.974 308.547 135.95 308.417 135.95 308.2H132.95C132.95 308.999 133.111 309.901 133.729 310.597L135.971 308.603ZM135.95 308.2V275.8H132.95V308.2H135.95ZM135.95 275.8C135.95 275.581 135.974 275.462 135.988 275.414C136.001 275.371 135.992 275.429 135.911 275.511L133.789 273.389C133.102 274.077 132.95 275.024 132.95 275.8H135.95ZM135.911 275.511C135.868 275.554 135.842 275.554 135.884 275.541C135.933 275.525 136.046 275.5 136.25 275.5V272.5C135.413 272.5 134.483 272.695 133.789 273.389L135.911 275.511ZM136.25 275.5H158.55V272.5H136.25V275.5ZM158.55 275.5C158.756 275.5 158.858 275.525 158.888 275.536C158.909 275.543 158.849 275.526 158.779 275.447L161.021 273.453C160.34 272.687 159.368 272.5 158.55 272.5V275.5ZM158.903 275.571C158.824 275.501 158.807 275.441 158.814 275.462C158.825 275.492 158.85 275.594 158.85 275.8H161.85C161.85 274.982 161.663 274.01 160.897 273.329L158.903 275.571ZM158.85 275.8V281.75H161.85V275.8H158.85ZM158.85 281.75C158.85 281.954 158.825 282.067 158.809 282.116C158.796 282.158 158.796 282.132 158.839 282.089L160.961 284.211C161.655 283.517 161.85 282.587 161.85 281.75H158.85ZM158.839 282.089C158.921 282.008 158.979 281.999 158.936 282.012C158.888 282.026 158.769 282.05 158.55 282.05V285.05C159.326 285.05 160.273 284.898 160.961 284.211L158.839 282.089ZM158.55 282.05H145.8V285.05H158.55V282.05ZM144.3 283.55V288.75H147.3V283.55H144.3ZM145.8 290.25H154.5V287.25H145.8V290.25ZM154.5 290.25C154.706 290.25 154.808 290.275 154.838 290.286C154.859 290.293 154.799 290.276 154.729 290.197L156.971 288.203C156.29 287.437 155.318 287.25 154.5 287.25V290.25ZM154.853 290.321C154.774 290.251 154.757 290.191 154.764 290.212C154.775 290.242 154.8 290.344 154.8 290.55H157.8C157.8 289.732 157.613 288.76 156.847 288.079L154.853 290.321ZM154.8 290.55V296.55H157.8V290.55H154.8ZM154.8 296.55C154.8 296.754 154.775 296.867 154.759 296.916C154.746 296.958 154.746 296.932 154.789 296.889L156.911 299.011C157.605 298.317 157.8 297.387 157.8 296.55H154.8ZM154.789 296.889C154.871 296.808 154.929 296.799 154.886 296.812C154.838 296.826 154.719 296.85 154.5 296.85V299.85C155.276 299.85 156.223 299.698 156.911 299.011L154.789 296.889ZM154.5 296.85H145.8V299.85H154.5V296.85ZM144.3 298.35V308.2H147.3V298.35H144.3ZM144.3 308.2C144.3 308.404 144.275 308.517 144.259 308.566C144.246 308.608 144.246 308.582 144.289 308.539L146.411 310.661C147.105 309.967 147.3 309.037 147.3 308.2H144.3ZM144.289 308.539C144.371 308.458 144.429 308.449 144.386 308.462C144.338 308.476 144.219 308.5 144 308.5V311.5C144.776 311.5 145.723 311.348 146.411 310.661L144.289 308.539Z" fill="white" mask="url(#path-3-outside-1_84_40)"/>
</svg>
