<svg width="613" height="608" viewBox="0 0 613 608" fill="none" xmlns="http://www.w3.org/2000/svg">
<g filter="url(#filter0_d_103_296)">
<mask id="path-1-outside-1_103_296" maskUnits="userSpaceOnUse" x="304.379" y="277.005" width="34" height="38" fill="black">
<rect fill="white" x="304.379" y="277.005" width="34" height="38"/>
<path d="M326.829 314.005H307.629C306.995 314.005 306.529 313.872 306.229 313.605C305.962 313.305 305.829 312.838 305.829 312.205V279.805C305.829 279.172 305.962 278.722 306.229 278.455C306.529 278.155 306.995 278.005 307.629 278.005H323.579C326.845 278.005 329.262 278.638 330.829 279.905C332.395 281.138 333.179 283.055 333.179 285.655V288.055C333.179 289.455 332.929 290.605 332.429 291.505C331.962 292.372 331.229 293.022 330.229 293.455C332.362 293.655 333.945 294.388 334.979 295.655C336.012 296.922 336.529 298.772 336.529 301.205V305.805C336.529 308.605 335.729 310.672 334.129 312.005C332.562 313.338 330.129 314.005 326.829 314.005ZM317.079 286.505V291.905H321.329C321.962 291.905 322.429 291.738 322.729 291.405C323.062 291.072 323.229 290.572 323.229 289.905V288.505C323.229 287.838 323.062 287.338 322.729 287.005C322.429 286.672 321.962 286.505 321.329 286.505H317.079ZM317.079 299.605V305.505H323.579C324.212 305.505 324.679 305.338 324.979 305.005C325.312 304.672 325.479 304.172 325.479 303.505V301.555C325.479 300.888 325.312 300.405 324.979 300.105C324.679 299.772 324.212 299.605 323.579 299.605H317.079Z"/>
</mask>
<path d="M306.229 313.605L305.481 314.269L305.52 314.313L305.564 314.352L306.229 313.605ZM306.229 278.455L305.522 277.748H305.522L306.229 278.455ZM330.829 279.905L330.2 280.683L330.21 280.691L330.829 279.905ZM332.429 291.505L331.555 291.019L331.548 291.031L332.429 291.505ZM330.229 293.455L329.831 292.537L330.135 294.451L330.229 293.455ZM334.979 295.655L334.204 296.287H334.204L334.979 295.655ZM334.129 312.005L333.489 311.237L333.481 311.243L334.129 312.005ZM317.079 286.505V285.505H316.079V286.505H317.079ZM317.079 291.905H316.079V292.905H317.079V291.905ZM322.729 291.405L322.022 290.698L322.003 290.716L321.985 290.736L322.729 291.405ZM322.729 287.005L321.985 287.674L322.003 287.693L322.022 287.712L322.729 287.005ZM317.079 299.605V298.605H316.079V299.605H317.079ZM317.079 305.505H316.079V306.505H317.079V305.505ZM324.979 305.005L324.272 304.298L324.253 304.316L324.235 304.336L324.979 305.005ZM324.979 300.105L324.235 300.774L324.271 300.813L324.31 300.848L324.979 300.105ZM326.829 313.005H307.629V315.005H326.829V313.005ZM307.629 313.005C307.106 313.005 306.93 312.89 306.893 312.857L305.564 314.352C306.128 314.853 306.885 315.005 307.629 315.005V313.005ZM306.976 312.941C306.944 312.904 306.829 312.728 306.829 312.205H304.829C304.829 312.948 304.981 313.706 305.481 314.269L306.976 312.941ZM306.829 312.205V279.805H304.829V312.205H306.829ZM306.829 279.805C306.829 279.553 306.856 279.383 306.888 279.276C306.918 279.173 306.946 279.152 306.936 279.162L305.522 277.748C304.974 278.295 304.829 279.076 304.829 279.805H306.829ZM306.936 279.162C306.973 279.125 307.131 279.005 307.629 279.005V277.005C306.86 277.005 306.084 277.185 305.522 277.748L306.936 279.162ZM307.629 279.005H323.579V277.005H307.629V279.005ZM323.579 279.005C326.749 279.005 328.892 279.625 330.2 280.683L331.458 279.127C329.632 277.651 326.942 277.005 323.579 277.005V279.005ZM330.21 280.691C331.467 281.68 332.179 283.26 332.179 285.655H334.179C334.179 282.849 333.324 280.597 331.447 279.119L330.21 280.691ZM332.179 285.655V288.055H334.179V285.655H332.179ZM332.179 288.055C332.179 289.343 331.948 290.312 331.555 291.019L333.303 291.991C333.91 290.898 334.179 289.566 334.179 288.055H332.179ZM331.548 291.031C331.2 291.678 330.648 292.183 329.831 292.537L330.626 294.372C331.809 293.86 332.725 293.065 333.309 291.979L331.548 291.031ZM330.135 294.451C332.088 294.634 333.388 295.287 334.204 296.287L335.754 295.023C334.503 293.49 332.636 292.676 330.322 292.459L330.135 294.451ZM334.204 296.287C335.035 297.306 335.529 298.893 335.529 301.205H337.529C337.529 298.65 336.989 296.537 335.754 295.023L334.204 296.287ZM335.529 301.205V305.805H337.529V301.205H335.529ZM335.529 305.805C335.529 308.417 334.789 310.153 333.489 311.237L334.769 312.773C336.669 311.19 337.529 308.793 337.529 305.805H335.529ZM333.481 311.243C332.176 312.354 330.026 313.005 326.829 313.005V315.005C330.231 315.005 332.948 314.323 334.777 312.766L333.481 311.243ZM316.079 286.505V291.905H318.079V286.505H316.079ZM317.079 292.905H321.329V290.905H317.079V292.905ZM321.329 292.905C322.125 292.905 322.915 292.693 323.472 292.074L321.985 290.736C321.943 290.783 321.799 290.905 321.329 290.905V292.905ZM323.436 292.112C324.023 291.525 324.229 290.726 324.229 289.905H322.229C322.229 290.417 322.101 290.618 322.022 290.698L323.436 292.112ZM324.229 289.905V288.505H322.229V289.905H324.229ZM324.229 288.505C324.229 287.684 324.023 286.885 323.436 286.298L322.022 287.712C322.101 287.792 322.229 287.992 322.229 288.505H324.229ZM323.472 286.336C322.915 285.717 322.125 285.505 321.329 285.505V287.505C321.799 287.505 321.943 287.627 321.985 287.674L323.472 286.336ZM321.329 285.505H317.079V287.505H321.329V285.505ZM316.079 299.605V305.505H318.079V299.605H316.079ZM317.079 306.505H323.579V304.505H317.079V306.505ZM323.579 306.505C324.375 306.505 325.165 306.293 325.722 305.674L324.235 304.336C324.193 304.383 324.049 304.505 323.579 304.505V306.505ZM325.686 305.712C326.273 305.125 326.479 304.326 326.479 303.505H324.479C324.479 304.017 324.351 304.218 324.272 304.298L325.686 305.712ZM326.479 303.505V301.555H324.479V303.505H326.479ZM326.479 301.555C326.479 300.744 326.277 299.928 325.648 299.362L324.31 300.848C324.347 300.882 324.479 301.033 324.479 301.555H326.479ZM325.722 299.436C325.165 298.817 324.375 298.605 323.579 298.605V300.605C324.049 300.605 324.193 300.727 324.235 300.774L325.722 299.436ZM323.579 298.605H317.079V300.605H323.579V298.605Z" fill="white" mask="url(#path-1-outside-1_103_296)"/>
<mask id="path-3-outside-2_103_296" maskUnits="userSpaceOnUse" x="291.472" y="167.005" width="34" height="38" fill="black">
<rect fill="white" x="291.472" y="167.005" width="34" height="38"/>
<path d="M313.922 204.005H294.722C294.088 204.005 293.622 203.872 293.322 203.605C293.055 203.305 292.922 202.838 292.922 202.205V169.805C292.922 169.172 293.055 168.722 293.322 168.455C293.622 168.155 294.088 168.005 294.722 168.005H310.672C313.938 168.005 316.355 168.638 317.922 169.905C319.488 171.138 320.272 173.055 320.272 175.655V178.055C320.272 179.455 320.022 180.605 319.522 181.505C319.055 182.372 318.322 183.022 317.322 183.455C319.455 183.655 321.038 184.388 322.072 185.655C323.105 186.922 323.622 188.772 323.622 191.205V195.805C323.622 198.605 322.822 200.672 321.222 202.005C319.655 203.338 317.222 204.005 313.922 204.005ZM304.172 176.505V181.905H308.422C309.055 181.905 309.522 181.738 309.822 181.405C310.155 181.072 310.322 180.572 310.322 179.905V178.505C310.322 177.838 310.155 177.338 309.822 177.005C309.522 176.672 309.055 176.505 308.422 176.505H304.172ZM304.172 189.605V195.505H310.672C311.305 195.505 311.772 195.338 312.072 195.005C312.405 194.672 312.572 194.172 312.572 193.505V191.555C312.572 190.888 312.405 190.405 312.072 190.105C311.772 189.772 311.305 189.605 310.672 189.605H304.172Z"/>
</mask>
<path d="M293.322 203.605L292.574 204.269L292.613 204.313L292.657 204.352L293.322 203.605ZM293.322 168.455L292.614 167.748H292.614L293.322 168.455ZM317.922 169.905L317.293 170.683L317.303 170.691L317.922 169.905ZM319.522 181.505L318.647 181.019L318.641 181.031L319.522 181.505ZM317.322 183.455L316.924 182.537L317.228 184.451L317.322 183.455ZM322.072 185.655L321.297 186.287H321.297L322.072 185.655ZM321.222 202.005L320.581 201.237L320.573 201.243L321.222 202.005ZM304.172 176.505V175.505H303.172V176.505H304.172ZM304.172 181.905H303.172V182.905H304.172V181.905ZM309.822 181.405L309.114 180.698L309.096 180.716L309.078 180.736L309.822 181.405ZM309.822 177.005L309.078 177.674L309.096 177.693L309.114 177.712L309.822 177.005ZM304.172 189.605V188.605H303.172V189.605H304.172ZM304.172 195.505H303.172V196.505H304.172V195.505ZM312.072 195.005L311.364 194.298L311.346 194.316L311.328 194.336L312.072 195.005ZM312.072 190.105L311.328 190.774L311.363 190.813L311.403 190.848L312.072 190.105ZM313.922 203.005H294.722V205.005H313.922V203.005ZM294.722 203.005C294.198 203.005 294.022 202.89 293.986 202.857L292.657 204.352C293.221 204.853 293.978 205.005 294.722 205.005V203.005ZM294.069 202.941C294.036 202.904 293.922 202.728 293.922 202.205H291.922C291.922 202.948 292.073 203.706 292.574 204.269L294.069 202.941ZM293.922 202.205V169.805H291.922V202.205H293.922ZM293.922 169.805C293.922 169.553 293.949 169.383 293.98 169.276C294.011 169.173 294.039 169.152 294.029 169.162L292.614 167.748C292.067 168.295 291.922 169.076 291.922 169.805H293.922ZM294.029 169.162C294.066 169.125 294.224 169.005 294.722 169.005V167.005C293.952 167.005 293.177 167.185 292.614 167.748L294.029 169.162ZM294.722 169.005H310.672V167.005H294.722V169.005ZM310.672 169.005C313.842 169.005 315.985 169.625 317.293 170.683L318.55 169.127C316.725 167.651 314.035 167.005 310.672 167.005V169.005ZM317.303 170.691C318.559 171.68 319.272 173.26 319.272 175.655H321.272C321.272 172.849 320.417 170.597 318.54 169.119L317.303 170.691ZM319.272 175.655V178.055H321.272V175.655H319.272ZM319.272 178.055C319.272 179.343 319.04 180.312 318.647 181.019L320.396 181.991C321.003 180.898 321.272 179.566 321.272 178.055H319.272ZM318.641 181.031C318.292 181.678 317.741 182.183 316.924 182.537L317.719 184.372C318.902 183.86 319.817 183.065 320.402 181.979L318.641 181.031ZM317.228 184.451C319.181 184.634 320.481 185.287 321.297 186.287L322.846 185.023C321.596 183.49 319.729 182.676 317.415 182.459L317.228 184.451ZM321.297 186.287C322.128 187.306 322.622 188.893 322.622 191.205H324.622C324.622 188.65 324.082 186.537 322.846 185.023L321.297 186.287ZM322.622 191.205V195.805H324.622V191.205H322.622ZM322.622 195.805C322.622 198.417 321.881 200.153 320.581 201.237L321.862 202.773C323.762 201.19 324.622 198.793 324.622 195.805H322.622ZM320.573 201.243C319.269 202.354 317.119 203.005 313.922 203.005V205.005C317.324 205.005 320.041 204.323 321.87 202.766L320.573 201.243ZM303.172 176.505V181.905H305.172V176.505H303.172ZM304.172 182.905H308.422V180.905H304.172V182.905ZM308.422 182.905C309.218 182.905 310.007 182.693 310.565 182.074L309.078 180.736C309.036 180.783 308.892 180.905 308.422 180.905V182.905ZM310.529 182.112C311.116 181.525 311.322 180.726 311.322 179.905H309.322C309.322 180.417 309.194 180.618 309.114 180.698L310.529 182.112ZM311.322 179.905V178.505H309.322V179.905H311.322ZM311.322 178.505C311.322 177.684 311.116 176.885 310.529 176.298L309.114 177.712C309.194 177.792 309.322 177.992 309.322 178.505H311.322ZM310.565 176.336C310.007 175.717 309.218 175.505 308.422 175.505V177.505C308.892 177.505 309.036 177.627 309.078 177.674L310.565 176.336ZM308.422 175.505H304.172V177.505H308.422V175.505ZM303.172 189.605V195.505H305.172V189.605H303.172ZM304.172 196.505H310.672V194.505H304.172V196.505ZM310.672 196.505C311.468 196.505 312.257 196.293 312.815 195.674L311.328 194.336C311.286 194.383 311.142 194.505 310.672 194.505V196.505ZM312.779 195.712C313.366 195.125 313.572 194.326 313.572 193.505H311.572C311.572 194.017 311.444 194.218 311.364 194.298L312.779 195.712ZM313.572 193.505V191.555H311.572V193.505H313.572ZM313.572 191.555C313.572 190.744 313.37 189.928 312.741 189.362L311.403 190.848C311.44 190.882 311.572 191.033 311.572 191.555H313.572ZM312.815 189.436C312.257 188.817 311.468 188.605 310.672 188.605V190.605C311.142 190.605 311.286 190.727 311.328 190.774L312.815 189.436ZM310.672 188.605H304.172V190.605H310.672V188.605Z" fill="white" mask="url(#path-3-outside-2_103_296)"/>
<rect x="9.49707" y="1.00488" width="598" height="598" stroke="black" stroke-width="2" stroke-dasharray="7 7"/>
<rect x="4" y="1" width="595.708" height="450" fill="#011580"/>
<path d="M604 210V452H302L604 210Z" fill="white"/>
<path d="M488.496 303L306.256 451V303H488.496Z" fill="#3555FD"/>
<path d="M306.352 449.995V209.995L8.4978 210.194L306.352 449.995Z" fill="#011580"/>
<path d="M7.49993 211V451H306.255L7.49993 211Z" fill="white"/>
<rect x="4" width="121" height="446" fill="white"/>
<rect width="0.994501" height="1" transform="matrix(1 0 0 -1 604.203 211.005)" fill="white"/>
<path d="M8.96362 0.926758L9.49267 458" stroke="black" stroke-width="2" stroke-dasharray="8 8"/>
<path d="M124.842 1L7.99791 2.00026" stroke="black" stroke-width="2" stroke-dasharray="8 8"/>
<path d="M123.517 304L306.752 451L307.749 304H123.517Z" fill="#3555FD"/>
<path d="M289 134L124 303L125.327 134H289Z" fill="#031366"/>
<path d="M324 134L491 302.5V134H324Z" fill="#031366"/>
<rect width="116.515" height="446" transform="matrix(-1 0 0 1 607.5 0)" fill="white"/>
<path d="M606.504 1L605.508 450" stroke="black" stroke-width="2" stroke-dasharray="8 8"/>
<path d="M490.847 1L607.5 1.53125" stroke="black" stroke-width="2" stroke-dasharray="8 8"/>
<path d="M307.26 0L307.26 451.5" stroke="white" stroke-opacity="0.78" stroke-width="2" stroke-dasharray="33 33"/>
<path d="M487.5 303L124.015 303" stroke="white" stroke-opacity="0.78" stroke-width="2" stroke-dasharray="33 33"/>
<path d="M490.5 302.5L326.5 134.5" stroke="white" stroke-opacity="0.78" stroke-width="2" stroke-dasharray="33 33"/>
<path d="M288.5 134L124.014 303" stroke="white" stroke-opacity="0.78" stroke-width="2" stroke-dasharray="33 33"/>
<mask id="path-25-outside-3_103_296" maskUnits="userSpaceOnUse" x="289.832" y="189" width="34" height="38" fill="black">
<rect fill="white" x="289.832" y="189" width="34" height="38"/>
<path d="M312.282 226H293.082C292.449 226 291.982 225.867 291.682 225.6C291.415 225.3 291.282 224.833 291.282 224.2V191.8C291.282 191.167 291.415 190.717 291.682 190.45C291.982 190.15 292.449 190 293.082 190H309.032C312.299 190 314.715 190.633 316.282 191.9C317.849 193.133 318.632 195.05 318.632 197.65V200.05C318.632 201.45 318.382 202.6 317.882 203.5C317.415 204.367 316.682 205.017 315.682 205.45C317.815 205.65 319.399 206.383 320.432 207.65C321.465 208.917 321.982 210.767 321.982 213.2V217.8C321.982 220.6 321.182 222.667 319.582 224C318.015 225.333 315.582 226 312.282 226ZM302.532 198.5V203.9H306.782C307.415 203.9 307.882 203.733 308.182 203.4C308.515 203.067 308.682 202.567 308.682 201.9V200.5C308.682 199.833 308.515 199.333 308.182 199C307.882 198.667 307.415 198.5 306.782 198.5H302.532ZM302.532 211.6V217.5H309.032C309.665 217.5 310.132 217.333 310.432 217C310.765 216.667 310.932 216.167 310.932 215.5V213.55C310.932 212.883 310.765 212.4 310.432 212.1C310.132 211.767 309.665 211.6 309.032 211.6H302.532Z"/>
</mask>
<path d="M312.282 226H293.082C292.449 226 291.982 225.867 291.682 225.6C291.415 225.3 291.282 224.833 291.282 224.2V191.8C291.282 191.167 291.415 190.717 291.682 190.45C291.982 190.15 292.449 190 293.082 190H309.032C312.299 190 314.715 190.633 316.282 191.9C317.849 193.133 318.632 195.05 318.632 197.65V200.05C318.632 201.45 318.382 202.6 317.882 203.5C317.415 204.367 316.682 205.017 315.682 205.45C317.815 205.65 319.399 206.383 320.432 207.65C321.465 208.917 321.982 210.767 321.982 213.2V217.8C321.982 220.6 321.182 222.667 319.582 224C318.015 225.333 315.582 226 312.282 226ZM302.532 198.5V203.9H306.782C307.415 203.9 307.882 203.733 308.182 203.4C308.515 203.067 308.682 202.567 308.682 201.9V200.5C308.682 199.833 308.515 199.333 308.182 199C307.882 198.667 307.415 198.5 306.782 198.5H302.532ZM302.532 211.6V217.5H309.032C309.665 217.5 310.132 217.333 310.432 217C310.765 216.667 310.932 216.167 310.932 215.5V213.55C310.932 212.883 310.765 212.4 310.432 212.1C310.132 211.767 309.665 211.6 309.032 211.6H302.532Z" fill="#011580"/>
<path d="M291.682 225.6L290.935 226.264L290.974 226.308L291.018 226.347L291.682 225.6ZM291.682 190.45L290.975 189.743H290.975L291.682 190.45ZM316.282 191.9L315.653 192.678L315.663 192.686L316.282 191.9ZM317.882 203.5L317.008 203.014L317.001 203.026L317.882 203.5ZM315.682 205.45L315.284 204.532L315.589 206.446L315.682 205.45ZM320.432 207.65L319.657 208.282H319.657L320.432 207.65ZM319.582 224L318.942 223.232L318.934 223.238L319.582 224ZM302.532 198.5V197.5H301.532V198.5H302.532ZM302.532 203.9H301.532V204.9H302.532V203.9ZM308.182 203.4L307.475 202.693L307.456 202.711L307.439 202.731L308.182 203.4ZM308.182 199L307.439 199.669L307.456 199.689L307.475 199.707L308.182 199ZM302.532 211.6V210.6H301.532V211.6H302.532ZM302.532 217.5H301.532V218.5H302.532V217.5ZM310.432 217L309.725 216.293L309.706 216.311L309.689 216.331L310.432 217ZM310.432 212.1L309.689 212.769L309.724 212.808L309.763 212.843L310.432 212.1ZM312.282 225H293.082V227H312.282V225ZM293.082 225C292.559 225 292.383 224.885 292.346 224.853L291.018 226.347C291.581 226.848 292.338 227 293.082 227V225ZM292.429 224.936C292.397 224.899 292.282 224.723 292.282 224.2H290.282C290.282 224.944 290.434 225.701 290.935 226.264L292.429 224.936ZM292.282 224.2V191.8H290.282V224.2H292.282ZM292.282 191.8C292.282 191.548 292.309 191.379 292.341 191.272C292.371 191.168 292.399 191.147 292.389 191.157L290.975 189.743C290.427 190.29 290.282 191.071 290.282 191.8H292.282ZM292.389 191.157C292.426 191.12 292.584 191 293.082 191V189C292.313 189 291.537 189.18 290.975 189.743L292.389 191.157ZM293.082 191H309.032V189H293.082V191ZM309.032 191C312.202 191 314.345 191.62 315.653 192.678L316.911 191.122C315.085 189.646 312.395 189 309.032 189V191ZM315.663 192.686C316.92 193.675 317.632 195.256 317.632 197.65H319.632C319.632 194.844 318.778 192.592 316.9 191.114L315.663 192.686ZM317.632 197.65V200.05H319.632V197.65H317.632ZM317.632 200.05C317.632 201.339 317.401 202.307 317.008 203.014L318.756 203.986C319.363 202.893 319.632 201.561 319.632 200.05H317.632ZM317.001 203.026C316.653 203.673 316.102 204.178 315.284 204.532L316.08 206.368C317.262 205.855 318.178 205.06 318.762 203.974L317.001 203.026ZM315.589 206.446C317.542 206.629 318.841 207.282 319.657 208.282L321.207 207.018C319.956 205.485 318.089 204.671 315.775 204.454L315.589 206.446ZM319.657 208.282C320.488 209.301 320.982 210.889 320.982 213.2H322.982C322.982 210.645 322.442 208.532 321.207 207.018L319.657 208.282ZM320.982 213.2V217.8H322.982V213.2H320.982ZM320.982 217.8C320.982 220.412 320.242 222.148 318.942 223.232L320.222 224.768C322.122 223.185 322.982 220.788 322.982 217.8H320.982ZM318.934 223.238C317.629 224.349 315.479 225 312.282 225V227C315.685 227 318.401 226.318 320.23 224.762L318.934 223.238ZM301.532 198.5V203.9H303.532V198.5H301.532ZM302.532 204.9H306.782V202.9H302.532V204.9ZM306.782 204.9C307.579 204.9 308.368 204.688 308.925 204.069L307.439 202.731C307.396 202.778 307.252 202.9 306.782 202.9V204.9ZM308.889 204.107C309.476 203.52 309.682 202.721 309.682 201.9H307.682C307.682 202.413 307.554 202.613 307.475 202.693L308.889 204.107ZM309.682 201.9V200.5H307.682V201.9H309.682ZM309.682 200.5C309.682 199.679 309.476 198.88 308.889 198.293L307.475 199.707C307.554 199.787 307.682 199.987 307.682 200.5H309.682ZM308.925 198.331C308.368 197.712 307.579 197.5 306.782 197.5V199.5C307.252 199.5 307.396 199.622 307.439 199.669L308.925 198.331ZM306.782 197.5H302.532V199.5H306.782V197.5ZM301.532 211.6V217.5H303.532V211.6H301.532ZM302.532 218.5H309.032V216.5H302.532V218.5ZM309.032 218.5C309.829 218.5 310.618 218.288 311.175 217.669L309.689 216.331C309.646 216.378 309.502 216.5 309.032 216.5V218.5ZM311.139 217.707C311.726 217.12 311.932 216.321 311.932 215.5H309.932C309.932 216.013 309.804 216.213 309.725 216.293L311.139 217.707ZM311.932 215.5V213.55H309.932V215.5H311.932ZM311.932 213.55C311.932 212.739 311.73 211.923 311.101 211.357L309.763 212.843C309.801 212.877 309.932 213.028 309.932 213.55H311.932ZM311.175 211.431C310.618 210.812 309.829 210.6 309.032 210.6V212.6C309.502 212.6 309.646 212.722 309.689 212.769L311.175 211.431ZM309.032 210.6H302.532V212.6H309.032V210.6Z" fill="white" mask="url(#path-25-outside-3_103_296)"/>
<rect x="125" width="164" height="134" fill="#3555FD"/>
<rect x="326" width="165" height="134" fill="#3555FD"/>
<path d="M282.853 134L124.512 134" stroke="white" stroke-opacity="0.78" stroke-width="2" stroke-dasharray="33 33"/>
<path d="M288 135V3.72529e-06" stroke="white" stroke-opacity="0.78" stroke-width="2" stroke-dasharray="33 33"/>
<path d="M326 135V0" stroke="white" stroke-opacity="0.78" stroke-width="2" stroke-dasharray="33 33"/>
<path d="M490.985 134L332.645 134" stroke="white" stroke-opacity="0.78" stroke-width="2" stroke-dasharray="33 33"/>
</g>
<defs>
<filter id="filter0_d_103_296" x="0" y="0" width="612.497" height="608.005" filterUnits="userSpaceOnUse" color-interpolation-filters="sRGB">
<feFlood flood-opacity="0" result="BackgroundImageFix"/>
<feColorMatrix in="SourceAlpha" type="matrix" values="0 0 0 0 0 0 0 0 0 0 0 0 0 0 0 0 0 0 127 0" result="hardAlpha"/>
<feOffset dy="4"/>
<feGaussianBlur stdDeviation="2"/>
<feComposite in2="hardAlpha" operator="out"/>
<feColorMatrix type="matrix" values="0 0 0 0 0 0 0 0 0 0 0 0 0 0 0 0 0 0 0.25 0"/>
<feBlend mode="normal" in2="BackgroundImageFix" result="effect1_dropShadow_103_296"/>
<feBlend mode="normal" in="SourceGraphic" in2="effect1_dropShadow_103_296" result="shape"/>
</filter>
</defs>
</svg>
