<svg width="600" height="600" viewBox="0 0 600 600" fill="none" xmlns="http://www.w3.org/2000/svg">
<mask id="path-1-outside-1_103_366" maskUnits="userSpaceOnUse" x="296.879" y="277.004" width="34" height="38" fill="black">
<rect fill="white" x="296.879" y="277.004" width="34" height="38"/>
<path d="M319.329 314.004H300.129C299.495 314.004 299.029 313.871 298.729 313.604C298.462 313.304 298.329 312.837 298.329 312.204V279.804C298.329 279.171 298.462 278.721 298.729 278.454C299.029 278.154 299.495 278.004 300.129 278.004H316.079C319.345 278.004 321.762 278.637 323.329 279.904C324.895 281.137 325.679 283.054 325.679 285.654V288.054C325.679 289.454 325.429 290.604 324.929 291.504C324.462 292.371 323.729 293.021 322.729 293.454C324.862 293.654 326.445 294.387 327.479 295.654C328.512 296.921 329.029 298.771 329.029 301.204V305.804C329.029 308.604 328.229 310.671 326.629 312.004C325.062 313.337 322.629 314.004 319.329 314.004ZM309.579 286.504V291.904H313.829C314.462 291.904 314.929 291.737 315.229 291.404C315.562 291.071 315.729 290.571 315.729 289.904V288.504C315.729 287.837 315.562 287.337 315.229 287.004C314.929 286.671 314.462 286.504 313.829 286.504H309.579ZM309.579 299.604V305.504H316.079C316.712 305.504 317.179 305.337 317.479 305.004C317.812 304.671 317.979 304.171 317.979 303.504V301.554C317.979 300.887 317.812 300.404 317.479 300.104C317.179 299.771 316.712 299.604 316.079 299.604H309.579Z"/>
</mask>
<path d="M298.729 313.604L297.981 314.268L298.02 314.312L298.064 314.351L298.729 313.604ZM298.729 278.454L298.022 277.747H298.022L298.729 278.454ZM323.329 279.904L322.7 280.682L322.71 280.69L323.329 279.904ZM324.929 291.504L324.055 291.018L324.048 291.03L324.929 291.504ZM322.729 293.454L322.331 292.536L322.635 294.45L322.729 293.454ZM327.479 295.654L326.704 296.286H326.704L327.479 295.654ZM326.629 312.004L325.989 311.236L325.981 311.242L326.629 312.004ZM309.579 286.504V285.504H308.579V286.504H309.579ZM309.579 291.904H308.579V292.904H309.579V291.904ZM315.229 291.404L314.522 290.697L314.503 290.715L314.485 290.735L315.229 291.404ZM315.229 287.004L314.485 287.673L314.503 287.692L314.522 287.711L315.229 287.004ZM309.579 299.604V298.604H308.579V299.604H309.579ZM309.579 305.504H308.579V306.504H309.579V305.504ZM317.479 305.004L316.772 304.297L316.753 304.315L316.735 304.335L317.479 305.004ZM317.479 300.104L316.735 300.773L316.771 300.812L316.81 300.847L317.479 300.104ZM319.329 313.004H300.129V315.004H319.329V313.004ZM300.129 313.004C299.606 313.004 299.43 312.889 299.393 312.856L298.064 314.351C298.628 314.852 299.385 315.004 300.129 315.004V313.004ZM299.476 312.94C299.444 312.903 299.329 312.727 299.329 312.204H297.329C297.329 312.947 297.481 313.705 297.981 314.268L299.476 312.94ZM299.329 312.204V279.804H297.329V312.204H299.329ZM299.329 279.804C299.329 279.552 299.356 279.382 299.388 279.275C299.418 279.172 299.446 279.151 299.436 279.161L298.022 277.747C297.474 278.294 297.329 279.075 297.329 279.804H299.329ZM299.436 279.161C299.473 279.124 299.631 279.004 300.129 279.004V277.004C299.36 277.004 298.584 277.184 298.022 277.747L299.436 279.161ZM300.129 279.004H316.079V277.004H300.129V279.004ZM316.079 279.004C319.249 279.004 321.392 279.624 322.7 280.682L323.958 279.126C322.132 277.65 319.442 277.004 316.079 277.004V279.004ZM322.71 280.69C323.967 281.679 324.679 283.259 324.679 285.654H326.679C326.679 282.848 325.824 280.596 323.947 279.118L322.71 280.69ZM324.679 285.654V288.054H326.679V285.654H324.679ZM324.679 288.054C324.679 289.342 324.448 290.311 324.055 291.018L325.803 291.99C326.41 290.897 326.679 289.565 326.679 288.054H324.679ZM324.048 291.03C323.7 291.677 323.148 292.182 322.331 292.536L323.126 294.371C324.309 293.859 325.225 293.064 325.809 291.978L324.048 291.03ZM322.635 294.45C324.588 294.633 325.888 295.286 326.704 296.286L328.254 295.022C327.003 293.489 325.136 292.675 322.822 292.458L322.635 294.45ZM326.704 296.286C327.535 297.305 328.029 298.893 328.029 301.204H330.029C330.029 298.649 329.489 296.536 328.254 295.022L326.704 296.286ZM328.029 301.204V305.804H330.029V301.204H328.029ZM328.029 305.804C328.029 308.416 327.289 310.152 325.989 311.236L327.269 312.772C329.169 311.189 330.029 308.792 330.029 305.804H328.029ZM325.981 311.242C324.676 312.353 322.526 313.004 319.329 313.004V315.004C322.731 315.004 325.448 314.322 327.277 312.765L325.981 311.242ZM308.579 286.504V291.904H310.579V286.504H308.579ZM309.579 292.904H313.829V290.904H309.579V292.904ZM313.829 292.904C314.625 292.904 315.415 292.692 315.972 292.073L314.485 290.735C314.443 290.782 314.299 290.904 313.829 290.904V292.904ZM315.936 292.111C316.523 291.524 316.729 290.725 316.729 289.904H314.729C314.729 290.416 314.601 290.617 314.522 290.697L315.936 292.111ZM316.729 289.904V288.504H314.729V289.904H316.729ZM316.729 288.504C316.729 287.683 316.523 286.884 315.936 286.297L314.522 287.711C314.601 287.791 314.729 287.991 314.729 288.504H316.729ZM315.972 286.335C315.415 285.716 314.625 285.504 313.829 285.504V287.504C314.299 287.504 314.443 287.626 314.485 287.673L315.972 286.335ZM313.829 285.504H309.579V287.504H313.829V285.504ZM308.579 299.604V305.504H310.579V299.604H308.579ZM309.579 306.504H316.079V304.504H309.579V306.504ZM316.079 306.504C316.875 306.504 317.665 306.292 318.222 305.673L316.735 304.335C316.693 304.382 316.549 304.504 316.079 304.504V306.504ZM318.186 305.711C318.773 305.124 318.979 304.325 318.979 303.504H316.979C316.979 304.016 316.851 304.217 316.772 304.297L318.186 305.711ZM318.979 303.504V301.554H316.979V303.504H318.979ZM318.979 301.554C318.979 300.743 318.777 299.927 318.148 299.361L316.81 300.847C316.847 300.881 316.979 301.032 316.979 301.554H318.979ZM318.222 299.435C317.665 298.816 316.875 298.604 316.079 298.604V300.604C316.549 300.604 316.693 300.726 316.735 300.773L318.222 299.435ZM316.079 298.604H309.579V300.604H316.079V298.604Z" fill="white" mask="url(#path-1-outside-1_103_366)"/>
<mask id="path-3-outside-2_103_366" maskUnits="userSpaceOnUse" x="283.972" y="167.004" width="34" height="38" fill="black">
<rect fill="white" x="283.972" y="167.004" width="34" height="38"/>
<path d="M306.422 204.004H287.222C286.588 204.004 286.122 203.871 285.822 203.604C285.555 203.304 285.422 202.837 285.422 202.204V169.804C285.422 169.171 285.555 168.721 285.822 168.454C286.122 168.154 286.588 168.004 287.222 168.004H303.172C306.438 168.004 308.855 168.637 310.422 169.904C311.988 171.137 312.772 173.054 312.772 175.654V178.054C312.772 179.454 312.522 180.604 312.022 181.504C311.555 182.371 310.822 183.021 309.822 183.454C311.955 183.654 313.538 184.387 314.572 185.654C315.605 186.921 316.122 188.771 316.122 191.204V195.804C316.122 198.604 315.322 200.671 313.722 202.004C312.155 203.337 309.722 204.004 306.422 204.004ZM296.672 176.504V181.904H300.922C301.555 181.904 302.022 181.737 302.322 181.404C302.655 181.071 302.822 180.571 302.822 179.904V178.504C302.822 177.837 302.655 177.337 302.322 177.004C302.022 176.671 301.555 176.504 300.922 176.504H296.672ZM296.672 189.604V195.504H303.172C303.805 195.504 304.272 195.337 304.572 195.004C304.905 194.671 305.072 194.171 305.072 193.504V191.554C305.072 190.887 304.905 190.404 304.572 190.104C304.272 189.771 303.805 189.604 303.172 189.604H296.672Z"/>
</mask>
<path d="M285.822 203.604L285.074 204.268L285.113 204.312L285.157 204.351L285.822 203.604ZM285.822 168.454L285.114 167.747H285.114L285.822 168.454ZM310.422 169.904L309.793 170.682L309.803 170.69L310.422 169.904ZM312.022 181.504L311.147 181.018L311.141 181.03L312.022 181.504ZM309.822 183.454L309.424 182.536L309.728 184.45L309.822 183.454ZM314.572 185.654L313.797 186.286H313.797L314.572 185.654ZM313.722 202.004L313.081 201.236L313.073 201.242L313.722 202.004ZM296.672 176.504V175.504H295.672V176.504H296.672ZM296.672 181.904H295.672V182.904H296.672V181.904ZM302.322 181.404L301.614 180.697L301.596 180.715L301.578 180.735L302.322 181.404ZM302.322 177.004L301.578 177.673L301.596 177.692L301.614 177.711L302.322 177.004ZM296.672 189.604V188.604H295.672V189.604H296.672ZM296.672 195.504H295.672V196.504H296.672V195.504ZM304.572 195.004L303.864 194.297L303.846 194.315L303.828 194.335L304.572 195.004ZM304.572 190.104L303.828 190.773L303.863 190.812L303.903 190.847L304.572 190.104ZM306.422 203.004H287.222V205.004H306.422V203.004ZM287.222 203.004C286.698 203.004 286.522 202.889 286.486 202.856L285.157 204.351C285.721 204.852 286.478 205.004 287.222 205.004V203.004ZM286.569 202.94C286.536 202.903 286.422 202.727 286.422 202.204H284.422C284.422 202.947 284.573 203.705 285.074 204.268L286.569 202.94ZM286.422 202.204V169.804H284.422V202.204H286.422ZM286.422 169.804C286.422 169.552 286.449 169.382 286.48 169.275C286.511 169.172 286.539 169.151 286.529 169.161L285.114 167.747C284.567 168.294 284.422 169.075 284.422 169.804H286.422ZM286.529 169.161C286.566 169.124 286.724 169.004 287.222 169.004V167.004C286.452 167.004 285.677 167.184 285.114 167.747L286.529 169.161ZM287.222 169.004H303.172V167.004H287.222V169.004ZM303.172 169.004C306.342 169.004 308.485 169.624 309.793 170.682L311.05 169.126C309.225 167.65 306.535 167.004 303.172 167.004V169.004ZM309.803 170.69C311.059 171.679 311.772 173.259 311.772 175.654H313.772C313.772 172.848 312.917 170.596 311.04 169.118L309.803 170.69ZM311.772 175.654V178.054H313.772V175.654H311.772ZM311.772 178.054C311.772 179.342 311.54 180.311 311.147 181.018L312.896 181.99C313.503 180.897 313.772 179.565 313.772 178.054H311.772ZM311.141 181.03C310.792 181.677 310.241 182.182 309.424 182.536L310.219 184.371C311.402 183.859 312.317 183.064 312.902 181.978L311.141 181.03ZM309.728 184.45C311.681 184.633 312.981 185.286 313.797 186.286L315.346 185.022C314.096 183.489 312.229 182.675 309.915 182.458L309.728 184.45ZM313.797 186.286C314.628 187.305 315.122 188.893 315.122 191.204H317.122C317.122 188.649 316.582 186.536 315.346 185.022L313.797 186.286ZM315.122 191.204V195.804H317.122V191.204H315.122ZM315.122 195.804C315.122 198.416 314.381 200.152 313.081 201.236L314.362 202.772C316.262 201.189 317.122 198.792 317.122 195.804H315.122ZM313.073 201.242C311.769 202.353 309.619 203.004 306.422 203.004V205.004C309.824 205.004 312.541 204.322 314.37 202.765L313.073 201.242ZM295.672 176.504V181.904H297.672V176.504H295.672ZM296.672 182.904H300.922V180.904H296.672V182.904ZM300.922 182.904C301.718 182.904 302.507 182.692 303.065 182.073L301.578 180.735C301.536 180.782 301.392 180.904 300.922 180.904V182.904ZM303.029 182.111C303.616 181.524 303.822 180.725 303.822 179.904H301.822C301.822 180.416 301.694 180.617 301.614 180.697L303.029 182.111ZM303.822 179.904V178.504H301.822V179.904H303.822ZM303.822 178.504C303.822 177.683 303.616 176.884 303.029 176.297L301.614 177.711C301.694 177.791 301.822 177.991 301.822 178.504H303.822ZM303.065 176.335C302.507 175.716 301.718 175.504 300.922 175.504V177.504C301.392 177.504 301.536 177.626 301.578 177.673L303.065 176.335ZM300.922 175.504H296.672V177.504H300.922V175.504ZM295.672 189.604V195.504H297.672V189.604H295.672ZM296.672 196.504H303.172V194.504H296.672V196.504ZM303.172 196.504C303.968 196.504 304.757 196.292 305.315 195.673L303.828 194.335C303.786 194.382 303.642 194.504 303.172 194.504V196.504ZM305.279 195.711C305.866 195.124 306.072 194.325 306.072 193.504H304.072C304.072 194.016 303.944 194.217 303.864 194.297L305.279 195.711ZM306.072 193.504V191.554H304.072V193.504H306.072ZM306.072 191.554C306.072 190.743 305.87 189.927 305.241 189.361L303.903 190.847C303.94 190.881 304.072 191.032 304.072 191.554H306.072ZM305.315 189.435C304.757 188.816 303.968 188.604 303.172 188.604V190.604C303.642 190.604 303.786 190.726 303.828 190.773L305.315 189.435ZM303.172 188.604H296.672V190.604H303.172V188.604Z" fill="white" mask="url(#path-3-outside-2_103_366)"/>
<rect x="1.99683" y="1.00488" width="595.51" height="598" stroke="black" stroke-width="2" stroke-dasharray="7 7"/>
<rect x="0.997803" y="0.00488281" width="595.708" height="450" fill="#011580"/>
<path d="M596.704 210.004V450.004H298.85L596.704 210.004Z" fill="white"/>
<path d="M480.996 303L298.756 451V303H480.996Z" fill="#3555FD"/>
<path d="M298.852 449.996V209.996L0.997803 210.195L298.852 449.996Z" fill="#011580"/>
<path d="M-6.6132e-05 211V451H298.755L-6.6132e-05 211Z" fill="white"/>
<rect x="0.497925" width="116.515" height="446" fill="white"/>
<rect width="0.994501" height="1" transform="matrix(1 0 0 -1 596.703 211.004)" fill="white"/>
<path d="M1.46362 0.926758L1.99267 458" stroke="black" stroke-width="2" stroke-dasharray="8 8"/>
<path d="M116.017 304L299.252 451L300.249 304H116.017Z" fill="#3555FD"/>
<path d="M297.5 134L116.5 303L117.956 134H297.5Z" fill="#031366"/>
<path d="M301.5 134L483.5 303V134H301.5Z" fill="#031366"/>
<rect width="116.515" height="446" transform="matrix(-1 0 0 1 600 0)" fill="white"/>
<path d="M599.004 1L598.008 450" stroke="black" stroke-width="2" stroke-dasharray="8 8"/>
<path d="M480 303L116.515 303" stroke="white" stroke-opacity="0.78" stroke-width="2" stroke-dasharray="33 33"/>
<path d="M480 303L302 133.5" stroke="white" stroke-opacity="0.78" stroke-width="2" stroke-dasharray="33 33"/>
<path d="M296.5 135L116.514 303" stroke="white" stroke-opacity="0.78" stroke-width="2" stroke-dasharray="33 33"/>
<rect x="117.5" width="180" height="134" fill="#3555FD"/>
<rect x="301.5" width="182" height="134" fill="#3555FD"/>
<path d="M296 134L117.012 134" stroke="white" stroke-opacity="0.78" stroke-width="2" stroke-dasharray="33 33"/>
<path d="M296.5 135.5V0" stroke="white" stroke-opacity="0.78" stroke-width="2" stroke-dasharray="33 33"/>
<path d="M302.5 135.5V0" stroke="white" stroke-opacity="0.78" stroke-width="2" stroke-dasharray="33 33"/>
<path d="M483.485 134H302" stroke="white" stroke-opacity="0.78" stroke-width="2" stroke-dasharray="33 33"/>
<path d="M325.5 0L484.836 135.5V0H325.5Z" fill="white"/>
<path d="M275.836 0L116.5 135.5V0H275.836Z" fill="white"/>
<path d="M325.695 1L600 1.53125" stroke="black" stroke-width="2" stroke-dasharray="8 8"/>
<path d="M273.357 1L0.497553 2.00026" stroke="black" stroke-width="2" stroke-dasharray="8 8"/>
<path d="M299.76 0L299.76 450.5" stroke="white" stroke-opacity="0.3" stroke-width="2" stroke-dasharray="33 33"/>
<mask id="path-33-outside-3_103_366" maskUnits="userSpaceOnUse" x="282.332" y="189" width="34" height="38" fill="black">
<rect fill="white" x="282.332" y="189" width="34" height="38"/>
<path d="M304.782 226H285.582C284.949 226 284.482 225.867 284.182 225.6C283.915 225.3 283.782 224.833 283.782 224.2V191.8C283.782 191.167 283.915 190.717 284.182 190.45C284.482 190.15 284.949 190 285.582 190H301.532C304.799 190 307.215 190.633 308.782 191.9C310.349 193.133 311.132 195.05 311.132 197.65V200.05C311.132 201.45 310.882 202.6 310.382 203.5C309.915 204.367 309.182 205.017 308.182 205.45C310.315 205.65 311.899 206.383 312.932 207.65C313.965 208.917 314.482 210.767 314.482 213.2V217.8C314.482 220.6 313.682 222.667 312.082 224C310.515 225.333 308.082 226 304.782 226ZM295.032 198.5V203.9H299.282C299.915 203.9 300.382 203.733 300.682 203.4C301.015 203.067 301.182 202.567 301.182 201.9V200.5C301.182 199.833 301.015 199.333 300.682 199C300.382 198.667 299.915 198.5 299.282 198.5H295.032ZM295.032 211.6V217.5H301.532C302.165 217.5 302.632 217.333 302.932 217C303.265 216.667 303.432 216.167 303.432 215.5V213.55C303.432 212.883 303.265 212.4 302.932 212.1C302.632 211.767 302.165 211.6 301.532 211.6H295.032Z"/>
</mask>
<path d="M304.782 226H285.582C284.949 226 284.482 225.867 284.182 225.6C283.915 225.3 283.782 224.833 283.782 224.2V191.8C283.782 191.167 283.915 190.717 284.182 190.45C284.482 190.15 284.949 190 285.582 190H301.532C304.799 190 307.215 190.633 308.782 191.9C310.349 193.133 311.132 195.05 311.132 197.65V200.05C311.132 201.45 310.882 202.6 310.382 203.5C309.915 204.367 309.182 205.017 308.182 205.45C310.315 205.65 311.899 206.383 312.932 207.65C313.965 208.917 314.482 210.767 314.482 213.2V217.8C314.482 220.6 313.682 222.667 312.082 224C310.515 225.333 308.082 226 304.782 226ZM295.032 198.5V203.9H299.282C299.915 203.9 300.382 203.733 300.682 203.4C301.015 203.067 301.182 202.567 301.182 201.9V200.5C301.182 199.833 301.015 199.333 300.682 199C300.382 198.667 299.915 198.5 299.282 198.5H295.032ZM295.032 211.6V217.5H301.532C302.165 217.5 302.632 217.333 302.932 217C303.265 216.667 303.432 216.167 303.432 215.5V213.55C303.432 212.883 303.265 212.4 302.932 212.1C302.632 211.767 302.165 211.6 301.532 211.6H295.032Z" fill="#011580"/>
<path d="M284.182 225.6L283.435 226.264L283.474 226.308L283.518 226.347L284.182 225.6ZM284.182 190.45L283.475 189.743H283.475L284.182 190.45ZM308.782 191.9L308.153 192.678L308.163 192.686L308.782 191.9ZM310.382 203.5L309.508 203.014L309.501 203.026L310.382 203.5ZM308.182 205.45L307.784 204.532L308.089 206.446L308.182 205.45ZM312.932 207.65L312.157 208.282H312.157L312.932 207.65ZM312.082 224L311.442 223.232L311.434 223.238L312.082 224ZM295.032 198.5V197.5H294.032V198.5H295.032ZM295.032 203.9H294.032V204.9H295.032V203.9ZM300.682 203.4L299.975 202.693L299.956 202.711L299.939 202.731L300.682 203.4ZM300.682 199L299.939 199.669L299.956 199.689L299.975 199.707L300.682 199ZM295.032 211.6V210.6H294.032V211.6H295.032ZM295.032 217.5H294.032V218.5H295.032V217.5ZM302.932 217L302.225 216.293L302.206 216.311L302.189 216.331L302.932 217ZM302.932 212.1L302.189 212.769L302.224 212.808L302.263 212.843L302.932 212.1ZM304.782 225H285.582V227H304.782V225ZM285.582 225C285.059 225 284.883 224.885 284.846 224.853L283.518 226.347C284.081 226.848 284.838 227 285.582 227V225ZM284.929 224.936C284.897 224.899 284.782 224.723 284.782 224.2H282.782C282.782 224.944 282.934 225.701 283.435 226.264L284.929 224.936ZM284.782 224.2V191.8H282.782V224.2H284.782ZM284.782 191.8C284.782 191.548 284.809 191.379 284.841 191.272C284.871 191.168 284.899 191.147 284.889 191.157L283.475 189.743C282.927 190.29 282.782 191.071 282.782 191.8H284.782ZM284.889 191.157C284.926 191.12 285.084 191 285.582 191V189C284.813 189 284.037 189.18 283.475 189.743L284.889 191.157ZM285.582 191H301.532V189H285.582V191ZM301.532 191C304.702 191 306.845 191.62 308.153 192.678L309.411 191.122C307.585 189.646 304.895 189 301.532 189V191ZM308.163 192.686C309.42 193.675 310.132 195.256 310.132 197.65H312.132C312.132 194.844 311.278 192.592 309.4 191.114L308.163 192.686ZM310.132 197.65V200.05H312.132V197.65H310.132ZM310.132 200.05C310.132 201.339 309.901 202.307 309.508 203.014L311.256 203.986C311.863 202.893 312.132 201.561 312.132 200.05H310.132ZM309.501 203.026C309.153 203.673 308.602 204.178 307.784 204.532L308.58 206.368C309.762 205.855 310.678 205.06 311.262 203.974L309.501 203.026ZM308.089 206.446C310.042 206.629 311.341 207.282 312.157 208.282L313.707 207.018C312.456 205.485 310.589 204.671 308.275 204.454L308.089 206.446ZM312.157 208.282C312.988 209.301 313.482 210.889 313.482 213.2H315.482C315.482 210.645 314.942 208.532 313.707 207.018L312.157 208.282ZM313.482 213.2V217.8H315.482V213.2H313.482ZM313.482 217.8C313.482 220.412 312.742 222.148 311.442 223.232L312.722 224.768C314.622 223.185 315.482 220.788 315.482 217.8H313.482ZM311.434 223.238C310.129 224.349 307.979 225 304.782 225V227C308.185 227 310.901 226.318 312.73 224.762L311.434 223.238ZM294.032 198.5V203.9H296.032V198.5H294.032ZM295.032 204.9H299.282V202.9H295.032V204.9ZM299.282 204.9C300.079 204.9 300.868 204.688 301.425 204.069L299.939 202.731C299.896 202.778 299.752 202.9 299.282 202.9V204.9ZM301.389 204.107C301.976 203.52 302.182 202.721 302.182 201.9H300.182C300.182 202.413 300.054 202.613 299.975 202.693L301.389 204.107ZM302.182 201.9V200.5H300.182V201.9H302.182ZM302.182 200.5C302.182 199.679 301.976 198.88 301.389 198.293L299.975 199.707C300.054 199.787 300.182 199.987 300.182 200.5H302.182ZM301.425 198.331C300.868 197.712 300.079 197.5 299.282 197.5V199.5C299.752 199.5 299.896 199.622 299.939 199.669L301.425 198.331ZM299.282 197.5H295.032V199.5H299.282V197.5ZM294.032 211.6V217.5H296.032V211.6H294.032ZM295.032 218.5H301.532V216.5H295.032V218.5ZM301.532 218.5C302.329 218.5 303.118 218.288 303.675 217.669L302.189 216.331C302.146 216.378 302.002 216.5 301.532 216.5V218.5ZM303.639 217.707C304.226 217.12 304.432 216.321 304.432 215.5H302.432C302.432 216.013 302.304 216.213 302.225 216.293L303.639 217.707ZM304.432 215.5V213.55H302.432V215.5H304.432ZM304.432 213.55C304.432 212.739 304.23 211.923 303.601 211.357L302.263 212.843C302.301 212.877 302.432 213.028 302.432 213.55H304.432ZM303.675 211.431C303.118 210.812 302.329 210.6 301.532 210.6V212.6C302.002 212.6 302.146 212.722 302.189 212.769L303.675 211.431ZM301.532 210.6H295.032V212.6H301.532V210.6Z" fill="white" mask="url(#path-33-outside-3_103_366)"/>
</svg>
