<svg width="600" height="600" viewBox="0 0 600 600" fill="none" xmlns="http://www.w3.org/2000/svg">
<mask id="path-1-outside-1_128_119" maskUnits="userSpaceOnUse" x="296.879" y="277" width="34" height="38" fill="black">
<rect fill="white" x="296.879" y="277" width="34" height="38"/>
<path d="M319.329 314H300.129C299.495 314 299.029 313.867 298.729 313.6C298.462 313.3 298.329 312.833 298.329 312.2V279.8C298.329 279.167 298.462 278.717 298.729 278.45C299.029 278.15 299.495 278 300.129 278H316.079C319.345 278 321.762 278.633 323.329 279.9C324.895 281.133 325.679 283.05 325.679 285.65V288.05C325.679 289.45 325.429 290.6 324.929 291.5C324.462 292.367 323.729 293.017 322.729 293.45C324.862 293.65 326.445 294.383 327.479 295.65C328.512 296.917 329.029 298.767 329.029 301.2V305.8C329.029 308.6 328.229 310.667 326.629 312C325.062 313.333 322.629 314 319.329 314ZM309.579 286.5V291.9H313.829C314.462 291.9 314.929 291.733 315.229 291.4C315.562 291.067 315.729 290.567 315.729 289.9V288.5C315.729 287.833 315.562 287.333 315.229 287C314.929 286.667 314.462 286.5 313.829 286.5H309.579ZM309.579 299.6V305.5H316.079C316.712 305.5 317.179 305.333 317.479 305C317.812 304.667 317.979 304.167 317.979 303.5V301.55C317.979 300.883 317.812 300.4 317.479 300.1C317.179 299.767 316.712 299.6 316.079 299.6H309.579Z"/>
</mask>
<path d="M298.729 313.6L297.981 314.264L298.02 314.308L298.064 314.347L298.729 313.6ZM298.729 278.45L298.022 277.743H298.022L298.729 278.45ZM323.329 279.9L322.7 280.678L322.71 280.686L323.329 279.9ZM324.929 291.5L324.055 291.014L324.048 291.026L324.929 291.5ZM322.729 293.45L322.331 292.532L322.635 294.446L322.729 293.45ZM327.479 295.65L326.704 296.282H326.704L327.479 295.65ZM326.629 312L325.989 311.232L325.981 311.238L326.629 312ZM309.579 286.5V285.5H308.579V286.5H309.579ZM309.579 291.9H308.579V292.9H309.579V291.9ZM315.229 291.4L314.522 290.693L314.503 290.711L314.485 290.731L315.229 291.4ZM315.229 287L314.485 287.669L314.503 287.689L314.522 287.707L315.229 287ZM309.579 299.6V298.6H308.579V299.6H309.579ZM309.579 305.5H308.579V306.5H309.579V305.5ZM317.479 305L316.772 304.293L316.753 304.311L316.735 304.331L317.479 305ZM317.479 300.1L316.735 300.769L316.771 300.808L316.81 300.843L317.479 300.1ZM319.329 313H300.129V315H319.329V313ZM300.129 313C299.606 313 299.43 312.885 299.393 312.853L298.064 314.347C298.628 314.848 299.385 315 300.129 315V313ZM299.476 312.936C299.444 312.899 299.329 312.723 299.329 312.2H297.329C297.329 312.944 297.481 313.701 297.981 314.264L299.476 312.936ZM299.329 312.2V279.8H297.329V312.2H299.329ZM299.329 279.8C299.329 279.548 299.356 279.379 299.388 279.272C299.418 279.168 299.446 279.147 299.436 279.157L298.022 277.743C297.474 278.29 297.329 279.071 297.329 279.8H299.329ZM299.436 279.157C299.473 279.12 299.631 279 300.129 279V277C299.36 277 298.584 277.18 298.022 277.743L299.436 279.157ZM300.129 279H316.079V277H300.129V279ZM316.079 279C319.249 279 321.392 279.62 322.7 280.678L323.958 279.122C322.132 277.646 319.442 277 316.079 277V279ZM322.71 280.686C323.967 281.675 324.679 283.256 324.679 285.65H326.679C326.679 282.844 325.824 280.592 323.947 279.114L322.71 280.686ZM324.679 285.65V288.05H326.679V285.65H324.679ZM324.679 288.05C324.679 289.339 324.448 290.307 324.055 291.014L325.803 291.986C326.41 290.893 326.679 289.561 326.679 288.05H324.679ZM324.048 291.026C323.7 291.673 323.148 292.178 322.331 292.532L323.126 294.368C324.309 293.855 325.225 293.06 325.809 291.974L324.048 291.026ZM322.635 294.446C324.588 294.629 325.888 295.282 326.704 296.282L328.254 295.018C327.003 293.485 325.136 292.671 322.822 292.454L322.635 294.446ZM326.704 296.282C327.535 297.301 328.029 298.889 328.029 301.2H330.029C330.029 298.645 329.489 296.532 328.254 295.018L326.704 296.282ZM328.029 301.2V305.8H330.029V301.2H328.029ZM328.029 305.8C328.029 308.412 327.289 310.148 325.989 311.232L327.269 312.768C329.169 311.185 330.029 308.788 330.029 305.8H328.029ZM325.981 311.238C324.676 312.349 322.526 313 319.329 313V315C322.731 315 325.448 314.318 327.277 312.762L325.981 311.238ZM308.579 286.5V291.9H310.579V286.5H308.579ZM309.579 292.9H313.829V290.9H309.579V292.9ZM313.829 292.9C314.625 292.9 315.415 292.688 315.972 292.069L314.485 290.731C314.443 290.778 314.299 290.9 313.829 290.9V292.9ZM315.936 292.107C316.523 291.52 316.729 290.721 316.729 289.9H314.729C314.729 290.413 314.601 290.613 314.522 290.693L315.936 292.107ZM316.729 289.9V288.5H314.729V289.9H316.729ZM316.729 288.5C316.729 287.679 316.523 286.88 315.936 286.293L314.522 287.707C314.601 287.787 314.729 287.987 314.729 288.5H316.729ZM315.972 286.331C315.415 285.712 314.625 285.5 313.829 285.5V287.5C314.299 287.5 314.443 287.622 314.485 287.669L315.972 286.331ZM313.829 285.5H309.579V287.5H313.829V285.5ZM308.579 299.6V305.5H310.579V299.6H308.579ZM309.579 306.5H316.079V304.5H309.579V306.5ZM316.079 306.5C316.875 306.5 317.665 306.288 318.222 305.669L316.735 304.331C316.693 304.378 316.549 304.5 316.079 304.5V306.5ZM318.186 305.707C318.773 305.12 318.979 304.321 318.979 303.5H316.979C316.979 304.013 316.851 304.213 316.772 304.293L318.186 305.707ZM318.979 303.5V301.55H316.979V303.5H318.979ZM318.979 301.55C318.979 300.739 318.777 299.923 318.148 299.357L316.81 300.843C316.847 300.877 316.979 301.028 316.979 301.55H318.979ZM318.222 299.431C317.665 298.812 316.875 298.6 316.079 298.6V300.6C316.549 300.6 316.693 300.722 316.735 300.769L318.222 299.431ZM316.079 298.6H309.579V300.6H316.079V298.6Z" fill="white" mask="url(#path-1-outside-1_128_119)"/>
<mask id="path-3-outside-2_128_119" maskUnits="userSpaceOnUse" x="283.972" y="167" width="34" height="38" fill="black">
<rect fill="white" x="283.972" y="167" width="34" height="38"/>
<path d="M306.422 204H287.222C286.588 204 286.122 203.867 285.822 203.6C285.555 203.3 285.422 202.833 285.422 202.2V169.8C285.422 169.167 285.555 168.717 285.822 168.45C286.122 168.15 286.588 168 287.222 168H303.172C306.438 168 308.855 168.633 310.422 169.9C311.988 171.133 312.772 173.05 312.772 175.65V178.05C312.772 179.45 312.522 180.6 312.022 181.5C311.555 182.367 310.822 183.017 309.822 183.45C311.955 183.65 313.538 184.383 314.572 185.65C315.605 186.917 316.122 188.767 316.122 191.2V195.8C316.122 198.6 315.322 200.667 313.722 202C312.155 203.333 309.722 204 306.422 204ZM296.672 176.5V181.9H300.922C301.555 181.9 302.022 181.733 302.322 181.4C302.655 181.067 302.822 180.567 302.822 179.9V178.5C302.822 177.833 302.655 177.333 302.322 177C302.022 176.667 301.555 176.5 300.922 176.5H296.672ZM296.672 189.6V195.5H303.172C303.805 195.5 304.272 195.333 304.572 195C304.905 194.667 305.072 194.167 305.072 193.5V191.55C305.072 190.883 304.905 190.4 304.572 190.1C304.272 189.767 303.805 189.6 303.172 189.6H296.672Z"/>
</mask>
<path d="M285.822 203.6L285.074 204.264L285.113 204.308L285.157 204.347L285.822 203.6ZM285.822 168.45L285.114 167.743H285.114L285.822 168.45ZM310.422 169.9L309.793 170.678L309.803 170.686L310.422 169.9ZM312.022 181.5L311.147 181.014L311.141 181.026L312.022 181.5ZM309.822 183.45L309.424 182.532L309.728 184.446L309.822 183.45ZM314.572 185.65L313.797 186.282H313.797L314.572 185.65ZM313.722 202L313.081 201.232L313.073 201.238L313.722 202ZM296.672 176.5V175.5H295.672V176.5H296.672ZM296.672 181.9H295.672V182.9H296.672V181.9ZM302.322 181.4L301.614 180.693L301.596 180.711L301.578 180.731L302.322 181.4ZM302.322 177L301.578 177.669L301.596 177.689L301.614 177.707L302.322 177ZM296.672 189.6V188.6H295.672V189.6H296.672ZM296.672 195.5H295.672V196.5H296.672V195.5ZM304.572 195L303.864 194.293L303.846 194.311L303.828 194.331L304.572 195ZM304.572 190.1L303.828 190.769L303.863 190.808L303.903 190.843L304.572 190.1ZM306.422 203H287.222V205H306.422V203ZM287.222 203C286.698 203 286.522 202.885 286.486 202.853L285.157 204.347C285.721 204.848 286.478 205 287.222 205V203ZM286.569 202.936C286.536 202.899 286.422 202.723 286.422 202.2H284.422C284.422 202.944 284.573 203.701 285.074 204.264L286.569 202.936ZM286.422 202.2V169.8H284.422V202.2H286.422ZM286.422 169.8C286.422 169.548 286.449 169.379 286.48 169.272C286.511 169.168 286.539 169.147 286.529 169.157L285.114 167.743C284.567 168.29 284.422 169.071 284.422 169.8H286.422ZM286.529 169.157C286.566 169.12 286.724 169 287.222 169V167C286.452 167 285.677 167.18 285.114 167.743L286.529 169.157ZM287.222 169H303.172V167H287.222V169ZM303.172 169C306.342 169 308.485 169.62 309.793 170.678L311.05 169.122C309.225 167.646 306.535 167 303.172 167V169ZM309.803 170.686C311.059 171.675 311.772 173.256 311.772 175.65H313.772C313.772 172.844 312.917 170.592 311.04 169.114L309.803 170.686ZM311.772 175.65V178.05H313.772V175.65H311.772ZM311.772 178.05C311.772 179.339 311.54 180.307 311.147 181.014L312.896 181.986C313.503 180.893 313.772 179.561 313.772 178.05H311.772ZM311.141 181.026C310.792 181.673 310.241 182.178 309.424 182.532L310.219 184.368C311.402 183.855 312.317 183.06 312.902 181.974L311.141 181.026ZM309.728 184.446C311.681 184.629 312.981 185.282 313.797 186.282L315.346 185.018C314.096 183.485 312.229 182.671 309.915 182.454L309.728 184.446ZM313.797 186.282C314.628 187.301 315.122 188.889 315.122 191.2H317.122C317.122 188.645 316.582 186.532 315.346 185.018L313.797 186.282ZM315.122 191.2V195.8H317.122V191.2H315.122ZM315.122 195.8C315.122 198.412 314.381 200.148 313.081 201.232L314.362 202.768C316.262 201.185 317.122 198.788 317.122 195.8H315.122ZM313.073 201.238C311.769 202.349 309.619 203 306.422 203V205C309.824 205 312.541 204.318 314.37 202.762L313.073 201.238ZM295.672 176.5V181.9H297.672V176.5H295.672ZM296.672 182.9H300.922V180.9H296.672V182.9ZM300.922 182.9C301.718 182.9 302.507 182.688 303.065 182.069L301.578 180.731C301.536 180.778 301.392 180.9 300.922 180.9V182.9ZM303.029 182.107C303.616 181.52 303.822 180.721 303.822 179.9H301.822C301.822 180.413 301.694 180.613 301.614 180.693L303.029 182.107ZM303.822 179.9V178.5H301.822V179.9H303.822ZM303.822 178.5C303.822 177.679 303.616 176.88 303.029 176.293L301.614 177.707C301.694 177.787 301.822 177.987 301.822 178.5H303.822ZM303.065 176.331C302.507 175.712 301.718 175.5 300.922 175.5V177.5C301.392 177.5 301.536 177.622 301.578 177.669L303.065 176.331ZM300.922 175.5H296.672V177.5H300.922V175.5ZM295.672 189.6V195.5H297.672V189.6H295.672ZM296.672 196.5H303.172V194.5H296.672V196.5ZM303.172 196.5C303.968 196.5 304.757 196.288 305.315 195.669L303.828 194.331C303.786 194.378 303.642 194.5 303.172 194.5V196.5ZM305.279 195.707C305.866 195.12 306.072 194.321 306.072 193.5H304.072C304.072 194.013 303.944 194.213 303.864 194.293L305.279 195.707ZM306.072 193.5V191.55H304.072V193.5H306.072ZM306.072 191.55C306.072 190.739 305.87 189.923 305.241 189.357L303.903 190.843C303.94 190.877 304.072 191.028 304.072 191.55H306.072ZM305.315 189.431C304.757 188.812 303.968 188.6 303.172 188.6V190.6C303.642 190.6 303.786 190.722 303.828 190.769L305.315 189.431ZM303.172 188.6H296.672V190.6H303.172V188.6Z" fill="white" mask="url(#path-3-outside-2_128_119)"/>
<rect x="1.99683" y="1" width="595.51" height="598" stroke="black" stroke-width="2" stroke-dasharray="7 7"/>
<rect x="0.5" y="132.996" width="596" height="317" fill="#3555FD"/>
<path d="M596.704 210V450H298.85L596.704 210Z" fill="white"/>
<path d="M480.5 302.996L298.5 450.996V302.996H480.5Z" fill="#3555FD"/>
<path d="M298.852 449.99V209.99L0.997803 210.189L298.852 449.99Z" fill="#3555FD"/>
<path d="M-6.6132e-05 210.996V450.996H298.755L-6.6132e-05 210.996Z" fill="white"/>
<path d="M303 142.996L498.289 305.746H107.711L303 142.996Z" fill="#000D55"/>
<rect x="0.5" y="17.9961" width="117" height="428" fill="white"/>
<path d="M281.5 171.996L116.5 302.996L117.827 171.996H281.5Z" fill="#031366"/>
<path d="M319.5 168.996L484.5 299.996L483.173 168.996H319.5Z" fill="#031366"/>
<rect width="0.994501" height="1" transform="matrix(1 0 0 -1 596.703 211)" fill="white"/>
<path d="M1.46375 0.921875L1.99279 457.995" stroke="black" stroke-width="2" stroke-dasharray="8 8"/>
<path d="M116.5 306.996L299.504 450.996L300.5 306.996H116.5Z" fill="#3555FD"/>
<rect width="116" height="403" transform="matrix(-1 0 0 1 599.5 42.9961)" fill="white"/>
<path d="M599.004 0.996094L598.008 449.996" stroke="black" stroke-width="2" stroke-dasharray="8 8"/>
<path d="M299.76 84.9961L299.76 535.496" stroke="white" stroke-opacity="0.3" stroke-width="2" stroke-dasharray="33 33"/>
<mask id="path-21-outside-3_128_119" maskUnits="userSpaceOnUse" x="287.5" y="340.996" width="29" height="38" fill="black">
<rect fill="white" x="287.5" y="340.996" width="29" height="38"/>
<path d="M298.5 377.996H290.75C290.117 377.996 289.65 377.863 289.35 377.596C289.083 377.296 288.95 376.829 288.95 376.196V343.796C288.95 343.163 289.083 342.713 289.35 342.446C289.65 342.146 290.117 341.996 290.75 341.996H313.05C313.683 341.996 314.133 342.146 314.4 342.446C314.7 342.713 314.85 343.163 314.85 343.796V349.746C314.85 350.379 314.7 350.846 314.4 351.146C314.133 351.413 313.683 351.546 313.05 351.546H300.3V356.746H309C309.633 356.746 310.083 356.896 310.35 357.196C310.65 357.463 310.8 357.913 310.8 358.546V364.546C310.8 365.179 310.65 365.646 310.35 365.946C310.083 366.213 309.633 366.346 309 366.346H300.3V376.196C300.3 376.829 300.15 377.296 299.85 377.596C299.583 377.863 299.133 377.996 298.5 377.996Z"/>
</mask>
<path d="M298.5 377.996H290.75C290.117 377.996 289.65 377.863 289.35 377.596C289.083 377.296 288.95 376.829 288.95 376.196V343.796C288.95 343.163 289.083 342.713 289.35 342.446C289.65 342.146 290.117 341.996 290.75 341.996H313.05C313.683 341.996 314.133 342.146 314.4 342.446C314.7 342.713 314.85 343.163 314.85 343.796V349.746C314.85 350.379 314.7 350.846 314.4 351.146C314.133 351.413 313.683 351.546 313.05 351.546H300.3V356.746H309C309.633 356.746 310.083 356.896 310.35 357.196C310.65 357.463 310.8 357.913 310.8 358.546V364.546C310.8 365.179 310.65 365.646 310.35 365.946C310.083 366.213 309.633 366.346 309 366.346H300.3V376.196C300.3 376.829 300.15 377.296 299.85 377.596C299.583 377.863 299.133 377.996 298.5 377.996Z" fill="#3555FD"/>
<path d="M289.35 377.596L288.603 378.26L288.642 378.304L288.686 378.344L289.35 377.596ZM289.35 342.446L288.643 341.739H288.643L289.35 342.446ZM314.4 342.446L313.653 343.11L313.692 343.154L313.736 343.194L314.4 342.446ZM300.3 351.546V350.546H299.3V351.546H300.3ZM300.3 356.746H299.3V357.746H300.3V356.746ZM310.35 357.196L309.603 357.86L309.642 357.904L309.686 357.944L310.35 357.196ZM310.35 365.946L309.643 365.239L309.643 365.239L310.35 365.946ZM300.3 366.346V365.346H299.3V366.346H300.3ZM299.85 377.596L299.143 376.889H299.143L299.85 377.596ZM298.5 376.996H290.75V378.996H298.5V376.996ZM290.75 376.996C290.227 376.996 290.051 376.881 290.014 376.849L288.686 378.344C289.249 378.844 290.006 378.996 290.75 378.996V376.996ZM290.097 376.932C290.065 376.895 289.95 376.719 289.95 376.196H287.95C287.95 376.94 288.102 377.697 288.603 378.26L290.097 376.932ZM289.95 376.196V343.796H287.95V376.196H289.95ZM289.95 343.796C289.95 343.544 289.977 343.375 290.009 343.268C290.04 343.164 290.067 343.143 290.057 343.153L288.643 341.739C288.096 342.286 287.95 343.067 287.95 343.796H289.95ZM290.057 343.153C290.095 343.116 290.252 342.996 290.75 342.996V340.996C289.981 340.996 289.205 341.176 288.643 341.739L290.057 343.153ZM290.75 342.996H313.05V340.996H290.75V342.996ZM313.05 342.996C313.293 342.996 313.451 343.025 313.546 343.057C313.592 343.073 313.619 343.087 313.634 343.096C313.648 343.105 313.652 343.11 313.653 343.11L315.147 341.782C314.605 341.171 313.806 340.996 313.05 340.996V342.996ZM313.736 343.194C313.736 343.194 313.741 343.198 313.75 343.212C313.759 343.227 313.774 343.254 313.789 343.3C313.821 343.395 313.85 343.553 313.85 343.796H315.85C315.85 343.04 315.675 342.242 315.064 341.699L313.736 343.194ZM313.85 343.796V349.746H315.85V343.796H313.85ZM313.85 349.746C313.85 350.244 313.73 350.402 313.693 350.439L315.107 351.853C315.67 351.291 315.85 350.515 315.85 349.746H313.85ZM313.693 350.439C313.703 350.429 313.682 350.457 313.578 350.487C313.471 350.519 313.302 350.546 313.05 350.546V352.546C313.779 352.546 314.56 352.401 315.107 351.853L313.693 350.439ZM313.05 350.546H300.3V352.546H313.05V350.546ZM299.3 351.546V356.746H301.3V351.546H299.3ZM300.3 357.746H309V355.746H300.3V357.746ZM309 357.746C309.243 357.746 309.401 357.775 309.496 357.807C309.542 357.823 309.569 357.837 309.584 357.846C309.598 357.855 309.602 357.86 309.603 357.86L311.097 356.532C310.555 355.921 309.756 355.746 309 355.746V357.746ZM309.686 357.944C309.686 357.944 309.691 357.948 309.7 357.962C309.709 357.977 309.724 358.004 309.739 358.05C309.771 358.145 309.8 358.303 309.8 358.546H311.8C311.8 357.79 311.625 356.991 311.014 356.449L309.686 357.944ZM309.8 358.546V364.546H311.8V358.546H309.8ZM309.8 364.546C309.8 365.044 309.68 365.202 309.643 365.239L311.057 366.653C311.62 366.091 311.8 365.315 311.8 364.546H309.8ZM309.643 365.239C309.653 365.229 309.632 365.257 309.528 365.287C309.421 365.319 309.252 365.346 309 365.346V367.346C309.729 367.346 310.51 367.201 311.057 366.653L309.643 365.239ZM309 365.346H300.3V367.346H309V365.346ZM299.3 366.346V376.196H301.3V366.346H299.3ZM299.3 376.196C299.3 376.694 299.18 376.852 299.143 376.889L300.557 378.303C301.12 377.741 301.3 376.965 301.3 376.196H299.3ZM299.143 376.889C299.153 376.879 299.132 376.907 299.028 376.937C298.921 376.969 298.752 376.996 298.5 376.996V378.996C299.229 378.996 300.01 378.851 300.557 378.303L299.143 376.889Z" fill="white" mask="url(#path-21-outside-3_128_119)"/>
<g filter="url(#filter0_d_128_119)">
<path d="M117 303.996L229.5 213.996" stroke="white" stroke-opacity="0.27" shape-rendering="crispEdges"/>
</g>
<g filter="url(#filter1_d_128_119)">
<path d="M484.5 299.996L381.5 218.996" stroke="white" stroke-opacity="0.27" shape-rendering="crispEdges"/>
</g>
<path d="M482.5 157.996C420.5 209.496 382 239.996 299.5 304.996V157.996H482.5Z" fill="#3555FD"/>
<path d="M116.5 157.996L300.742 304.996L301.745 157.996H116.5Z" fill="#3555FD"/>
<path d="M486.523 142.851C452.001 168.496 338.024 156.075 332.5 157.496" stroke="white" stroke-opacity="0.27"/>
<path d="M117.002 158.496L136 173.496L117.472 181.778L117.002 158.496Z" fill="#031366"/>
<path d="M483.497 157.593L464.998 172.495L483.498 184.996L483.497 157.593Z" fill="#031366"/>
<line x1="116.5" y1="158.496" x2="483.5" y2="158.493" stroke="white" stroke-opacity="0.27"/>
<line x1="116.812" y1="158.605" x2="299.812" y2="304.605" stroke="white" stroke-opacity="0.27"/>
<line x1="482.812" y1="159.387" x2="298.812" y2="306.387" stroke="white" stroke-opacity="0.27"/>
<path d="M263.5 87.2773C210 64.7775 148.5 72.0555 117.5 78.2773L117.5 137.278C199.041 159.193 259.836 95.5485 263.5 87.2773Z" fill="#000D55"/>
<path d="M265.999 87.4961C255.999 81.4961 208.94 126.055 186.44 139.055L278.938 136.055C283.498 143.555 262.335 95.7673 265.999 87.4961Z" fill="#3555FD"/>
<path d="M116 143.496C187.5 167.496 272.731 132.569 278.5 133.996" stroke="white" stroke-opacity="0.27"/>
<path d="M487.001 143.795C415.5 167.795 330.269 132.868 324.501 134.295" stroke="white" stroke-opacity="0.27"/>
<path d="M340.586 84.2773C394.086 61.7775 455.586 69.0555 486.586 75.2773V134.278C405.045 156.193 344.25 92.5485 340.586 84.2773Z" fill="#000D55"/>
<path d="M338.087 84.4961C348.087 78.4961 395.146 123.055 417.646 136.055L325.148 133.055C320.588 140.555 341.751 92.7673 338.087 84.4961Z" fill="#3555FD"/>
<defs>
<filter id="filter0_d_128_119" x="112.688" y="213.605" width="121.125" height="98.7812" filterUnits="userSpaceOnUse" color-interpolation-filters="sRGB">
<feFlood flood-opacity="0" result="BackgroundImageFix"/>
<feColorMatrix in="SourceAlpha" type="matrix" values="0 0 0 0 0 0 0 0 0 0 0 0 0 0 0 0 0 0 127 0" result="hardAlpha"/>
<feOffset dy="4"/>
<feGaussianBlur stdDeviation="2"/>
<feComposite in2="hardAlpha" operator="out"/>
<feColorMatrix type="matrix" values="0 0 0 0 0 0 0 0 0 0 0 0 0 0 0 0 0 0 0.25 0"/>
<feBlend mode="normal" in2="BackgroundImageFix" result="effect1_dropShadow_128_119"/>
<feBlend mode="normal" in="SourceGraphic" in2="effect1_dropShadow_128_119" result="shape"/>
</filter>
<filter id="filter1_d_128_119" x="377.191" y="218.604" width="111.618" height="89.7852" filterUnits="userSpaceOnUse" color-interpolation-filters="sRGB">
<feFlood flood-opacity="0" result="BackgroundImageFix"/>
<feColorMatrix in="SourceAlpha" type="matrix" values="0 0 0 0 0 0 0 0 0 0 0 0 0 0 0 0 0 0 127 0" result="hardAlpha"/>
<feOffset dy="4"/>
<feGaussianBlur stdDeviation="2"/>
<feComposite in2="hardAlpha" operator="out"/>
<feColorMatrix type="matrix" values="0 0 0 0 0 0 0 0 0 0 0 0 0 0 0 0 0 0 0.25 0"/>
<feBlend mode="normal" in2="BackgroundImageFix" result="effect1_dropShadow_128_119"/>
<feBlend mode="normal" in="SourceGraphic" in2="effect1_dropShadow_128_119" result="shape"/>
</filter>
</defs>
</svg>
