<svg width="598" height="600" viewBox="0 0 598 600" fill="none" xmlns="http://www.w3.org/2000/svg">
<rect x="1" y="1" width="595.51" height="598" stroke="black" stroke-width="2" stroke-dasharray="7 7"/>
<mask id="path-2-outside-1_128_483" maskUnits="userSpaceOnUse" x="295.882" y="277" width="34" height="38" fill="black">
<rect fill="white" x="295.882" y="277" width="34" height="38"/>
<path d="M318.332 314H299.132C298.499 314 298.032 313.867 297.732 313.6C297.465 313.3 297.332 312.833 297.332 312.2V279.8C297.332 279.167 297.465 278.717 297.732 278.45C298.032 278.15 298.499 278 299.132 278H315.082C318.349 278 320.765 278.633 322.332 279.9C323.899 281.133 324.682 283.05 324.682 285.65V288.05C324.682 289.45 324.432 290.6 323.932 291.5C323.465 292.367 322.732 293.017 321.732 293.45C323.865 293.65 325.449 294.383 326.482 295.65C327.515 296.917 328.032 298.767 328.032 301.2V305.8C328.032 308.6 327.232 310.667 325.632 312C324.065 313.333 321.632 314 318.332 314ZM308.582 286.5V291.9H312.832C313.465 291.9 313.932 291.733 314.232 291.4C314.565 291.067 314.732 290.567 314.732 289.9V288.5C314.732 287.833 314.565 287.333 314.232 287C313.932 286.667 313.465 286.5 312.832 286.5H308.582ZM308.582 299.6V305.5H315.082C315.715 305.5 316.182 305.333 316.482 305C316.815 304.667 316.982 304.167 316.982 303.5V301.55C316.982 300.883 316.815 300.4 316.482 300.1C316.182 299.767 315.715 299.6 315.082 299.6H308.582Z"/>
</mask>
<path d="M297.732 313.6L296.984 314.264L297.024 314.308L297.067 314.347L297.732 313.6ZM297.732 278.45L297.025 277.743L297.025 277.743L297.732 278.45ZM322.332 279.9L321.703 280.678L321.713 280.686L322.332 279.9ZM323.932 291.5L323.058 291.014L323.051 291.026L323.932 291.5ZM321.732 293.45L321.334 292.532L321.638 294.446L321.732 293.45ZM326.482 295.65L325.707 296.282L325.707 296.282L326.482 295.65ZM325.632 312L324.992 311.232L324.984 311.238L325.632 312ZM308.582 286.5V285.5H307.582V286.5H308.582ZM308.582 291.9H307.582V292.9H308.582V291.9ZM314.232 291.4L313.525 290.693L313.506 290.711L313.489 290.731L314.232 291.4ZM314.232 287L313.489 287.669L313.506 287.689L313.525 287.707L314.232 287ZM308.582 299.6V298.6H307.582V299.6H308.582ZM308.582 305.5H307.582V306.5H308.582V305.5ZM316.482 305L315.775 304.293L315.756 304.311L315.739 304.331L316.482 305ZM316.482 300.1L315.739 300.769L315.774 300.808L315.813 300.843L316.482 300.1ZM318.332 313H299.132V315H318.332V313ZM299.132 313C298.609 313 298.433 312.885 298.396 312.853L297.067 314.347C297.631 314.848 298.388 315 299.132 315V313ZM298.479 312.936C298.447 312.899 298.332 312.723 298.332 312.2H296.332C296.332 312.944 296.484 313.701 296.984 314.264L298.479 312.936ZM298.332 312.2V279.8H296.332V312.2H298.332ZM298.332 279.8C298.332 279.548 298.359 279.379 298.391 279.272C298.421 279.168 298.449 279.147 298.439 279.157L297.025 277.743C296.477 278.29 296.332 279.071 296.332 279.8H298.332ZM298.439 279.157C298.476 279.12 298.634 279 299.132 279V277C298.363 277 297.587 277.18 297.025 277.743L298.439 279.157ZM299.132 279H315.082V277H299.132V279ZM315.082 279C318.252 279 320.395 279.62 321.703 280.678L322.961 279.122C321.135 277.646 318.445 277 315.082 277V279ZM321.713 280.686C322.97 281.675 323.682 283.256 323.682 285.65H325.682C325.682 282.844 324.827 280.592 322.95 279.114L321.713 280.686ZM323.682 285.65V288.05H325.682V285.65H323.682ZM323.682 288.05C323.682 289.339 323.451 290.307 323.058 291.014L324.806 291.986C325.413 290.893 325.682 289.561 325.682 288.05H323.682ZM323.051 291.026C322.703 291.673 322.151 292.178 321.334 292.532L322.129 294.368C323.312 293.855 324.228 293.06 324.812 291.974L323.051 291.026ZM321.638 294.446C323.591 294.629 324.891 295.282 325.707 296.282L327.257 295.018C326.006 293.485 324.139 292.671 321.825 292.454L321.638 294.446ZM325.707 296.282C326.538 297.301 327.032 298.889 327.032 301.2H329.032C329.032 298.645 328.492 296.532 327.257 295.018L325.707 296.282ZM327.032 301.2V305.8H329.032V301.2H327.032ZM327.032 305.8C327.032 308.412 326.292 310.148 324.992 311.232L326.272 312.768C328.172 311.185 329.032 308.788 329.032 305.8H327.032ZM324.984 311.238C323.679 312.349 321.529 313 318.332 313V315C321.735 315 324.451 314.318 326.28 312.762L324.984 311.238ZM307.582 286.5V291.9H309.582V286.5H307.582ZM308.582 292.9H312.832V290.9H308.582V292.9ZM312.832 292.9C313.628 292.9 314.418 292.688 314.975 292.069L313.489 290.731C313.446 290.778 313.302 290.9 312.832 290.9V292.9ZM314.939 292.107C315.526 291.52 315.732 290.721 315.732 289.9H313.732C313.732 290.413 313.604 290.613 313.525 290.693L314.939 292.107ZM315.732 289.9V288.5H313.732V289.9H315.732ZM315.732 288.5C315.732 287.679 315.526 286.88 314.939 286.293L313.525 287.707C313.604 287.787 313.732 287.987 313.732 288.5H315.732ZM314.975 286.331C314.418 285.712 313.628 285.5 312.832 285.5V287.5C313.302 287.5 313.446 287.622 313.489 287.669L314.975 286.331ZM312.832 285.5H308.582V287.5H312.832V285.5ZM307.582 299.6V305.5H309.582V299.6H307.582ZM308.582 306.5H315.082V304.5H308.582V306.5ZM315.082 306.5C315.878 306.5 316.668 306.288 317.225 305.669L315.739 304.331C315.696 304.378 315.552 304.5 315.082 304.5V306.5ZM317.189 305.707C317.776 305.12 317.982 304.321 317.982 303.5H315.982C315.982 304.013 315.854 304.213 315.775 304.293L317.189 305.707ZM317.982 303.5V301.55H315.982V303.5H317.982ZM317.982 301.55C317.982 300.739 317.78 299.923 317.151 299.357L315.813 300.843C315.85 300.877 315.982 301.028 315.982 301.55H317.982ZM317.225 299.431C316.668 298.812 315.878 298.6 315.082 298.6V300.6C315.552 300.6 315.696 300.722 315.739 300.769L317.225 299.431ZM315.082 298.6H308.582V300.6H315.082V298.6Z" fill="white" mask="url(#path-2-outside-1_128_483)"/>
<mask id="path-4-outside-2_128_483" maskUnits="userSpaceOnUse" x="282.975" y="167" width="34" height="38" fill="black">
<rect fill="white" x="282.975" y="167" width="34" height="38"/>
<path d="M305.425 204H286.225C285.591 204 285.125 203.867 284.825 203.6C284.558 203.3 284.425 202.833 284.425 202.2V169.8C284.425 169.167 284.558 168.717 284.825 168.45C285.125 168.15 285.591 168 286.225 168H302.175C305.441 168 307.858 168.633 309.425 169.9C310.991 171.133 311.775 173.05 311.775 175.65V178.05C311.775 179.45 311.525 180.6 311.025 181.5C310.558 182.367 309.825 183.017 308.825 183.45C310.958 183.65 312.541 184.383 313.575 185.65C314.608 186.917 315.125 188.767 315.125 191.2V195.8C315.125 198.6 314.325 200.667 312.725 202C311.158 203.333 308.725 204 305.425 204ZM295.675 176.5V181.9H299.925C300.558 181.9 301.025 181.733 301.325 181.4C301.658 181.067 301.825 180.567 301.825 179.9V178.5C301.825 177.833 301.658 177.333 301.325 177C301.025 176.667 300.558 176.5 299.925 176.5H295.675ZM295.675 189.6V195.5H302.175C302.808 195.5 303.275 195.333 303.575 195C303.908 194.667 304.075 194.167 304.075 193.5V191.55C304.075 190.883 303.908 190.4 303.575 190.1C303.275 189.767 302.808 189.6 302.175 189.6H295.675Z"/>
</mask>
<path d="M284.825 203.6L284.077 204.264L284.116 204.308L284.16 204.347L284.825 203.6ZM284.825 168.45L284.118 167.743L284.118 167.743L284.825 168.45ZM309.425 169.9L308.796 170.678L308.806 170.686L309.425 169.9ZM311.025 181.5L310.15 181.014L310.144 181.026L311.025 181.5ZM308.825 183.45L308.427 182.532L308.731 184.446L308.825 183.45ZM313.575 185.65L312.8 186.282L312.8 186.282L313.575 185.65ZM312.725 202L312.084 201.232L312.076 201.238L312.725 202ZM295.675 176.5V175.5H294.675V176.5H295.675ZM295.675 181.9H294.675V182.9H295.675V181.9ZM301.325 181.4L300.618 180.693L300.599 180.711L300.581 180.731L301.325 181.4ZM301.325 177L300.581 177.669L300.599 177.689L300.618 177.707L301.325 177ZM295.675 189.6V188.6H294.675V189.6H295.675ZM295.675 195.5H294.675V196.5H295.675V195.5ZM303.575 195L302.868 194.293L302.849 194.311L302.831 194.331L303.575 195ZM303.575 190.1L302.831 190.769L302.867 190.808L302.906 190.843L303.575 190.1ZM305.425 203H286.225V205H305.425V203ZM286.225 203C285.702 203 285.526 202.885 285.489 202.853L284.16 204.347C284.724 204.848 285.481 205 286.225 205V203ZM285.572 202.936C285.54 202.899 285.425 202.723 285.425 202.2H283.425C283.425 202.944 283.576 203.701 284.077 204.264L285.572 202.936ZM285.425 202.2V169.8H283.425V202.2H285.425ZM285.425 169.8C285.425 169.548 285.452 169.379 285.483 169.272C285.514 169.168 285.542 169.147 285.532 169.157L284.118 167.743C283.57 168.29 283.425 169.071 283.425 169.8H285.425ZM285.532 169.157C285.569 169.12 285.727 169 286.225 169V167C285.455 167 284.68 167.18 284.118 167.743L285.532 169.157ZM286.225 169H302.175V167H286.225V169ZM302.175 169C305.345 169 307.488 169.62 308.796 170.678L310.053 169.122C308.228 167.646 305.538 167 302.175 167V169ZM308.806 170.686C310.062 171.675 310.775 173.256 310.775 175.65H312.775C312.775 172.844 311.92 170.592 310.043 169.114L308.806 170.686ZM310.775 175.65V178.05H312.775V175.65H310.775ZM310.775 178.05C310.775 179.339 310.544 180.307 310.15 181.014L311.899 181.986C312.506 180.893 312.775 179.561 312.775 178.05H310.775ZM310.144 181.026C309.796 181.673 309.244 182.178 308.427 182.532L309.222 184.368C310.405 183.855 311.32 183.06 311.905 181.974L310.144 181.026ZM308.731 184.446C310.684 184.629 311.984 185.282 312.8 186.282L314.349 185.018C313.099 183.485 311.232 182.671 308.918 182.454L308.731 184.446ZM312.8 186.282C313.631 187.301 314.125 188.889 314.125 191.2H316.125C316.125 188.645 315.585 186.532 314.349 185.018L312.8 186.282ZM314.125 191.2V195.8H316.125V191.2H314.125ZM314.125 195.8C314.125 198.412 313.384 200.148 312.084 201.232L313.365 202.768C315.265 201.185 316.125 198.788 316.125 195.8H314.125ZM312.076 201.238C310.772 202.349 308.622 203 305.425 203V205C308.827 205 311.544 204.318 313.373 202.762L312.076 201.238ZM294.675 176.5V181.9H296.675V176.5H294.675ZM295.675 182.9H299.925V180.9H295.675V182.9ZM299.925 182.9C300.721 182.9 301.51 182.688 302.068 182.069L300.581 180.731C300.539 180.778 300.395 180.9 299.925 180.9V182.9ZM302.032 182.107C302.619 181.52 302.825 180.721 302.825 179.9H300.825C300.825 180.413 300.697 180.613 300.618 180.693L302.032 182.107ZM302.825 179.9V178.5H300.825V179.9H302.825ZM302.825 178.5C302.825 177.679 302.619 176.88 302.032 176.293L300.618 177.707C300.697 177.787 300.825 177.987 300.825 178.5H302.825ZM302.068 176.331C301.51 175.712 300.721 175.5 299.925 175.5V177.5C300.395 177.5 300.539 177.622 300.581 177.669L302.068 176.331ZM299.925 175.5H295.675V177.5H299.925V175.5ZM294.675 189.6V195.5H296.675V189.6H294.675ZM295.675 196.5H302.175V194.5H295.675V196.5ZM302.175 196.5C302.971 196.5 303.76 196.288 304.318 195.669L302.831 194.331C302.789 194.378 302.645 194.5 302.175 194.5V196.5ZM304.282 195.707C304.869 195.12 305.075 194.321 305.075 193.5H303.075C303.075 194.013 302.947 194.213 302.868 194.293L304.282 195.707ZM305.075 193.5V191.55H303.075V193.5H305.075ZM305.075 191.55C305.075 190.739 304.873 189.923 304.244 189.357L302.906 190.843C302.943 190.877 303.075 191.028 303.075 191.55H305.075ZM304.318 189.431C303.76 188.812 302.971 188.6 302.175 188.6V190.6C302.645 190.6 302.789 190.722 302.831 190.769L304.318 189.431ZM302.175 188.6H295.675V190.6H302.175V188.6Z" fill="white" mask="url(#path-4-outside-2_128_483)"/>
<path d="M300.115 473L98.5 279H494L300.115 473Z" fill="#3555FD"/>
<path d="M297.999 185.252L198.406 284.252H397.592L297.999 185.252Z" fill="#3555FD"/>
<path d="M202 207L298.227 185.553L202 281L202 231.5L202 207Z" fill="#4F4ACE"/>
<path d="M204 137.5V207.5L297.499 185.752L258.499 164.752L204 137.5Z" fill="#3555FD"/>
<path d="M491.999 182.752L363.03 174.753" stroke="white" stroke-opacity="0.35"/>
<path d="M204 281L390.998 279.252" stroke="white" stroke-opacity="0.35"/>
<path d="M391.4 279.752L296.898 185.252" stroke="white" stroke-opacity="0.35"/>
<mask id="path-13-outside-3_128_483" maskUnits="userSpaceOnUse" x="289" y="340" width="29" height="38" fill="black">
<rect fill="white" x="289" y="340" width="29" height="38"/>
<path d="M300 377H292.25C291.617 377 291.15 376.867 290.85 376.6C290.583 376.3 290.45 375.833 290.45 375.2V342.8C290.45 342.167 290.583 341.717 290.85 341.45C291.15 341.15 291.617 341 292.25 341H314.55C315.183 341 315.633 341.15 315.9 341.45C316.2 341.717 316.35 342.167 316.35 342.8V348.75C316.35 349.383 316.2 349.85 315.9 350.15C315.633 350.417 315.183 350.55 314.55 350.55H301.8V355.75H310.5C311.133 355.75 311.583 355.9 311.85 356.2C312.15 356.467 312.3 356.917 312.3 357.55V363.55C312.3 364.183 312.15 364.65 311.85 364.95C311.583 365.217 311.133 365.35 310.5 365.35H301.8V375.2C301.8 375.833 301.65 376.3 301.35 376.6C301.083 376.867 300.633 377 300 377Z"/>
</mask>
<path d="M300 377H292.25C291.617 377 291.15 376.867 290.85 376.6C290.583 376.3 290.45 375.833 290.45 375.2V342.8C290.45 342.167 290.583 341.717 290.85 341.45C291.15 341.15 291.617 341 292.25 341H314.55C315.183 341 315.633 341.15 315.9 341.45C316.2 341.717 316.35 342.167 316.35 342.8V348.75C316.35 349.383 316.2 349.85 315.9 350.15C315.633 350.417 315.183 350.55 314.55 350.55H301.8V355.75H310.5C311.133 355.75 311.583 355.9 311.85 356.2C312.15 356.467 312.3 356.917 312.3 357.55V363.55C312.3 364.183 312.15 364.65 311.85 364.95C311.583 365.217 311.133 365.35 310.5 365.35H301.8V375.2C301.8 375.833 301.65 376.3 301.35 376.6C301.083 376.867 300.633 377 300 377Z" fill="#3555FD"/>
<path d="M290.85 376.6L290.103 377.264L290.142 377.308L290.186 377.347L290.85 376.6ZM290.85 341.45L290.143 340.743L290.143 340.743L290.85 341.45ZM315.9 341.45L315.153 342.114L315.192 342.158L315.236 342.197L315.9 341.45ZM301.8 350.55V349.55H300.8V350.55H301.8ZM301.8 355.75H300.8V356.75H301.8V355.75ZM311.85 356.2L311.103 356.864L311.142 356.908L311.186 356.947L311.85 356.2ZM311.85 364.95L311.143 364.243L311.143 364.243L311.85 364.95ZM301.8 365.35V364.35H300.8V365.35H301.8ZM301.35 376.6L300.643 375.893L300.643 375.893L301.35 376.6ZM300 376H292.25V378H300V376ZM292.25 376C291.727 376 291.551 375.885 291.514 375.853L290.186 377.347C290.749 377.848 291.506 378 292.25 378V376ZM291.597 375.936C291.565 375.899 291.45 375.723 291.45 375.2H289.45C289.45 375.944 289.602 376.701 290.103 377.264L291.597 375.936ZM291.45 375.2V342.8H289.45V375.2H291.45ZM291.45 342.8C291.45 342.548 291.477 342.379 291.509 342.272C291.54 342.168 291.567 342.147 291.557 342.157L290.143 340.743C289.596 341.29 289.45 342.071 289.45 342.8H291.45ZM291.557 342.157C291.595 342.12 291.752 342 292.25 342V340C291.481 340 290.705 340.18 290.143 340.743L291.557 342.157ZM292.25 342H314.55V340H292.25V342ZM314.55 342C314.793 342 314.951 342.029 315.046 342.061C315.092 342.076 315.119 342.091 315.134 342.1C315.148 342.109 315.152 342.114 315.153 342.114L316.647 340.786C316.105 340.175 315.306 340 314.55 340V342ZM315.236 342.197C315.236 342.198 315.241 342.202 315.25 342.216C315.259 342.231 315.274 342.258 315.289 342.304C315.321 342.399 315.35 342.557 315.35 342.8H317.35C317.35 342.044 317.175 341.245 316.564 340.703L315.236 342.197ZM315.35 342.8V348.75H317.35V342.8H315.35ZM315.35 348.75C315.35 349.248 315.23 349.405 315.193 349.443L316.607 350.857C317.17 350.295 317.35 349.519 317.35 348.75H315.35ZM315.193 349.443C315.203 349.433 315.182 349.46 315.078 349.491C314.971 349.523 314.802 349.55 314.55 349.55V351.55C315.279 351.55 316.06 351.404 316.607 350.857L315.193 349.443ZM314.55 349.55H301.8V351.55H314.55V349.55ZM300.8 350.55V355.75H302.8V350.55H300.8ZM301.8 356.75H310.5V354.75H301.8V356.75ZM310.5 356.75C310.743 356.75 310.901 356.779 310.996 356.811C311.042 356.826 311.069 356.841 311.084 356.85C311.098 356.859 311.102 356.864 311.103 356.864L312.597 355.536C312.055 354.925 311.256 354.75 310.5 354.75V356.75ZM311.186 356.947C311.186 356.948 311.191 356.952 311.2 356.966C311.209 356.981 311.224 357.008 311.239 357.054C311.271 357.149 311.3 357.307 311.3 357.55H313.3C313.3 356.794 313.125 355.995 312.514 355.453L311.186 356.947ZM311.3 357.55V363.55H313.3V357.55H311.3ZM311.3 363.55C311.3 364.048 311.18 364.205 311.143 364.243L312.557 365.657C313.12 365.095 313.3 364.319 313.3 363.55H311.3ZM311.143 364.243C311.153 364.233 311.132 364.26 311.028 364.291C310.921 364.323 310.752 364.35 310.5 364.35V366.35C311.229 366.35 312.01 366.204 312.557 365.657L311.143 364.243ZM310.5 364.35H301.8V366.35H310.5V364.35ZM300.8 365.35V375.2H302.8V365.35H300.8ZM300.8 375.2C300.8 375.698 300.68 375.855 300.643 375.893L302.057 377.307C302.62 376.745 302.8 375.969 302.8 375.2H300.8ZM300.643 375.893C300.653 375.883 300.632 375.91 300.528 375.941C300.421 375.973 300.252 376 300 376V378C300.729 378 301.51 377.854 302.057 377.307L300.643 375.893Z" fill="white" mask="url(#path-13-outside-3_128_483)"/>
<rect x="100" y="137" width="104" height="69" fill="#000D55"/>
<rect x="390" y="137" width="104" height="69" fill="#000D55"/>
<rect x="100" y="206" width="104" height="75" fill="#011580"/>
<path d="M203.5 280L297.499 185.752" stroke="white" stroke-opacity="0.35"/>
<path d="M211.624 206.248L297 186" stroke="white" stroke-opacity="0.35"/>
<path d="M101 206.5H212" stroke="white" stroke-opacity="0.35"/>
<path d="M99 281H204" stroke="white" stroke-opacity="0.35"/>
<path d="M392.374 206.123L296.147 184.676L392.374 280.123L392.374 230.623L392.374 206.123Z" fill="#4F4ACE"/>
<path d="M390.374 136.623V206.623L296.875 184.875L335.875 163.875L390.374 136.623Z" fill="#3555FD"/>
<rect width="104" height="75" transform="matrix(-1 0 0 1 494.374 205.123)" fill="#011580"/>
<path d="M390.874 279.123L296.874 184.875" stroke="white" stroke-opacity="0.35"/>
<path d="M390 206.5L297.374 185.123" stroke="white" stroke-opacity="0.35"/>
<path d="M493.374 205.623L391 206" stroke="white" stroke-opacity="0.35"/>
<path d="M494.5 279.623H389.5" stroke="white" stroke-opacity="0.35"/>
</svg>
