<svg width="600" height="600" viewBox="0 0 600 600" fill="none" xmlns="http://www.w3.org/2000/svg">
<rect width="600" height="600" fill="#011580"/>
<line x1="301" y1="1" x2="301" y2="575" stroke="white" stroke-opacity="0.78" stroke-width="2" stroke-dasharray="33 33"/>
<mask id="path-3-outside-1_84_78" maskUnits="userSpaceOnUse" x="282" y="286" width="35" height="40" fill="black">
<rect fill="white" x="282" y="286" width="35" height="40"/>
<path d="M305.45 324H286.25C285.617 324 285.15 323.867 284.85 323.6C284.583 323.3 284.45 322.833 284.45 322.2V289.8C284.45 289.167 284.583 288.717 284.85 288.45C285.15 288.15 285.617 288 286.25 288H302.2C305.467 288 307.883 288.633 309.45 289.9C311.017 291.133 311.8 293.05 311.8 295.65V298.05C311.8 299.45 311.55 300.6 311.05 301.5C310.583 302.367 309.85 303.017 308.85 303.45C310.983 303.65 312.567 304.383 313.6 305.65C314.633 306.917 315.15 308.767 315.15 311.2V315.8C315.15 318.6 314.35 320.667 312.75 322C311.183 323.333 308.75 324 305.45 324ZM295.7 296.5V301.9H299.95C300.583 301.9 301.05 301.733 301.35 301.4C301.683 301.067 301.85 300.567 301.85 299.9V298.5C301.85 297.833 301.683 297.333 301.35 297C301.05 296.667 300.583 296.5 299.95 296.5H295.7ZM295.7 309.6V315.5H302.2C302.833 315.5 303.3 315.333 303.6 315C303.933 314.667 304.1 314.167 304.1 313.5V311.55C304.1 310.883 303.933 310.4 303.6 310.1C303.3 309.767 302.833 309.6 302.2 309.6H295.7Z"/>
</mask>
<path d="M305.45 324H286.25C285.617 324 285.15 323.867 284.85 323.6C284.583 323.3 284.45 322.833 284.45 322.2V289.8C284.45 289.167 284.583 288.717 284.85 288.45C285.15 288.15 285.617 288 286.25 288H302.2C305.467 288 307.883 288.633 309.45 289.9C311.017 291.133 311.8 293.05 311.8 295.65V298.05C311.8 299.45 311.55 300.6 311.05 301.5C310.583 302.367 309.85 303.017 308.85 303.45C310.983 303.65 312.567 304.383 313.6 305.65C314.633 306.917 315.15 308.767 315.15 311.2V315.8C315.15 318.6 314.35 320.667 312.75 322C311.183 323.333 308.75 324 305.45 324ZM295.7 296.5V301.9H299.95C300.583 301.9 301.05 301.733 301.35 301.4C301.683 301.067 301.85 300.567 301.85 299.9V298.5C301.85 297.833 301.683 297.333 301.35 297C301.05 296.667 300.583 296.5 299.95 296.5H295.7ZM295.7 309.6V315.5H302.2C302.833 315.5 303.3 315.333 303.6 315C303.933 314.667 304.1 314.167 304.1 313.5V311.55C304.1 310.883 303.933 310.4 303.6 310.1C303.3 309.767 302.833 309.6 302.2 309.6H295.7Z" fill="#011580"/>
<path d="M284.85 323.6L283.729 324.597L283.788 324.662L283.853 324.721L284.85 323.6ZM284.85 288.45L283.789 287.389H283.789L284.85 288.45ZM309.45 289.9L308.507 291.066L308.514 291.073L308.522 291.079L309.45 289.9ZM311.05 301.5L309.739 300.772L309.734 300.78L309.729 300.789L311.05 301.5ZM308.85 303.45L308.254 302.074L308.71 304.943L308.85 303.45ZM313.6 305.65L312.438 306.598L312.438 306.598L313.6 305.65ZM312.75 322L311.79 320.848L311.784 320.853L311.778 320.858L312.75 322ZM295.7 296.5V295H294.2V296.5H295.7ZM295.7 301.9H294.2V303.4H295.7V301.9ZM301.35 301.4L300.289 300.339L300.261 300.367L300.235 300.397L301.35 301.4ZM301.35 297L300.235 298.003L300.261 298.033L300.289 298.061L301.35 297ZM295.7 309.6V308.1H294.2V309.6H295.7ZM295.7 315.5H294.2V317H295.7V315.5ZM303.6 315L302.539 313.939L302.511 313.967L302.485 313.997L303.6 315ZM303.6 310.1L302.485 311.103L302.538 311.162L302.597 311.215L303.6 310.1ZM305.45 322.5H286.25V325.5H305.45V322.5ZM286.25 322.5C286.033 322.5 285.903 322.476 285.837 322.458C285.776 322.44 285.797 322.435 285.847 322.479L283.853 324.721C284.549 325.339 285.451 325.5 286.25 325.5V322.5ZM285.971 322.603C286.015 322.653 286.01 322.674 285.992 322.613C285.974 322.547 285.95 322.417 285.95 322.2H282.95C282.95 322.999 283.111 323.901 283.729 324.597L285.971 322.603ZM285.95 322.2V289.8H282.95V322.2H285.95ZM285.95 289.8C285.95 289.581 285.974 289.462 285.988 289.414C286.001 289.371 285.992 289.429 285.911 289.511L283.789 287.389C283.102 288.077 282.95 289.024 282.95 289.8H285.95ZM285.911 289.511C285.868 289.554 285.842 289.554 285.884 289.541C285.933 289.525 286.046 289.5 286.25 289.5V286.5C285.413 286.5 284.483 286.695 283.789 287.389L285.911 289.511ZM286.25 289.5H302.2V286.5H286.25V289.5ZM302.2 289.5C305.322 289.5 307.329 290.114 308.507 291.066L310.393 288.734C308.438 287.153 305.612 286.5 302.2 286.5V289.5ZM308.522 291.079C309.623 291.945 310.3 293.358 310.3 295.65H313.3C313.3 292.742 312.41 290.321 310.378 288.721L308.522 291.079ZM310.3 295.65V298.05H313.3V295.65H310.3ZM310.3 298.05C310.3 299.283 310.078 300.16 309.739 300.772L312.361 302.228C313.022 301.04 313.3 299.617 313.3 298.05H310.3ZM309.729 300.789C309.44 301.327 308.979 301.759 308.254 302.074L309.446 304.826C310.721 304.274 311.727 303.407 312.371 302.211L309.729 300.789ZM308.71 304.943C310.573 305.118 311.73 305.731 312.438 306.598L314.762 304.702C313.403 303.036 311.394 302.182 308.99 301.957L308.71 304.943ZM312.438 306.598C313.168 307.494 313.65 308.95 313.65 311.2H316.65C316.65 308.584 316.098 306.34 314.762 304.702L312.438 306.598ZM313.65 311.2V315.8H316.65V311.2H313.65ZM313.65 315.8C313.65 318.318 312.94 319.889 311.79 320.848L313.71 323.152C315.76 321.444 316.65 318.882 316.65 315.8H313.65ZM311.778 320.858C310.604 321.856 308.596 322.5 305.45 322.5V325.5C308.904 325.5 311.762 324.81 313.722 323.142L311.778 320.858ZM294.2 296.5V301.9H297.2V296.5H294.2ZM295.7 303.4H299.95V300.4H295.7V303.4ZM299.95 303.4C300.828 303.4 301.779 303.166 302.465 302.403L300.235 300.397C300.268 300.359 300.295 300.354 300.27 300.362C300.237 300.374 300.14 300.4 299.95 300.4V303.4ZM302.411 302.461C303.125 301.747 303.35 300.798 303.35 299.9H300.35C300.35 300.335 300.242 300.387 300.289 300.339L302.411 302.461ZM303.35 299.9V298.5H300.35V299.9H303.35ZM303.35 298.5C303.35 297.602 303.125 296.653 302.411 295.939L300.289 298.061C300.242 298.013 300.35 298.065 300.35 298.5H303.35ZM302.465 295.997C301.779 295.234 300.828 295 299.95 295V298C300.14 298 300.237 298.026 300.27 298.038C300.295 298.046 300.268 298.041 300.235 298.003L302.465 295.997ZM299.95 295H295.7V298H299.95V295ZM294.2 309.6V315.5H297.2V309.6H294.2ZM295.7 317H302.2V314H295.7V317ZM302.2 317C303.078 317 304.029 316.766 304.715 316.003L302.485 313.997C302.518 313.959 302.545 313.954 302.52 313.962C302.487 313.974 302.39 314 302.2 314V317ZM304.661 316.061C305.375 315.347 305.6 314.398 305.6 313.5H302.6C302.6 313.935 302.492 313.987 302.539 313.939L304.661 316.061ZM305.6 313.5V311.55H302.6V313.5H305.6ZM305.6 311.55C305.6 310.667 305.38 309.684 304.603 308.985L302.597 311.215C302.549 311.172 302.545 311.141 302.557 311.176C302.572 311.221 302.6 311.335 302.6 311.55H305.6ZM304.715 309.097C304.029 308.334 303.078 308.1 302.2 308.1V311.1C302.39 311.1 302.487 311.126 302.52 311.138C302.545 311.146 302.518 311.141 302.485 311.103L304.715 309.097ZM302.2 308.1H295.7V311.1H302.2V308.1Z" fill="white" mask="url(#path-3-outside-1_84_78)"/>
</svg>
