<svg width="600" height="600" viewBox="0 0 600 600" fill="none" xmlns="http://www.w3.org/2000/svg">
<rect x="1" y="1" width="598" height="598" stroke="black" stroke-width="2" stroke-dasharray="7 7"/>
<rect width="600" height="300" fill="#3555FD"/>
<mask id="path-3-outside-1_84_91" maskUnits="userSpaceOnUse" x="283" y="121" width="29" height="38" fill="black">
<rect fill="white" x="283" y="121" width="29" height="38"/>
<path d="M294 158H286.25C285.617 158 285.15 157.867 284.85 157.6C284.583 157.3 284.45 156.833 284.45 156.2V123.8C284.45 123.167 284.583 122.717 284.85 122.45C285.15 122.15 285.617 122 286.25 122H308.55C309.183 122 309.633 122.15 309.9 122.45C310.2 122.717 310.35 123.167 310.35 123.8V129.75C310.35 130.383 310.2 130.85 309.9 131.15C309.633 131.417 309.183 131.55 308.55 131.55H295.8V136.75H304.5C305.133 136.75 305.583 136.9 305.85 137.2C306.15 137.467 306.3 137.917 306.3 138.55V144.55C306.3 145.183 306.15 145.65 305.85 145.95C305.583 146.217 305.133 146.35 304.5 146.35H295.8V156.2C295.8 156.833 295.65 157.3 295.35 157.6C295.083 157.867 294.633 158 294 158Z"/>
</mask>
<path d="M284.85 157.6L284.103 158.264L284.142 158.308L284.186 158.347L284.85 157.6ZM284.85 122.45L284.143 121.743H284.143L284.85 122.45ZM309.9 122.45L309.153 123.114L309.192 123.158L309.236 123.197L309.9 122.45ZM295.8 131.55V130.55H294.8V131.55H295.8ZM295.8 136.75H294.8V137.75H295.8V136.75ZM305.85 137.2L305.103 137.864L305.142 137.908L305.186 137.947L305.85 137.2ZM305.85 145.95L305.143 145.243L305.143 145.243L305.85 145.95ZM295.8 146.35V145.35H294.8V146.35H295.8ZM295.35 157.6L294.643 156.893H294.643L295.35 157.6ZM294 157H286.25V159H294V157ZM286.25 157C285.727 157 285.551 156.885 285.514 156.853L284.186 158.347C284.749 158.848 285.506 159 286.25 159V157ZM285.597 156.936C285.565 156.899 285.45 156.723 285.45 156.2H283.45C283.45 156.944 283.602 157.701 284.103 158.264L285.597 156.936ZM285.45 156.2V123.8H283.45V156.2H285.45ZM285.45 123.8C285.45 123.548 285.477 123.379 285.509 123.272C285.54 123.168 285.567 123.147 285.557 123.157L284.143 121.743C283.596 122.29 283.45 123.071 283.45 123.8H285.45ZM285.557 123.157C285.595 123.12 285.752 123 286.25 123V121C285.481 121 284.705 121.18 284.143 121.743L285.557 123.157ZM286.25 123H308.55V121H286.25V123ZM308.55 123C308.793 123 308.951 123.029 309.046 123.061C309.092 123.076 309.119 123.091 309.134 123.1C309.148 123.109 309.152 123.114 309.153 123.114L310.647 121.786C310.105 121.175 309.306 121 308.55 121V123ZM309.236 123.197C309.236 123.198 309.241 123.202 309.25 123.216C309.259 123.231 309.274 123.258 309.289 123.304C309.321 123.399 309.35 123.557 309.35 123.8H311.35C311.35 123.044 311.175 122.245 310.564 121.703L309.236 123.197ZM309.35 123.8V129.75H311.35V123.8H309.35ZM309.35 129.75C309.35 130.248 309.23 130.405 309.193 130.443L310.607 131.857C311.17 131.295 311.35 130.519 311.35 129.75H309.35ZM309.193 130.443C309.203 130.433 309.182 130.46 309.078 130.491C308.971 130.523 308.802 130.55 308.55 130.55V132.55C309.279 132.55 310.06 132.404 310.607 131.857L309.193 130.443ZM308.55 130.55H295.8V132.55H308.55V130.55ZM294.8 131.55V136.75H296.8V131.55H294.8ZM295.8 137.75H304.5V135.75H295.8V137.75ZM304.5 137.75C304.743 137.75 304.901 137.779 304.996 137.811C305.042 137.826 305.069 137.841 305.084 137.85C305.098 137.859 305.102 137.864 305.103 137.864L306.597 136.536C306.055 135.925 305.256 135.75 304.5 135.75V137.75ZM305.186 137.947C305.186 137.948 305.191 137.952 305.2 137.966C305.209 137.981 305.224 138.008 305.239 138.054C305.271 138.149 305.3 138.307 305.3 138.55H307.3C307.3 137.794 307.125 136.995 306.514 136.453L305.186 137.947ZM305.3 138.55V144.55H307.3V138.55H305.3ZM305.3 144.55C305.3 145.048 305.18 145.205 305.143 145.243L306.557 146.657C307.12 146.095 307.3 145.319 307.3 144.55H305.3ZM305.143 145.243C305.153 145.233 305.132 145.26 305.028 145.291C304.921 145.323 304.752 145.35 304.5 145.35V147.35C305.229 147.35 306.01 147.204 306.557 146.657L305.143 145.243ZM304.5 145.35H295.8V147.35H304.5V145.35ZM294.8 146.35V156.2H296.8V146.35H294.8ZM294.8 156.2C294.8 156.698 294.68 156.855 294.643 156.893L296.057 158.307C296.62 157.745 296.8 156.969 296.8 156.2H294.8ZM294.643 156.893C294.653 156.883 294.632 156.91 294.528 156.941C294.421 156.973 294.252 157 294 157V159C294.729 159 295.51 158.854 296.057 158.307L294.643 156.893Z" fill="white" mask="url(#path-3-outside-1_84_91)"/>
</svg>
