<svg width="605" height="600" viewBox="0 0 605 600" fill="none" xmlns="http://www.w3.org/2000/svg">
<rect x="2" width="600" height="600" fill="#011580"/>
<line x1="605" y1="301" y2="301" stroke="white" stroke-opacity="0.78" stroke-width="2" stroke-dasharray="33 33"/>
<line x1="303" y1="1" x2="303" y2="575" stroke="white" stroke-opacity="0.78" stroke-width="2" stroke-dasharray="33 33"/>
<mask id="path-4-outside-1_84_104" maskUnits="userSpaceOnUse" x="285" y="283" width="34" height="40" fill="black">
<rect fill="white" x="285" y="283" width="34" height="40"/>
<path d="M307.45 321H288.25C287.617 321 287.15 320.867 286.85 320.6C286.583 320.3 286.45 319.833 286.45 319.2V286.8C286.45 286.167 286.583 285.717 286.85 285.45C287.15 285.15 287.617 285 288.25 285H304.2C307.467 285 309.883 285.633 311.45 286.9C313.017 288.133 313.8 290.05 313.8 292.65V295.05C313.8 296.45 313.55 297.6 313.05 298.5C312.583 299.367 311.85 300.017 310.85 300.45C312.983 300.65 314.567 301.383 315.6 302.65C316.633 303.917 317.15 305.767 317.15 308.2V312.8C317.15 315.6 316.35 317.667 314.75 319C313.183 320.333 310.75 321 307.45 321ZM297.7 293.5V298.9H301.95C302.583 298.9 303.05 298.733 303.35 298.4C303.683 298.067 303.85 297.567 303.85 296.9V295.5C303.85 294.833 303.683 294.333 303.35 294C303.05 293.667 302.583 293.5 301.95 293.5H297.7ZM297.7 306.6V312.5H304.2C304.833 312.5 305.3 312.333 305.6 312C305.933 311.667 306.1 311.167 306.1 310.5V308.55C306.1 307.883 305.933 307.4 305.6 307.1C305.3 306.767 304.833 306.6 304.2 306.6H297.7Z"/>
</mask>
<path d="M307.45 321H288.25C287.617 321 287.15 320.867 286.85 320.6C286.583 320.3 286.45 319.833 286.45 319.2V286.8C286.45 286.167 286.583 285.717 286.85 285.45C287.15 285.15 287.617 285 288.25 285H304.2C307.467 285 309.883 285.633 311.45 286.9C313.017 288.133 313.8 290.05 313.8 292.65V295.05C313.8 296.45 313.55 297.6 313.05 298.5C312.583 299.367 311.85 300.017 310.85 300.45C312.983 300.65 314.567 301.383 315.6 302.65C316.633 303.917 317.15 305.767 317.15 308.2V312.8C317.15 315.6 316.35 317.667 314.75 319C313.183 320.333 310.75 321 307.45 321ZM297.7 293.5V298.9H301.95C302.583 298.9 303.05 298.733 303.35 298.4C303.683 298.067 303.85 297.567 303.85 296.9V295.5C303.85 294.833 303.683 294.333 303.35 294C303.05 293.667 302.583 293.5 301.95 293.5H297.7ZM297.7 306.6V312.5H304.2C304.833 312.5 305.3 312.333 305.6 312C305.933 311.667 306.1 311.167 306.1 310.5V308.55C306.1 307.883 305.933 307.4 305.6 307.1C305.3 306.767 304.833 306.6 304.2 306.6H297.7Z" fill="#011580"/>
<path d="M286.85 320.6L286.028 321.331L286.071 321.379L286.119 321.422L286.85 320.6ZM286.85 285.45L286.072 284.672L286.072 284.672L286.85 285.45ZM311.45 286.9L310.758 287.755L310.764 287.76L310.77 287.764L311.45 286.9ZM313.05 298.5L312.088 297.966L312.085 297.972L312.081 297.978L313.05 298.5ZM310.85 300.45L310.413 299.441L310.747 301.545L310.85 300.45ZM315.6 302.65L314.748 303.345H314.748L315.6 302.65ZM314.75 319L314.046 318.155L314.037 318.162L314.75 319ZM297.7 293.5V292.4H296.6V293.5H297.7ZM297.7 298.9H296.6V300H297.7V298.9ZM303.35 298.4L302.572 297.622L302.552 297.643L302.532 297.664L303.35 298.4ZM303.35 294L302.532 294.736L302.552 294.757L302.572 294.778L303.35 294ZM297.7 306.6V305.5H296.6V306.6H297.7ZM297.7 312.5H296.6V313.6H297.7V312.5ZM305.6 312L304.822 311.222L304.802 311.243L304.782 311.264L305.6 312ZM305.6 307.1L304.782 307.836L304.821 307.879L304.864 307.918L305.6 307.1ZM307.45 319.9H288.25V322.1H307.45V319.9ZM288.25 319.9C287.738 319.9 287.591 319.787 287.581 319.778L286.119 321.422C286.709 321.946 287.495 322.1 288.25 322.1V319.9ZM287.672 319.869C287.663 319.859 287.55 319.712 287.55 319.2H285.35C285.35 319.955 285.504 320.741 286.028 321.331L287.672 319.869ZM287.55 319.2V286.8H285.35V319.2H287.55ZM287.55 286.8C287.55 286.555 287.576 286.395 287.605 286.3C287.632 286.208 287.652 286.204 287.628 286.228L286.072 284.672C285.497 285.248 285.35 286.062 285.35 286.8H287.55ZM287.628 286.228C287.639 286.217 287.766 286.1 288.25 286.1V283.9C287.467 283.9 286.661 284.083 286.072 284.672L287.628 286.228ZM288.25 286.1H304.2V283.9H288.25V286.1ZM304.2 286.1C307.36 286.1 309.477 286.719 310.758 287.755L312.142 286.045C310.29 284.548 307.573 283.9 304.2 283.9V286.1ZM310.77 287.764C311.995 288.729 312.7 290.276 312.7 292.65H314.9C314.9 289.824 314.039 287.538 312.13 286.036L310.77 287.764ZM312.7 292.65V295.05H314.9V292.65H312.7ZM312.7 295.05C312.7 296.327 312.471 297.278 312.088 297.966L314.012 299.034C314.629 297.922 314.9 296.573 314.9 295.05H312.7ZM312.081 297.978C311.745 298.604 311.212 299.094 310.413 299.441L311.287 301.459C312.488 300.939 313.422 300.129 314.019 299.022L312.081 297.978ZM310.747 301.545C312.682 301.727 313.953 302.372 314.748 303.345L316.452 301.955C315.18 300.395 313.284 299.573 310.953 299.355L310.747 301.545ZM314.748 303.345C315.559 304.34 316.05 305.901 316.05 308.2H318.25C318.25 305.633 317.708 303.494 316.452 301.955L314.748 303.345ZM316.05 308.2V312.8H318.25V308.2H316.05ZM316.05 312.8C316.05 315.393 315.316 317.097 314.046 318.155L315.454 319.845C317.384 318.237 318.25 315.807 318.25 312.8H316.05ZM314.037 318.162C312.759 319.25 310.637 319.9 307.45 319.9V322.1C310.863 322.1 313.608 321.417 315.463 319.838L314.037 318.162ZM296.6 293.5V298.9H298.8V293.5H296.6ZM297.7 300H301.95V297.8H297.7V300ZM301.95 300C302.763 300 303.584 299.784 304.168 299.136L302.532 297.664C302.516 297.683 302.404 297.8 301.95 297.8V300ZM304.128 299.178C304.74 298.565 304.95 297.736 304.95 296.9H302.75C302.75 297.397 302.626 297.568 302.572 297.622L304.128 299.178ZM304.95 296.9V295.5H302.75V296.9H304.95ZM304.95 295.5C304.95 294.664 304.74 293.835 304.128 293.222L302.572 294.778C302.626 294.832 302.75 295.003 302.75 295.5H304.95ZM304.168 293.264C303.584 292.616 302.763 292.4 301.95 292.4V294.6C302.404 294.6 302.516 294.717 302.532 294.736L304.168 293.264ZM301.95 292.4H297.7V294.6H301.95V292.4ZM296.6 306.6V312.5H298.8V306.6H296.6ZM297.7 313.6H304.2V311.4H297.7V313.6ZM304.2 313.6C305.013 313.6 305.834 313.384 306.418 312.736L304.782 311.264C304.766 311.283 304.654 311.4 304.2 311.4V313.6ZM306.378 312.778C306.99 312.165 307.2 311.336 307.2 310.5H305C305 310.997 304.876 311.168 304.822 311.222L306.378 312.778ZM307.2 310.5V308.55H305V310.5H307.2ZM307.2 308.55C307.2 307.725 306.994 306.875 306.336 306.282L304.864 307.918C304.872 307.925 305 308.042 305 308.55H307.2ZM306.418 306.364C305.834 305.716 305.013 305.5 304.2 305.5V307.7C304.654 307.7 304.766 307.817 304.782 307.836L306.418 306.364ZM304.2 305.5H297.7V307.7H304.2V305.5Z" fill="white" mask="url(#path-4-outside-1_84_104)"/>
</svg>
