<svg width="605" height="600" viewBox="0 0 605 600" fill="none" xmlns="http://www.w3.org/2000/svg">
<rect x="3" width="600" height="300" fill="#011580"/>
<rect x="4" y="1" width="598" height="598" stroke="black" stroke-width="2" stroke-dasharray="7 7"/>
<rect x="4" y="300" width="600" height="150" fill="#3555FD"/>
<mask id="path-4-outside-1_84_119" maskUnits="userSpaceOnUse" x="287" y="359" width="29" height="38" fill="black">
<rect fill="white" x="287" y="359" width="29" height="38"/>
<path d="M298 396H290.25C289.617 396 289.15 395.867 288.85 395.6C288.583 395.3 288.45 394.833 288.45 394.2V361.8C288.45 361.167 288.583 360.717 288.85 360.45C289.15 360.15 289.617 360 290.25 360H312.55C313.183 360 313.633 360.15 313.9 360.45C314.2 360.717 314.35 361.167 314.35 361.8V367.75C314.35 368.383 314.2 368.85 313.9 369.15C313.633 369.417 313.183 369.55 312.55 369.55H299.8V374.75H308.5C309.133 374.75 309.583 374.9 309.85 375.2C310.15 375.467 310.3 375.917 310.3 376.55V382.55C310.3 383.183 310.15 383.65 309.85 383.95C309.583 384.217 309.133 384.35 308.5 384.35H299.8V394.2C299.8 394.833 299.65 395.3 299.35 395.6C299.083 395.867 298.633 396 298 396Z"/>
</mask>
<path d="M288.85 395.6L288.103 396.264L288.142 396.308L288.186 396.347L288.85 395.6ZM288.85 360.45L288.143 359.743H288.143L288.85 360.45ZM313.9 360.45L313.153 361.114L313.192 361.158L313.236 361.197L313.9 360.45ZM299.8 369.55V368.55H298.8V369.55H299.8ZM299.8 374.75H298.8V375.75H299.8V374.75ZM309.85 375.2L309.103 375.864L309.142 375.908L309.186 375.947L309.85 375.2ZM309.85 383.95L309.143 383.243L309.143 383.243L309.85 383.95ZM299.8 384.35V383.35H298.8V384.35H299.8ZM299.35 395.6L298.643 394.893H298.643L299.35 395.6ZM298 395H290.25V397H298V395ZM290.25 395C289.727 395 289.551 394.885 289.514 394.853L288.186 396.347C288.749 396.848 289.506 397 290.25 397V395ZM289.597 394.936C289.565 394.899 289.45 394.723 289.45 394.2H287.45C287.45 394.944 287.602 395.701 288.103 396.264L289.597 394.936ZM289.45 394.2V361.8H287.45V394.2H289.45ZM289.45 361.8C289.45 361.548 289.477 361.379 289.509 361.272C289.54 361.168 289.567 361.147 289.557 361.157L288.143 359.743C287.596 360.29 287.45 361.071 287.45 361.8H289.45ZM289.557 361.157C289.595 361.12 289.752 361 290.25 361V359C289.481 359 288.705 359.18 288.143 359.743L289.557 361.157ZM290.25 361H312.55V359H290.25V361ZM312.55 361C312.793 361 312.951 361.029 313.046 361.061C313.092 361.076 313.119 361.091 313.134 361.1C313.148 361.109 313.152 361.114 313.153 361.114L314.647 359.786C314.105 359.175 313.306 359 312.55 359V361ZM313.236 361.197C313.236 361.198 313.241 361.202 313.25 361.216C313.259 361.231 313.274 361.258 313.289 361.304C313.321 361.399 313.35 361.557 313.35 361.8H315.35C315.35 361.044 315.175 360.245 314.564 359.703L313.236 361.197ZM313.35 361.8V367.75H315.35V361.8H313.35ZM313.35 367.75C313.35 368.248 313.23 368.405 313.193 368.443L314.607 369.857C315.17 369.295 315.35 368.519 315.35 367.75H313.35ZM313.193 368.443C313.203 368.433 313.182 368.46 313.078 368.491C312.971 368.523 312.802 368.55 312.55 368.55V370.55C313.279 370.55 314.06 370.404 314.607 369.857L313.193 368.443ZM312.55 368.55H299.8V370.55H312.55V368.55ZM298.8 369.55V374.75H300.8V369.55H298.8ZM299.8 375.75H308.5V373.75H299.8V375.75ZM308.5 375.75C308.743 375.75 308.901 375.779 308.996 375.811C309.042 375.826 309.069 375.841 309.084 375.85C309.098 375.859 309.102 375.864 309.103 375.864L310.597 374.536C310.055 373.925 309.256 373.75 308.5 373.75V375.75ZM309.186 375.947C309.186 375.948 309.191 375.952 309.2 375.966C309.209 375.981 309.224 376.008 309.239 376.054C309.271 376.149 309.3 376.307 309.3 376.55H311.3C311.3 375.794 311.125 374.995 310.514 374.453L309.186 375.947ZM309.3 376.55V382.55H311.3V376.55H309.3ZM309.3 382.55C309.3 383.048 309.18 383.205 309.143 383.243L310.557 384.657C311.12 384.095 311.3 383.319 311.3 382.55H309.3ZM309.143 383.243C309.153 383.233 309.132 383.26 309.028 383.291C308.921 383.323 308.752 383.35 308.5 383.35V385.35C309.229 385.35 310.01 385.204 310.557 384.657L309.143 383.243ZM308.5 383.35H299.8V385.35H308.5V383.35ZM298.8 384.35V394.2H300.8V384.35H298.8ZM298.8 394.2C298.8 394.698 298.68 394.855 298.643 394.893L300.057 396.307C300.62 395.745 300.8 394.969 300.8 394.2H298.8ZM298.643 394.893C298.653 394.883 298.632 394.91 298.528 394.941C298.421 394.973 298.252 395 298 395V397C298.729 397 299.51 396.854 300.057 396.307L298.643 394.893Z" fill="white" mask="url(#path-4-outside-1_84_119)"/>
<line x1="605" y1="301" y2="301" stroke="white" stroke-opacity="0.78" stroke-width="2" stroke-dasharray="33 33"/>
<line x1="304.747" y1="0.998133" x2="305.014" y2="300.998" stroke="white" stroke-opacity="0.78" stroke-width="2" stroke-dasharray="33 33"/>
<mask id="path-8-outside-2_84_119" maskUnits="userSpaceOnUse" x="286" y="134" width="34" height="38" fill="black">
<rect fill="white" x="286" y="134" width="34" height="38"/>
<path d="M308.45 171H289.25C288.617 171 288.15 170.867 287.85 170.6C287.583 170.3 287.45 169.833 287.45 169.2V136.8C287.45 136.167 287.583 135.717 287.85 135.45C288.15 135.15 288.617 135 289.25 135H305.2C308.467 135 310.883 135.633 312.45 136.9C314.017 138.133 314.8 140.05 314.8 142.65V145.05C314.8 146.45 314.55 147.6 314.05 148.5C313.583 149.367 312.85 150.017 311.85 150.45C313.983 150.65 315.567 151.383 316.6 152.65C317.633 153.917 318.15 155.767 318.15 158.2V162.8C318.15 165.6 317.35 167.667 315.75 169C314.183 170.333 311.75 171 308.45 171ZM298.7 143.5V148.9H302.95C303.583 148.9 304.05 148.733 304.35 148.4C304.683 148.067 304.85 147.567 304.85 146.9V145.5C304.85 144.833 304.683 144.333 304.35 144C304.05 143.667 303.583 143.5 302.95 143.5H298.7ZM298.7 156.6V162.5H305.2C305.833 162.5 306.3 162.333 306.6 162C306.933 161.667 307.1 161.167 307.1 160.5V158.55C307.1 157.883 306.933 157.4 306.6 157.1C306.3 156.767 305.833 156.6 305.2 156.6H298.7Z"/>
</mask>
<path d="M308.45 171H289.25C288.617 171 288.15 170.867 287.85 170.6C287.583 170.3 287.45 169.833 287.45 169.2V136.8C287.45 136.167 287.583 135.717 287.85 135.45C288.15 135.15 288.617 135 289.25 135H305.2C308.467 135 310.883 135.633 312.45 136.9C314.017 138.133 314.8 140.05 314.8 142.65V145.05C314.8 146.45 314.55 147.6 314.05 148.5C313.583 149.367 312.85 150.017 311.85 150.45C313.983 150.65 315.567 151.383 316.6 152.65C317.633 153.917 318.15 155.767 318.15 158.2V162.8C318.15 165.6 317.35 167.667 315.75 169C314.183 170.333 311.75 171 308.45 171ZM298.7 143.5V148.9H302.95C303.583 148.9 304.05 148.733 304.35 148.4C304.683 148.067 304.85 147.567 304.85 146.9V145.5C304.85 144.833 304.683 144.333 304.35 144C304.05 143.667 303.583 143.5 302.95 143.5H298.7ZM298.7 156.6V162.5H305.2C305.833 162.5 306.3 162.333 306.6 162C306.933 161.667 307.1 161.167 307.1 160.5V158.55C307.1 157.883 306.933 157.4 306.6 157.1C306.3 156.767 305.833 156.6 305.2 156.6H298.7Z" fill="#011580"/>
<path d="M287.85 170.6L287.103 171.264L287.142 171.308L287.186 171.347L287.85 170.6ZM287.85 135.45L287.143 134.743H287.143L287.85 135.45ZM312.45 136.9L311.821 137.678L311.831 137.686L312.45 136.9ZM314.05 148.5L313.176 148.014L313.17 148.026L314.05 148.5ZM311.85 150.45L311.452 149.532L311.757 151.446L311.85 150.45ZM316.6 152.65L315.825 153.282H315.825L316.6 152.65ZM315.75 169L315.11 168.232L315.102 168.238L315.75 169ZM298.7 143.5V142.5H297.7V143.5H298.7ZM298.7 148.9H297.7V149.9H298.7V148.9ZM304.35 148.4L303.643 147.693L303.624 147.711L303.607 147.731L304.35 148.4ZM304.35 144L303.607 144.669L303.624 144.689L303.643 144.707L304.35 144ZM298.7 156.6V155.6H297.7V156.6H298.7ZM298.7 162.5H297.7V163.5H298.7V162.5ZM306.6 162L305.893 161.293L305.874 161.311L305.857 161.331L306.6 162ZM306.6 157.1L305.857 157.769L305.892 157.808L305.931 157.843L306.6 157.1ZM308.45 170H289.25V172H308.45V170ZM289.25 170C288.727 170 288.551 169.885 288.514 169.853L287.186 171.347C287.749 171.848 288.506 172 289.25 172V170ZM288.597 169.936C288.565 169.899 288.45 169.723 288.45 169.2H286.45C286.45 169.944 286.602 170.701 287.103 171.264L288.597 169.936ZM288.45 169.2V136.8H286.45V169.2H288.45ZM288.45 136.8C288.45 136.548 288.477 136.379 288.509 136.272C288.54 136.168 288.567 136.147 288.557 136.157L287.143 134.743C286.596 135.29 286.45 136.071 286.45 136.8H288.45ZM288.557 136.157C288.595 136.12 288.752 136 289.25 136V134C288.481 134 287.705 134.18 287.143 134.743L288.557 136.157ZM289.25 136H305.2V134H289.25V136ZM305.2 136C308.37 136 310.514 136.62 311.821 137.678L313.079 136.122C311.253 134.646 308.563 134 305.2 134V136ZM311.831 137.686C313.088 138.675 313.8 140.256 313.8 142.65H315.8C315.8 139.844 314.946 137.592 313.069 136.114L311.831 137.686ZM313.8 142.65V145.05H315.8V142.65H313.8ZM313.8 145.05C313.8 146.339 313.569 147.307 313.176 148.014L314.924 148.986C315.531 147.893 315.8 146.561 315.8 145.05H313.8ZM313.17 148.026C312.821 148.673 312.27 149.178 311.452 149.532L312.248 151.368C313.43 150.855 314.346 150.06 314.93 148.974L313.17 148.026ZM311.757 151.446C313.71 151.629 315.009 152.282 315.825 153.282L317.375 152.018C316.124 150.485 314.257 149.671 311.943 149.454L311.757 151.446ZM315.825 153.282C316.657 154.301 317.15 155.889 317.15 158.2H319.15C319.15 155.645 318.61 153.532 317.375 152.018L315.825 153.282ZM317.15 158.2V162.8H319.15V158.2H317.15ZM317.15 162.8C317.15 165.412 316.41 167.148 315.11 168.232L316.39 169.768C318.29 168.185 319.15 165.788 319.15 162.8H317.15ZM315.102 168.238C313.797 169.349 311.647 170 308.45 170V172C311.853 172 314.569 171.318 316.398 169.762L315.102 168.238ZM297.7 143.5V148.9H299.7V143.5H297.7ZM298.7 149.9H302.95V147.9H298.7V149.9ZM302.95 149.9C303.747 149.9 304.536 149.688 305.093 149.069L303.607 147.731C303.564 147.778 303.42 147.9 302.95 147.9V149.9ZM305.057 149.107C305.644 148.52 305.85 147.721 305.85 146.9H303.85C303.85 147.413 303.723 147.613 303.643 147.693L305.057 149.107ZM305.85 146.9V145.5H303.85V146.9H305.85ZM305.85 145.5C305.85 144.679 305.644 143.88 305.057 143.293L303.643 144.707C303.723 144.787 303.85 144.987 303.85 145.5H305.85ZM305.093 143.331C304.536 142.712 303.747 142.5 302.95 142.5V144.5C303.42 144.5 303.564 144.622 303.607 144.669L305.093 143.331ZM302.95 142.5H298.7V144.5H302.95V142.5ZM297.7 156.6V162.5H299.7V156.6H297.7ZM298.7 163.5H305.2V161.5H298.7V163.5ZM305.2 163.5C305.997 163.5 306.786 163.288 307.343 162.669L305.857 161.331C305.814 161.378 305.67 161.5 305.2 161.5V163.5ZM307.307 162.707C307.894 162.12 308.1 161.321 308.1 160.5H306.1C306.1 161.013 305.973 161.213 305.893 161.293L307.307 162.707ZM308.1 160.5V158.55H306.1V160.5H308.1ZM308.1 158.55C308.1 157.739 307.898 156.923 307.269 156.357L305.931 157.843C305.969 157.877 306.1 158.028 306.1 158.55H308.1ZM307.343 156.431C306.786 155.812 305.997 155.6 305.2 155.6V157.6C305.67 157.6 305.814 157.722 305.857 157.769L307.343 156.431ZM305.2 155.6H298.7V157.6H305.2V155.6Z" fill="white" mask="url(#path-8-outside-2_84_119)"/>
</svg>
