<svg width="718" height="600" viewBox="0 0 718 600" fill="none" xmlns="http://www.w3.org/2000/svg">
<mask id="path-1-outside-1_97_166" maskUnits="userSpaceOnUse" x="285" y="167" width="34" height="38" fill="black">
<rect fill="white" x="285" y="167" width="34" height="38"/>
<path d="M307.45 204H288.25C287.617 204 287.15 203.867 286.85 203.6C286.583 203.3 286.45 202.833 286.45 202.2V169.8C286.45 169.167 286.583 168.717 286.85 168.45C287.15 168.15 287.617 168 288.25 168H304.2C307.467 168 309.883 168.633 311.45 169.9C313.017 171.133 313.8 173.05 313.8 175.65V178.05C313.8 179.45 313.55 180.6 313.05 181.5C312.583 182.367 311.85 183.017 310.85 183.45C312.983 183.65 314.567 184.383 315.6 185.65C316.633 186.917 317.15 188.767 317.15 191.2V195.8C317.15 198.6 316.35 200.667 314.75 202C313.183 203.333 310.75 204 307.45 204ZM297.7 176.5V181.9H301.95C302.583 181.9 303.05 181.733 303.35 181.4C303.683 181.067 303.85 180.567 303.85 179.9V178.5C303.85 177.833 303.683 177.333 303.35 177C303.05 176.667 302.583 176.5 301.95 176.5H297.7ZM297.7 189.6V195.5H304.2C304.833 195.5 305.3 195.333 305.6 195C305.933 194.667 306.1 194.167 306.1 193.5V191.55C306.1 190.883 305.933 190.4 305.6 190.1C305.3 189.767 304.833 189.6 304.2 189.6H297.7Z"/>
</mask>
<path d="M286.85 203.6L286.103 204.264L286.142 204.308L286.186 204.347L286.85 203.6ZM286.85 168.45L286.143 167.743H286.143L286.85 168.45ZM311.45 169.9L310.821 170.678L310.831 170.686L311.45 169.9ZM313.05 181.5L312.176 181.014L312.17 181.026L313.05 181.5ZM310.85 183.45L310.452 182.532L310.757 184.446L310.85 183.45ZM315.6 185.65L314.825 186.282H314.825L315.6 185.65ZM314.75 202L314.11 201.232L314.102 201.238L314.75 202ZM297.7 176.5V175.5H296.7V176.5H297.7ZM297.7 181.9H296.7V182.9H297.7V181.9ZM303.35 181.4L302.643 180.693L302.624 180.711L302.607 180.731L303.35 181.4ZM303.35 177L302.607 177.669L302.624 177.689L302.643 177.707L303.35 177ZM297.7 189.6V188.6H296.7V189.6H297.7ZM297.7 195.5H296.7V196.5H297.7V195.5ZM305.6 195L304.893 194.293L304.874 194.311L304.857 194.331L305.6 195ZM305.6 190.1L304.857 190.769L304.892 190.808L304.931 190.843L305.6 190.1ZM307.45 203H288.25V205H307.45V203ZM288.25 203C287.727 203 287.551 202.885 287.514 202.853L286.186 204.347C286.749 204.848 287.506 205 288.25 205V203ZM287.597 202.936C287.565 202.899 287.45 202.723 287.45 202.2H285.45C285.45 202.944 285.602 203.701 286.103 204.264L287.597 202.936ZM287.45 202.2V169.8H285.45V202.2H287.45ZM287.45 169.8C287.45 169.548 287.477 169.379 287.509 169.272C287.54 169.168 287.567 169.147 287.557 169.157L286.143 167.743C285.596 168.29 285.45 169.071 285.45 169.8H287.45ZM287.557 169.157C287.595 169.12 287.752 169 288.25 169V167C287.481 167 286.705 167.18 286.143 167.743L287.557 169.157ZM288.25 169H304.2V167H288.25V169ZM304.2 169C307.37 169 309.514 169.62 310.821 170.678L312.079 169.122C310.253 167.646 307.563 167 304.2 167V169ZM310.831 170.686C312.088 171.675 312.8 173.256 312.8 175.65H314.8C314.8 172.844 313.946 170.592 312.069 169.114L310.831 170.686ZM312.8 175.65V178.05H314.8V175.65H312.8ZM312.8 178.05C312.8 179.339 312.569 180.307 312.176 181.014L313.924 181.986C314.531 180.893 314.8 179.561 314.8 178.05H312.8ZM312.17 181.026C311.821 181.673 311.27 182.178 310.452 182.532L311.248 184.368C312.43 183.855 313.346 183.06 313.93 181.974L312.17 181.026ZM310.757 184.446C312.71 184.629 314.009 185.282 314.825 186.282L316.375 185.018C315.124 183.485 313.257 182.671 310.943 182.454L310.757 184.446ZM314.825 186.282C315.657 187.301 316.15 188.889 316.15 191.2H318.15C318.15 188.645 317.61 186.532 316.375 185.018L314.825 186.282ZM316.15 191.2V195.8H318.15V191.2H316.15ZM316.15 195.8C316.15 198.412 315.41 200.148 314.11 201.232L315.39 202.768C317.29 201.185 318.15 198.788 318.15 195.8H316.15ZM314.102 201.238C312.797 202.349 310.647 203 307.45 203V205C310.853 205 313.569 204.318 315.398 202.762L314.102 201.238ZM296.7 176.5V181.9H298.7V176.5H296.7ZM297.7 182.9H301.95V180.9H297.7V182.9ZM301.95 182.9C302.747 182.9 303.536 182.688 304.093 182.069L302.607 180.731C302.564 180.778 302.42 180.9 301.95 180.9V182.9ZM304.057 182.107C304.644 181.52 304.85 180.721 304.85 179.9H302.85C302.85 180.413 302.723 180.613 302.643 180.693L304.057 182.107ZM304.85 179.9V178.5H302.85V179.9H304.85ZM304.85 178.5C304.85 177.679 304.644 176.88 304.057 176.293L302.643 177.707C302.723 177.787 302.85 177.987 302.85 178.5H304.85ZM304.093 176.331C303.536 175.712 302.747 175.5 301.95 175.5V177.5C302.42 177.5 302.564 177.622 302.607 177.669L304.093 176.331ZM301.95 175.5H297.7V177.5H301.95V175.5ZM296.7 189.6V195.5H298.7V189.6H296.7ZM297.7 196.5H304.2V194.5H297.7V196.5ZM304.2 196.5C304.997 196.5 305.786 196.288 306.343 195.669L304.857 194.331C304.814 194.378 304.67 194.5 304.2 194.5V196.5ZM306.307 195.707C306.894 195.12 307.1 194.321 307.1 193.5H305.1C305.1 194.013 304.973 194.213 304.893 194.293L306.307 195.707ZM307.1 193.5V191.55H305.1V193.5H307.1ZM307.1 191.55C307.1 190.739 306.898 189.923 306.269 189.357L304.931 190.843C304.969 190.877 305.1 191.028 305.1 191.55H307.1ZM306.343 189.431C305.786 188.812 304.997 188.6 304.2 188.6V190.6C304.67 190.6 304.814 190.722 304.857 190.769L306.343 189.431ZM304.2 188.6H297.7V190.6H304.2V188.6Z" fill="white" mask="url(#path-1-outside-1_97_166)"/>
<rect x="1" y="1" width="598" height="598" stroke="black" stroke-width="2" stroke-dasharray="7 7"/>
<rect width="600" height="450" fill="#3555FD"/>
<line x1="616" y1="301" x2="16" y2="301" stroke="white" stroke-opacity="0.78" stroke-width="2" stroke-dasharray="33 33"/>
<line x1="303" y1="3.99902" x2="303" y2="288" stroke="white" stroke-opacity="0.78" stroke-width="2" stroke-dasharray="33 33"/>
<mask id="path-7-outside-2_97_166" maskUnits="userSpaceOnUse" x="290" y="198" width="29" height="38" fill="black">
<rect fill="white" x="290" y="198" width="29" height="38"/>
<path d="M301 235H293.25C292.617 235 292.15 234.867 291.85 234.6C291.583 234.3 291.45 233.833 291.45 233.2V200.8C291.45 200.167 291.583 199.717 291.85 199.45C292.15 199.15 292.617 199 293.25 199H315.55C316.183 199 316.633 199.15 316.9 199.45C317.2 199.717 317.35 200.167 317.35 200.8V206.75C317.35 207.383 317.2 207.85 316.9 208.15C316.633 208.417 316.183 208.55 315.55 208.55H302.8V213.75H311.5C312.133 213.75 312.583 213.9 312.85 214.2C313.15 214.467 313.3 214.917 313.3 215.55V221.55C313.3 222.183 313.15 222.65 312.85 222.95C312.583 223.217 312.133 223.35 311.5 223.35H302.8V233.2C302.8 233.833 302.65 234.3 302.35 234.6C302.083 234.867 301.633 235 301 235Z"/>
</mask>
<path d="M301 235H293.25C292.617 235 292.15 234.867 291.85 234.6C291.583 234.3 291.45 233.833 291.45 233.2V200.8C291.45 200.167 291.583 199.717 291.85 199.45C292.15 199.15 292.617 199 293.25 199H315.55C316.183 199 316.633 199.15 316.9 199.45C317.2 199.717 317.35 200.167 317.35 200.8V206.75C317.35 207.383 317.2 207.85 316.9 208.15C316.633 208.417 316.183 208.55 315.55 208.55H302.8V213.75H311.5C312.133 213.75 312.583 213.9 312.85 214.2C313.15 214.467 313.3 214.917 313.3 215.55V221.55C313.3 222.183 313.15 222.65 312.85 222.95C312.583 223.217 312.133 223.35 311.5 223.35H302.8V233.2C302.8 233.833 302.65 234.3 302.35 234.6C302.083 234.867 301.633 235 301 235Z" fill="#3555FD"/>
<path d="M291.85 234.6L291.103 235.264L291.142 235.308L291.186 235.347L291.85 234.6ZM291.85 199.45L291.143 198.743H291.143L291.85 199.45ZM316.9 199.45L316.153 200.114L316.192 200.158L316.236 200.197L316.9 199.45ZM302.8 208.55V207.55H301.8V208.55H302.8ZM302.8 213.75H301.8V214.75H302.8V213.75ZM312.85 214.2L312.103 214.864L312.142 214.908L312.186 214.947L312.85 214.2ZM312.85 222.95L312.143 222.243L312.143 222.243L312.85 222.95ZM302.8 223.35V222.35H301.8V223.35H302.8ZM302.35 234.6L301.643 233.893H301.643L302.35 234.6ZM301 234H293.25V236H301V234ZM293.25 234C292.727 234 292.551 233.885 292.514 233.853L291.186 235.347C291.749 235.848 292.506 236 293.25 236V234ZM292.597 233.936C292.565 233.899 292.45 233.723 292.45 233.2H290.45C290.45 233.944 290.602 234.701 291.103 235.264L292.597 233.936ZM292.45 233.2V200.8H290.45V233.2H292.45ZM292.45 200.8C292.45 200.548 292.477 200.379 292.509 200.272C292.54 200.168 292.567 200.147 292.557 200.157L291.143 198.743C290.596 199.29 290.45 200.071 290.45 200.8H292.45ZM292.557 200.157C292.595 200.12 292.752 200 293.25 200V198C292.481 198 291.705 198.18 291.143 198.743L292.557 200.157ZM293.25 200H315.55V198H293.25V200ZM315.55 200C315.793 200 315.951 200.029 316.046 200.061C316.092 200.076 316.119 200.091 316.134 200.1C316.148 200.109 316.152 200.114 316.153 200.114L317.647 198.786C317.105 198.175 316.306 198 315.55 198V200ZM316.236 200.197C316.236 200.198 316.241 200.202 316.25 200.216C316.259 200.231 316.274 200.258 316.289 200.304C316.321 200.399 316.35 200.557 316.35 200.8H318.35C318.35 200.044 318.175 199.245 317.564 198.703L316.236 200.197ZM316.35 200.8V206.75H318.35V200.8H316.35ZM316.35 206.75C316.35 207.248 316.23 207.405 316.193 207.443L317.607 208.857C318.17 208.295 318.35 207.519 318.35 206.75H316.35ZM316.193 207.443C316.203 207.433 316.182 207.46 316.078 207.491C315.971 207.523 315.802 207.55 315.55 207.55V209.55C316.279 209.55 317.06 209.404 317.607 208.857L316.193 207.443ZM315.55 207.55H302.8V209.55H315.55V207.55ZM301.8 208.55V213.75H303.8V208.55H301.8ZM302.8 214.75H311.5V212.75H302.8V214.75ZM311.5 214.75C311.743 214.75 311.901 214.779 311.996 214.811C312.042 214.826 312.069 214.841 312.084 214.85C312.098 214.859 312.102 214.864 312.103 214.864L313.597 213.536C313.055 212.925 312.256 212.75 311.5 212.75V214.75ZM312.186 214.947C312.186 214.948 312.191 214.952 312.2 214.966C312.209 214.981 312.224 215.008 312.239 215.054C312.271 215.149 312.3 215.307 312.3 215.55H314.3C314.3 214.794 314.125 213.995 313.514 213.453L312.186 214.947ZM312.3 215.55V221.55H314.3V215.55H312.3ZM312.3 221.55C312.3 222.048 312.18 222.205 312.143 222.243L313.557 223.657C314.12 223.095 314.3 222.319 314.3 221.55H312.3ZM312.143 222.243C312.153 222.233 312.132 222.26 312.028 222.291C311.921 222.323 311.752 222.35 311.5 222.35V224.35C312.229 224.35 313.01 224.204 313.557 223.657L312.143 222.243ZM311.5 222.35H302.8V224.35H311.5V222.35ZM301.8 223.35V233.2H303.8V223.35H301.8ZM301.8 233.2C301.8 233.698 301.68 233.855 301.643 233.893L303.057 235.307C303.62 234.745 303.8 233.969 303.8 233.2H301.8ZM301.643 233.893C301.653 233.883 301.632 233.91 301.528 233.941C301.421 233.973 301.252 234 301 234V236C301.729 236 302.51 235.854 303.057 235.307L301.643 233.893Z" fill="white" mask="url(#path-7-outside-2_97_166)"/>
</svg>
