<svg width="600" height="600" viewBox="0 0 600 600" fill="none" xmlns="http://www.w3.org/2000/svg">
<mask id="path-1-outside-1_128_772" maskUnits="userSpaceOnUse" x="297.507" y="277.005" width="34" height="38" fill="black">
<rect fill="white" x="297.507" y="277.005" width="34" height="38"/>
<path d="M319.957 314.005H300.757C300.124 314.005 299.657 313.872 299.357 313.605C299.091 313.305 298.957 312.838 298.957 312.205V279.805C298.957 279.172 299.091 278.722 299.357 278.455C299.657 278.155 300.124 278.005 300.757 278.005H316.707C319.974 278.005 322.391 278.638 323.957 279.905C325.524 281.138 326.307 283.055 326.307 285.655V288.055C326.307 289.455 326.057 290.605 325.557 291.505C325.091 292.372 324.357 293.022 323.357 293.455C325.491 293.655 327.074 294.388 328.107 295.655C329.141 296.922 329.657 298.772 329.657 301.205V305.805C329.657 308.605 328.857 310.672 327.257 312.005C325.691 313.338 323.257 314.005 319.957 314.005ZM310.207 286.505V291.905H314.457C315.091 291.905 315.557 291.738 315.857 291.405C316.191 291.072 316.357 290.572 316.357 289.905V288.505C316.357 287.838 316.191 287.338 315.857 287.005C315.557 286.672 315.091 286.505 314.457 286.505H310.207ZM310.207 299.605V305.505H316.707C317.341 305.505 317.807 305.338 318.107 305.005C318.441 304.672 318.607 304.172 318.607 303.505V301.555C318.607 300.888 318.441 300.405 318.107 300.105C317.807 299.772 317.341 299.605 316.707 299.605H310.207Z"/>
</mask>
<path d="M299.357 313.605L298.61 314.269L298.649 314.313L298.693 314.352L299.357 313.605ZM299.357 278.455L298.65 277.748L298.65 277.748L299.357 278.455ZM323.957 279.905L323.329 280.683L323.339 280.691L323.957 279.905ZM325.557 291.505L324.683 291.019L324.677 291.031L325.557 291.505ZM323.357 293.455L322.96 292.537L323.264 294.451L323.357 293.455ZM328.107 295.655L327.333 296.287L327.333 296.287L328.107 295.655ZM327.257 312.005L326.617 311.237L326.609 311.243L327.257 312.005ZM310.207 286.505V285.505H309.207V286.505H310.207ZM310.207 291.905H309.207V292.905H310.207V291.905ZM315.857 291.405L315.15 290.698L315.132 290.716L315.114 290.736L315.857 291.405ZM315.857 287.005L315.114 287.674L315.132 287.693L315.15 287.712L315.857 287.005ZM310.207 299.605V298.605H309.207V299.605H310.207ZM310.207 305.505H309.207V306.505H310.207V305.505ZM318.107 305.005L317.4 304.298L317.382 304.316L317.364 304.336L318.107 305.005ZM318.107 300.105L317.364 300.774L317.399 300.813L317.438 300.848L318.107 300.105ZM319.957 313.005H300.757V315.005H319.957V313.005ZM300.757 313.005C300.234 313.005 300.058 312.89 300.022 312.857L298.693 314.352C299.257 314.853 300.014 315.005 300.757 315.005V313.005ZM300.105 312.941C300.072 312.904 299.957 312.728 299.957 312.205H297.957C297.957 312.948 298.109 313.706 298.61 314.269L300.105 312.941ZM299.957 312.205V279.805H297.957V312.205H299.957ZM299.957 279.805C299.957 279.553 299.985 279.383 300.016 279.276C300.047 279.173 300.074 279.152 300.065 279.162L298.65 277.748C298.103 278.295 297.957 279.076 297.957 279.805H299.957ZM300.065 279.162C300.102 279.125 300.26 279.005 300.757 279.005V277.005C299.988 277.005 299.213 277.185 298.65 277.748L300.065 279.162ZM300.757 279.005H316.707V277.005H300.757V279.005ZM316.707 279.005C319.877 279.005 322.021 279.625 323.329 280.683L324.586 279.127C322.761 277.651 320.071 277.005 316.707 277.005V279.005ZM323.339 280.691C324.595 281.68 325.307 283.26 325.307 285.655H327.307C327.307 282.849 326.453 280.597 324.576 279.119L323.339 280.691ZM325.307 285.655V288.055H327.307V285.655H325.307ZM325.307 288.055C325.307 289.343 325.076 290.312 324.683 291.019L326.432 291.991C327.039 290.898 327.307 289.566 327.307 288.055H325.307ZM324.677 291.031C324.328 291.678 323.777 292.183 322.96 292.537L323.755 294.372C324.938 293.86 325.853 293.065 326.438 291.979L324.677 291.031ZM323.264 294.451C325.217 294.634 326.516 295.287 327.333 296.287L328.882 295.023C327.632 293.49 325.764 292.676 323.451 292.459L323.264 294.451ZM327.333 296.287C328.164 297.306 328.657 298.893 328.657 301.205H330.657C330.657 298.65 330.118 296.537 328.882 295.023L327.333 296.287ZM328.657 301.205V305.805H330.657V301.205H328.657ZM328.657 305.805C328.657 308.417 327.917 310.153 326.617 311.237L327.898 312.773C329.798 311.19 330.657 308.793 330.657 305.805H328.657ZM326.609 311.243C325.305 312.354 323.155 313.005 319.957 313.005V315.005C323.36 315.005 326.077 314.323 327.906 312.766L326.609 311.243ZM309.207 286.505V291.905H311.207V286.505H309.207ZM310.207 292.905H314.457V290.905H310.207V292.905ZM314.457 292.905C315.254 292.905 316.043 292.693 316.601 292.074L315.114 290.736C315.072 290.783 314.928 290.905 314.457 290.905V292.905ZM316.565 292.112C317.152 291.525 317.357 290.726 317.357 289.905H315.357C315.357 290.417 315.23 290.618 315.15 290.698L316.565 292.112ZM317.357 289.905V288.505H315.357V289.905H317.357ZM317.357 288.505C317.357 287.684 317.152 286.885 316.565 286.298L315.15 287.712C315.23 287.792 315.357 287.992 315.357 288.505H317.357ZM316.601 286.336C316.043 285.717 315.254 285.505 314.457 285.505V287.505C314.928 287.505 315.072 287.627 315.114 287.674L316.601 286.336ZM314.457 285.505H310.207V287.505H314.457V285.505ZM309.207 299.605V305.505H311.207V299.605H309.207ZM310.207 306.505H316.707V304.505H310.207V306.505ZM316.707 306.505C317.504 306.505 318.293 306.293 318.851 305.674L317.364 304.336C317.322 304.383 317.178 304.505 316.707 304.505V306.505ZM318.815 305.712C319.402 305.125 319.607 304.326 319.607 303.505H317.607C317.607 304.017 317.48 304.218 317.4 304.298L318.815 305.712ZM319.607 303.505V301.555H317.607V303.505H319.607ZM319.607 301.555C319.607 300.744 319.405 299.928 318.776 299.362L317.438 300.848C317.476 300.882 317.607 301.033 317.607 301.555H319.607ZM318.851 299.436C318.293 298.817 317.504 298.605 316.707 298.605V300.605C317.178 300.605 317.322 300.727 317.364 300.774L318.851 299.436ZM316.707 298.605H310.207V300.605H316.707V298.605Z" fill="white" mask="url(#path-1-outside-1_128_772)"/>
<mask id="path-3-outside-2_128_772" maskUnits="userSpaceOnUse" x="284.529" y="167.005" width="34" height="38" fill="black">
<rect fill="white" x="284.529" y="167.005" width="34" height="38"/>
<path d="M306.979 204.005H287.779C287.146 204.005 286.679 203.872 286.379 203.605C286.112 203.305 285.979 202.838 285.979 202.205V169.805C285.979 169.172 286.112 168.722 286.379 168.455C286.679 168.155 287.146 168.005 287.779 168.005H303.729C306.996 168.005 309.412 168.638 310.979 169.905C312.546 171.138 313.329 173.055 313.329 175.655V178.055C313.329 179.455 313.079 180.605 312.579 181.505C312.112 182.372 311.379 183.022 310.379 183.455C312.512 183.655 314.096 184.388 315.129 185.655C316.162 186.922 316.679 188.772 316.679 191.205V195.805C316.679 198.605 315.879 200.672 314.279 202.005C312.712 203.338 310.279 204.005 306.979 204.005ZM297.229 176.505V181.905H301.479C302.112 181.905 302.579 181.738 302.879 181.405C303.212 181.072 303.379 180.572 303.379 179.905V178.505C303.379 177.838 303.212 177.338 302.879 177.005C302.579 176.672 302.112 176.505 301.479 176.505H297.229ZM297.229 189.605V195.505H303.729C304.362 195.505 304.829 195.338 305.129 195.005C305.462 194.672 305.629 194.172 305.629 193.505V191.555C305.629 190.888 305.462 190.405 305.129 190.105C304.829 189.772 304.362 189.605 303.729 189.605H297.229Z"/>
</mask>
<path d="M286.379 203.605L285.632 204.269L285.671 204.313L285.715 204.352L286.379 203.605ZM286.379 168.455L285.672 167.748L285.672 167.748L286.379 168.455ZM310.979 169.905L310.35 170.683L310.36 170.691L310.979 169.905ZM312.579 181.505L311.705 181.019L311.699 181.031L312.579 181.505ZM310.379 183.455L309.981 182.537L310.286 184.451L310.379 183.455ZM315.129 185.655L314.354 186.287L314.354 186.287L315.129 185.655ZM314.279 202.005L313.639 201.237L313.631 201.243L314.279 202.005ZM297.229 176.505V175.505H296.229V176.505H297.229ZM297.229 181.905H296.229V182.905H297.229V181.905ZM302.879 181.405L302.172 180.698L302.153 180.716L302.136 180.736L302.879 181.405ZM302.879 177.005L302.136 177.674L302.153 177.693L302.172 177.712L302.879 177.005ZM297.229 189.605V188.605H296.229V189.605H297.229ZM297.229 195.505H296.229V196.505H297.229V195.505ZM305.129 195.005L304.422 194.298L304.403 194.316L304.386 194.336L305.129 195.005ZM305.129 190.105L304.386 190.774L304.421 190.813L304.46 190.848L305.129 190.105ZM306.979 203.005H287.779V205.005H306.979V203.005ZM287.779 203.005C287.256 203.005 287.08 202.89 287.043 202.857L285.715 204.352C286.278 204.853 287.035 205.005 287.779 205.005V203.005ZM287.126 202.941C287.094 202.904 286.979 202.728 286.979 202.205H284.979C284.979 202.948 285.131 203.706 285.632 204.269L287.126 202.941ZM286.979 202.205V169.805H284.979V202.205H286.979ZM286.979 169.805C286.979 169.553 287.006 169.383 287.038 169.276C287.069 169.173 287.096 169.152 287.086 169.162L285.672 167.748C285.125 168.295 284.979 169.076 284.979 169.805H286.979ZM287.086 169.162C287.124 169.125 287.282 169.005 287.779 169.005V167.005C287.01 167.005 286.235 167.185 285.672 167.748L287.086 169.162ZM287.779 169.005H303.729V167.005H287.779V169.005ZM303.729 169.005C306.899 169.005 309.043 169.625 310.35 170.683L311.608 169.127C309.782 167.651 307.092 167.005 303.729 167.005V169.005ZM310.36 170.691C311.617 171.68 312.329 173.26 312.329 175.655H314.329C314.329 172.849 313.475 170.597 311.598 169.119L310.36 170.691ZM312.329 175.655V178.055H314.329V175.655H312.329ZM312.329 178.055C312.329 179.343 312.098 180.312 311.705 181.019L313.453 181.991C314.06 180.898 314.329 179.566 314.329 178.055H312.329ZM311.699 181.031C311.35 181.678 310.799 182.183 309.981 182.537L310.777 184.372C311.959 183.86 312.875 183.065 313.46 181.979L311.699 181.031ZM310.286 184.451C312.239 184.634 313.538 185.287 314.354 186.287L315.904 185.023C314.653 183.49 312.786 182.676 310.472 182.459L310.286 184.451ZM314.354 186.287C315.186 187.306 315.679 188.893 315.679 191.205H317.679C317.679 188.65 317.139 186.537 315.904 185.023L314.354 186.287ZM315.679 191.205V195.805H317.679V191.205H315.679ZM315.679 195.805C315.679 198.417 314.939 200.153 313.639 201.237L314.919 202.773C316.819 201.19 317.679 198.793 317.679 195.805H315.679ZM313.631 201.243C312.326 202.354 310.176 203.005 306.979 203.005V205.005C310.382 205.005 313.098 204.323 314.927 202.766L313.631 201.243ZM296.229 176.505V181.905H298.229V176.505H296.229ZM297.229 182.905H301.479V180.905H297.229V182.905ZM301.479 182.905C302.276 182.905 303.065 182.693 303.622 182.074L302.136 180.736C302.093 180.783 301.949 180.905 301.479 180.905V182.905ZM303.586 182.112C304.173 181.525 304.379 180.726 304.379 179.905H302.379C302.379 180.417 302.252 180.618 302.172 180.698L303.586 182.112ZM304.379 179.905V178.505H302.379V179.905H304.379ZM304.379 178.505C304.379 177.684 304.173 176.885 303.586 176.298L302.172 177.712C302.252 177.792 302.379 177.992 302.379 178.505H304.379ZM303.622 176.336C303.065 175.717 302.276 175.505 301.479 175.505V177.505C301.949 177.505 302.093 177.627 302.136 177.674L303.622 176.336ZM301.479 175.505H297.229V177.505H301.479V175.505ZM296.229 189.605V195.505H298.229V189.605H296.229ZM297.229 196.505H303.729V194.505H297.229V196.505ZM303.729 196.505C304.526 196.505 305.315 196.293 305.872 195.674L304.386 194.336C304.343 194.383 304.199 194.505 303.729 194.505V196.505ZM305.836 195.712C306.423 195.125 306.629 194.326 306.629 193.505H304.629C304.629 194.017 304.502 194.218 304.422 194.298L305.836 195.712ZM306.629 193.505V191.555H304.629V193.505H306.629ZM306.629 191.555C306.629 190.744 306.427 189.928 305.798 189.362L304.46 190.848C304.498 190.882 304.629 191.033 304.629 191.555H306.629ZM305.872 189.436C305.315 188.817 304.526 188.605 303.729 188.605V190.605C304.199 190.605 304.343 190.727 304.386 190.774L305.872 189.436ZM303.729 188.605H297.229V190.605H303.729V188.605Z" fill="white" mask="url(#path-3-outside-2_128_772)"/>
<rect x="1" y="1.00488" width="597.002" height="598" stroke="black" stroke-width="2" stroke-dasharray="7 7"/>
<rect y="0.00488281" width="599.002" height="450" fill="#3555FD"/>
<path d="M300 450.005V210.005L599.501 210.204L300 450.005Z" fill="#011580"/>
<path d="M599.002 210.005V450.005H299.501L599.002 210.005Z" fill="white"/>
<path d="M599.002 213.505L598.003 457.009" stroke="black" stroke-width="2" stroke-dasharray="8 8"/>
<path d="M299.499 209.005H390.999L390.5 377.005H299.499V209.005Z" fill="#3555FD" fill-opacity="0.67"/>
<path d="M390.577 377.005L299.503 450.005L299 377.005H390.577Z" fill="#3555FD" fill-opacity="0.67"/>
<path d="M298.502 0L300.499 450" stroke="white" stroke-opacity="0.78" stroke-width="2" stroke-dasharray="33 33"/>
<path d="M599.001 210.005H299.001" stroke="white" stroke-opacity="0.78" stroke-width="2" stroke-dasharray="33 33"/>
<path d="M391 377.005L391 210.005" stroke="white" stroke-opacity="0.78" stroke-width="2" stroke-dasharray="33 33"/>
<mask id="path-15-outside-3_128_772" maskUnits="userSpaceOnUse" x="291" y="96.0049" width="29" height="38" fill="black">
<rect fill="white" x="291" y="96.0049" width="29" height="38"/>
<path d="M302 133.005H294.25C293.617 133.005 293.15 132.872 292.85 132.605C292.583 132.305 292.45 131.838 292.45 131.205V98.8049C292.45 98.1715 292.583 97.7215 292.85 97.4549C293.15 97.1549 293.617 97.0049 294.25 97.0049H316.55C317.183 97.0049 317.633 97.1549 317.9 97.4549C318.2 97.7215 318.35 98.1715 318.35 98.8049V104.755C318.35 105.388 318.2 105.855 317.9 106.155C317.633 106.422 317.183 106.555 316.55 106.555H303.8V111.755H312.5C313.133 111.755 313.583 111.905 313.85 112.205C314.15 112.472 314.3 112.922 314.3 113.555V119.555C314.3 120.188 314.15 120.655 313.85 120.955C313.583 121.222 313.133 121.355 312.5 121.355H303.8V131.205C303.8 131.838 303.65 132.305 303.35 132.605C303.083 132.872 302.633 133.005 302 133.005Z"/>
</mask>
<path d="M302 133.005H294.25C293.617 133.005 293.15 132.872 292.85 132.605C292.583 132.305 292.45 131.838 292.45 131.205V98.8049C292.45 98.1715 292.583 97.7215 292.85 97.4549C293.15 97.1549 293.617 97.0049 294.25 97.0049H316.55C317.183 97.0049 317.633 97.1549 317.9 97.4549C318.2 97.7215 318.35 98.1715 318.35 98.8049V104.755C318.35 105.388 318.2 105.855 317.9 106.155C317.633 106.422 317.183 106.555 316.55 106.555H303.8V111.755H312.5C313.133 111.755 313.583 111.905 313.85 112.205C314.15 112.472 314.3 112.922 314.3 113.555V119.555C314.3 120.188 314.15 120.655 313.85 120.955C313.583 121.222 313.133 121.355 312.5 121.355H303.8V131.205C303.8 131.838 303.65 132.305 303.35 132.605C303.083 132.872 302.633 133.005 302 133.005Z" fill="#3555FD"/>
<path d="M292.85 132.605L292.103 133.269L292.142 133.313L292.186 133.352L292.85 132.605ZM292.85 97.4549L292.143 96.7478L292.143 96.7478L292.85 97.4549ZM317.9 97.4549L317.153 98.1192L317.192 98.1632L317.236 98.2023L317.9 97.4549ZM303.8 106.555V105.555H302.8V106.555H303.8ZM303.8 111.755H302.8V112.755H303.8V111.755ZM313.85 112.205L313.103 112.869L313.142 112.913L313.186 112.952L313.85 112.205ZM313.85 120.955L313.143 120.248L313.143 120.248L313.85 120.955ZM303.8 121.355V120.355H302.8V121.355H303.8ZM303.35 132.605L302.643 131.898L302.643 131.898L303.35 132.605ZM302 132.005H294.25V134.005H302V132.005ZM294.25 132.005C293.727 132.005 293.551 131.89 293.514 131.857L292.186 133.352C292.749 133.853 293.506 134.005 294.25 134.005V132.005ZM293.597 131.941C293.565 131.904 293.45 131.728 293.45 131.205H291.45C291.45 131.948 291.602 132.706 292.103 133.269L293.597 131.941ZM293.45 131.205V98.8049H291.45V131.205H293.45ZM293.45 98.8049C293.45 98.5532 293.477 98.3835 293.509 98.2765C293.54 98.1728 293.567 98.1521 293.557 98.162L292.143 96.7478C291.596 97.2951 291.45 98.0761 291.45 98.8049H293.45ZM293.557 98.162C293.595 98.1246 293.752 98.0049 294.25 98.0049V96.0049C293.481 96.0049 292.705 96.1852 292.143 96.7478L293.557 98.162ZM294.25 98.0049H316.55V96.0049H294.25V98.0049ZM316.55 98.0049C316.793 98.0049 316.951 98.0343 317.046 98.0661C317.092 98.0813 317.119 98.0958 317.134 98.1049C317.148 98.1135 317.152 98.1187 317.153 98.1192L318.647 96.7905C318.105 96.1798 317.306 96.0049 316.55 96.0049V98.0049ZM317.236 98.2023C317.236 98.2028 317.241 98.2073 317.25 98.221C317.259 98.2355 317.274 98.2628 317.289 98.3086C317.321 98.4039 317.35 98.562 317.35 98.8049H319.35C319.35 98.0487 319.175 97.2503 318.564 96.7075L317.236 98.2023ZM317.35 98.8049V104.755H319.35V98.8049H317.35ZM317.35 104.755C317.35 105.252 317.23 105.41 317.193 105.448L318.607 106.862C319.17 106.299 319.35 105.524 319.35 104.755H317.35ZM317.193 105.448C317.203 105.438 317.182 105.465 317.078 105.496C316.971 105.528 316.802 105.555 316.55 105.555V107.555C317.279 107.555 318.06 107.409 318.607 106.862L317.193 105.448ZM316.55 105.555H303.8V107.555H316.55V105.555ZM302.8 106.555V111.755H304.8V106.555H302.8ZM303.8 112.755H312.5V110.755H303.8V112.755ZM312.5 112.755C312.743 112.755 312.901 112.784 312.996 112.816C313.042 112.831 313.069 112.846 313.084 112.855C313.098 112.864 313.102 112.869 313.103 112.869L314.597 111.541C314.055 110.93 313.256 110.755 312.5 110.755V112.755ZM313.186 112.952C313.186 112.953 313.191 112.957 313.2 112.971C313.209 112.986 313.224 113.013 313.239 113.059C313.271 113.154 313.3 113.312 313.3 113.555H315.3C315.3 112.799 315.125 112 314.514 111.457L313.186 112.952ZM313.3 113.555V119.555H315.3V113.555H313.3ZM313.3 119.555C313.3 120.052 313.18 120.21 313.143 120.248L314.557 121.662C315.12 121.099 315.3 120.324 315.3 119.555H313.3ZM313.143 120.248C313.153 120.238 313.132 120.265 313.028 120.296C312.921 120.328 312.752 120.355 312.5 120.355V122.355C313.229 122.355 314.01 122.209 314.557 121.662L313.143 120.248ZM312.5 120.355H303.8V122.355H312.5V120.355ZM302.8 121.355V131.205H304.8V121.355H302.8ZM302.8 131.205C302.8 131.702 302.68 131.86 302.643 131.898L304.057 133.312C304.62 132.749 304.8 131.974 304.8 131.205H302.8ZM302.643 131.898C302.653 131.888 302.632 131.915 302.528 131.946C302.421 131.978 302.252 132.005 302 132.005V134.005C302.729 134.005 303.51 133.859 304.057 133.312L302.643 131.898Z" fill="white" mask="url(#path-15-outside-3_128_772)"/>
<rect width="1" height="1" transform="matrix(1 0 0 -1 599 211.005)" fill="white"/>
</svg>
