<svg width="601" height="600" viewBox="0 0 601 600" fill="none" xmlns="http://www.w3.org/2000/svg">
<mask id="path-1-outside-1_127_42" maskUnits="userSpaceOnUse" x="298.607" y="277.005" width="34" height="38" fill="black">
<rect fill="white" x="298.607" y="277.005" width="34" height="38"/>
<path d="M321.057 314.005H301.857C301.224 314.005 300.757 313.872 300.457 313.605C300.19 313.305 300.057 312.838 300.057 312.205V279.805C300.057 279.172 300.19 278.722 300.457 278.455C300.757 278.155 301.224 278.005 301.857 278.005H317.807C321.074 278.005 323.49 278.638 325.057 279.905C326.624 281.138 327.407 283.055 327.407 285.655V288.055C327.407 289.455 327.157 290.605 326.657 291.505C326.19 292.372 325.457 293.022 324.457 293.455C326.59 293.655 328.174 294.388 329.207 295.655C330.24 296.922 330.757 298.772 330.757 301.205V305.805C330.757 308.605 329.957 310.672 328.357 312.005C326.79 313.338 324.357 314.005 321.057 314.005ZM311.307 286.505V291.905H315.557C316.19 291.905 316.657 291.738 316.957 291.405C317.29 291.072 317.457 290.572 317.457 289.905V288.505C317.457 287.838 317.29 287.338 316.957 287.005C316.657 286.672 316.19 286.505 315.557 286.505H311.307ZM311.307 299.605V305.505H317.807C318.44 305.505 318.907 305.338 319.207 305.005C319.54 304.672 319.707 304.172 319.707 303.505V301.555C319.707 300.888 319.54 300.405 319.207 300.105C318.907 299.772 318.44 299.605 317.807 299.605H311.307Z"/>
</mask>
<path d="M300.457 313.605L299.71 314.269L299.749 314.313L299.793 314.352L300.457 313.605ZM300.457 278.455L299.75 277.748L299.75 277.748L300.457 278.455ZM325.057 279.905L324.428 280.683L324.438 280.691L325.057 279.905ZM326.657 291.505L325.783 291.019L325.776 291.031L326.657 291.505ZM324.457 293.455L324.059 292.537L324.364 294.451L324.457 293.455ZM329.207 295.655L328.432 296.287L328.432 296.287L329.207 295.655ZM328.357 312.005L327.717 311.237L327.709 311.243L328.357 312.005ZM311.307 286.505V285.505H310.307V286.505H311.307ZM311.307 291.905H310.307V292.905H311.307V291.905ZM316.957 291.405L316.25 290.698L316.231 290.716L316.214 290.736L316.957 291.405ZM316.957 287.005L316.214 287.674L316.231 287.693L316.25 287.712L316.957 287.005ZM311.307 299.605V298.605H310.307V299.605H311.307ZM311.307 305.505H310.307V306.505H311.307V305.505ZM319.207 305.005L318.5 304.298L318.481 304.316L318.464 304.336L319.207 305.005ZM319.207 300.105L318.464 300.774L318.499 300.813L318.538 300.848L319.207 300.105ZM321.057 313.005H301.857V315.005H321.057V313.005ZM301.857 313.005C301.334 313.005 301.158 312.89 301.121 312.857L299.793 314.352C300.356 314.853 301.113 315.005 301.857 315.005V313.005ZM301.204 312.941C301.172 312.904 301.057 312.728 301.057 312.205H299.057C299.057 312.948 299.209 313.706 299.71 314.269L301.204 312.941ZM301.057 312.205V279.805H299.057V312.205H301.057ZM301.057 279.805C301.057 279.553 301.084 279.383 301.116 279.276C301.146 279.173 301.174 279.152 301.164 279.162L299.75 277.748C299.203 278.295 299.057 279.076 299.057 279.805H301.057ZM301.164 279.162C301.201 279.125 301.359 279.005 301.857 279.005V277.005C301.088 277.005 300.312 277.185 299.75 277.748L301.164 279.162ZM301.857 279.005H317.807V277.005H301.857V279.005ZM317.807 279.005C320.977 279.005 323.121 279.625 324.428 280.683L325.686 279.127C323.86 277.651 321.17 277.005 317.807 277.005V279.005ZM324.438 280.691C325.695 281.68 326.407 283.26 326.407 285.655H328.407C328.407 282.849 327.553 280.597 325.675 279.119L324.438 280.691ZM326.407 285.655V288.055H328.407V285.655H326.407ZM326.407 288.055C326.407 289.343 326.176 290.312 325.783 291.019L327.531 291.991C328.138 290.898 328.407 289.566 328.407 288.055H326.407ZM325.776 291.031C325.428 291.678 324.877 292.183 324.059 292.537L324.855 294.372C326.037 293.86 326.953 293.065 327.537 291.979L325.776 291.031ZM324.364 294.451C326.317 294.634 327.616 295.287 328.432 296.287L329.982 295.023C328.731 293.49 326.864 292.676 324.55 292.459L324.364 294.451ZM328.432 296.287C329.264 297.306 329.757 298.893 329.757 301.205H331.757C331.757 298.65 331.217 296.537 329.982 295.023L328.432 296.287ZM329.757 301.205V305.805H331.757V301.205H329.757ZM329.757 305.805C329.757 308.417 329.017 310.153 327.717 311.237L328.997 312.773C330.897 311.19 331.757 308.793 331.757 305.805H329.757ZM327.709 311.243C326.404 312.354 324.254 313.005 321.057 313.005V315.005C324.46 315.005 327.176 314.323 329.005 312.766L327.709 311.243ZM310.307 286.505V291.905H312.307V286.505H310.307ZM311.307 292.905H315.557V290.905H311.307V292.905ZM315.557 292.905C316.354 292.905 317.143 292.693 317.7 292.074L316.214 290.736C316.171 290.783 316.027 290.905 315.557 290.905V292.905ZM317.664 292.112C318.251 291.525 318.457 290.726 318.457 289.905H316.457C316.457 290.417 316.329 290.618 316.25 290.698L317.664 292.112ZM318.457 289.905V288.505H316.457V289.905H318.457ZM318.457 288.505C318.457 287.684 318.251 286.885 317.664 286.298L316.25 287.712C316.329 287.792 316.457 287.992 316.457 288.505H318.457ZM317.7 286.336C317.143 285.717 316.354 285.505 315.557 285.505V287.505C316.027 287.505 316.171 287.627 316.214 287.674L317.7 286.336ZM315.557 285.505H311.307V287.505H315.557V285.505ZM310.307 299.605V305.505H312.307V299.605H310.307ZM311.307 306.505H317.807V304.505H311.307V306.505ZM317.807 306.505C318.604 306.505 319.393 306.293 319.95 305.674L318.464 304.336C318.421 304.383 318.277 304.505 317.807 304.505V306.505ZM319.914 305.712C320.501 305.125 320.707 304.326 320.707 303.505H318.707C318.707 304.017 318.579 304.218 318.5 304.298L319.914 305.712ZM320.707 303.505V301.555H318.707V303.505H320.707ZM320.707 301.555C320.707 300.744 320.505 299.928 319.876 299.362L318.538 300.848C318.576 300.882 318.707 301.033 318.707 301.555H320.707ZM319.95 299.436C319.393 298.817 318.604 298.605 317.807 298.605V300.605C318.277 300.605 318.421 300.727 318.464 300.774L319.95 299.436ZM317.807 298.605H311.307V300.605H317.807V298.605Z" fill="white" mask="url(#path-1-outside-1_127_42)"/>
<mask id="path-3-outside-2_127_42" maskUnits="userSpaceOnUse" x="285.646" y="167.005" width="34" height="38" fill="black">
<rect fill="white" x="285.646" y="167.005" width="34" height="38"/>
<path d="M308.096 204.005H288.896C288.263 204.005 287.796 203.872 287.496 203.605C287.23 203.305 287.096 202.838 287.096 202.205V169.805C287.096 169.172 287.23 168.722 287.496 168.455C287.796 168.155 288.263 168.005 288.896 168.005H304.846C308.113 168.005 310.53 168.638 312.096 169.905C313.663 171.138 314.446 173.055 314.446 175.655V178.055C314.446 179.455 314.196 180.605 313.696 181.505C313.23 182.372 312.496 183.022 311.496 183.455C313.63 183.655 315.213 184.388 316.246 185.655C317.28 186.922 317.796 188.772 317.796 191.205V195.805C317.796 198.605 316.996 200.672 315.396 202.005C313.83 203.338 311.396 204.005 308.096 204.005ZM298.346 176.505V181.905H302.596C303.23 181.905 303.696 181.738 303.996 181.405C304.33 181.072 304.496 180.572 304.496 179.905V178.505C304.496 177.838 304.33 177.338 303.996 177.005C303.696 176.672 303.23 176.505 302.596 176.505H298.346ZM298.346 189.605V195.505H304.846C305.48 195.505 305.946 195.338 306.246 195.005C306.58 194.672 306.746 194.172 306.746 193.505V191.555C306.746 190.888 306.58 190.405 306.246 190.105C305.946 189.772 305.48 189.605 304.846 189.605H298.346Z"/>
</mask>
<path d="M287.496 203.605L286.749 204.269L286.788 204.313L286.832 204.352L287.496 203.605ZM287.496 168.455L286.789 167.748L286.789 167.748L287.496 168.455ZM312.096 169.905L311.468 170.683L311.478 170.691L312.096 169.905ZM313.696 181.505L312.822 181.019L312.816 181.031L313.696 181.505ZM311.496 183.455L311.099 182.537L311.403 184.451L311.496 183.455ZM316.246 185.655L315.472 186.287L315.472 186.287L316.246 185.655ZM315.396 202.005L314.756 201.237L314.748 201.243L315.396 202.005ZM298.346 176.505V175.505H297.346V176.505H298.346ZM298.346 181.905H297.346V182.905H298.346V181.905ZM303.996 181.405L303.289 180.698L303.271 180.716L303.253 180.736L303.996 181.405ZM303.996 177.005L303.253 177.674L303.271 177.693L303.289 177.712L303.996 177.005ZM298.346 189.605V188.605H297.346V189.605H298.346ZM298.346 195.505H297.346V196.505H298.346V195.505ZM306.246 195.005L305.539 194.298L305.521 194.316L305.503 194.336L306.246 195.005ZM306.246 190.105L305.503 190.774L305.538 190.813L305.578 190.848L306.246 190.105ZM308.096 203.005H288.896V205.005H308.096V203.005ZM288.896 203.005C288.373 203.005 288.197 202.89 288.161 202.857L286.832 204.352C287.396 204.853 288.153 205.005 288.896 205.005V203.005ZM288.244 202.941C288.211 202.904 288.096 202.728 288.096 202.205H286.096C286.096 202.948 286.248 203.706 286.749 204.269L288.244 202.941ZM288.096 202.205V169.805H286.096V202.205H288.096ZM288.096 169.805C288.096 169.553 288.124 169.383 288.155 169.276C288.186 169.173 288.214 169.152 288.204 169.162L286.789 167.748C286.242 168.295 286.096 169.076 286.096 169.805H288.096ZM288.204 169.162C288.241 169.125 288.399 169.005 288.896 169.005V167.005C288.127 167.005 287.352 167.185 286.789 167.748L288.204 169.162ZM288.896 169.005H304.846V167.005H288.896V169.005ZM304.846 169.005C308.016 169.005 310.16 169.625 311.468 170.683L312.725 169.127C310.9 167.651 308.21 167.005 304.846 167.005V169.005ZM311.478 170.691C312.734 171.68 313.446 173.26 313.446 175.655H315.446C315.446 172.849 314.592 170.597 312.715 169.119L311.478 170.691ZM313.446 175.655V178.055H315.446V175.655H313.446ZM313.446 178.055C313.446 179.343 313.215 180.312 312.822 181.019L314.571 181.991C315.178 180.898 315.446 179.566 315.446 178.055H313.446ZM312.816 181.031C312.467 181.678 311.916 182.183 311.099 182.537L311.894 184.372C313.077 183.86 313.992 183.065 314.577 181.979L312.816 181.031ZM311.403 184.451C313.356 184.634 314.656 185.287 315.472 186.287L317.021 185.023C315.771 183.49 313.904 182.676 311.59 182.459L311.403 184.451ZM315.472 186.287C316.303 187.306 316.796 188.893 316.796 191.205H318.796C318.796 188.65 318.257 186.537 317.021 185.023L315.472 186.287ZM316.796 191.205V195.805H318.796V191.205H316.796ZM316.796 195.805C316.796 198.417 316.056 200.153 314.756 201.237L316.037 202.773C317.937 201.19 318.796 198.793 318.796 195.805H316.796ZM314.748 201.243C313.444 202.354 311.294 203.005 308.096 203.005V205.005C311.499 205.005 314.216 204.323 316.045 202.766L314.748 201.243ZM297.346 176.505V181.905H299.346V176.505H297.346ZM298.346 182.905H302.596V180.905H298.346V182.905ZM302.596 182.905C303.393 182.905 304.182 182.693 304.74 182.074L303.253 180.736C303.211 180.783 303.067 180.905 302.596 180.905V182.905ZM304.704 182.112C305.291 181.525 305.496 180.726 305.496 179.905H303.496C303.496 180.417 303.369 180.618 303.289 180.698L304.704 182.112ZM305.496 179.905V178.505H303.496V179.905H305.496ZM305.496 178.505C305.496 177.684 305.291 176.885 304.704 176.298L303.289 177.712C303.369 177.792 303.496 177.992 303.496 178.505H305.496ZM304.74 176.336C304.182 175.717 303.393 175.505 302.596 175.505V177.505C303.067 177.505 303.211 177.627 303.253 177.674L304.74 176.336ZM302.596 175.505H298.346V177.505H302.596V175.505ZM297.346 189.605V195.505H299.346V189.605H297.346ZM298.346 196.505H304.846V194.505H298.346V196.505ZM304.846 196.505C305.643 196.505 306.432 196.293 306.99 195.674L305.503 194.336C305.461 194.383 305.317 194.505 304.846 194.505V196.505ZM306.954 195.712C307.541 195.125 307.746 194.326 307.746 193.505H305.746C305.746 194.017 305.619 194.218 305.539 194.298L306.954 195.712ZM307.746 193.505V191.555H305.746V193.505H307.746ZM307.746 191.555C307.746 190.744 307.544 189.928 306.915 189.362L305.578 190.848C305.615 190.882 305.746 191.033 305.746 191.555H307.746ZM306.99 189.436C306.432 188.817 305.643 188.605 304.846 188.605V190.605C305.317 190.605 305.461 190.727 305.503 190.774L306.99 189.436ZM304.846 188.605H298.346V190.605H304.846V188.605Z" fill="white" mask="url(#path-3-outside-2_127_42)"/>
<rect x="2.50012" y="1.00488" width="596.19" height="598" stroke="black" stroke-width="2" stroke-dasharray="7 7"/>
<rect x="1.50061" y="0.00488281" width="598.19" height="450" fill="#3555FD"/>
<path d="M301.095 450V210L600.19 210.199L301.095 450Z" fill="#011580"/>
<path d="M599.69 210.005V450.005H300.595L599.69 210.005Z" fill="white"/>
<path d="M599.691 213.505L598.694 457.009" stroke="black" stroke-width="2" stroke-dasharray="8 8"/>
<path d="M300.5 209H391.5L391.004 377H300.5V209Z" fill="#3555FD" fill-opacity="0.67"/>
<path d="M391.548 377.005L300.597 450.005L300.095 377.005H391.548Z" fill="#3555FD" fill-opacity="0.67"/>
<path d="M599.691 210.005H300.098" stroke="white" stroke-opacity="0.78" stroke-width="2" stroke-dasharray="33 33"/>
<path d="M391.97 377.005L391.97 210.005" stroke="white" stroke-opacity="0.78" stroke-width="2" stroke-dasharray="33 33"/>
<path d="M300.596 449.995V209.995L1.50061 210.194L300.596 449.995Z" fill="#011580"/>
<path d="M1.00004 210V450H300.095L1.00004 210Z" fill="white"/>
<path d="M301.095 209H209.719L210.218 377H301.095V209Z" fill="#3555FD" fill-opacity="0.67"/>
<path d="M1.99902 210H301.592" stroke="white" stroke-opacity="0.78" stroke-width="2" stroke-dasharray="33 33"/>
<path d="M209.719 377L209.719 210" stroke="white" stroke-opacity="0.78" stroke-width="2" stroke-dasharray="33 33"/>
<rect width="0.998645" height="1" transform="matrix(1 0 0 -1 599.689 211.005)" fill="white"/>
<path d="M1.96838 210.996L2.50061 459" stroke="black" stroke-width="2" stroke-dasharray="8 8"/>
<path d="M209.217 377L300.588 450L301.093 377H209.217Z" fill="#3555FD" fill-opacity="0.67"/>
<path d="M299.5 0L301.494 450" stroke="white" stroke-opacity="0.78" stroke-width="2" stroke-dasharray="33 33"/>
<mask id="path-23-outside-3_127_42" maskUnits="userSpaceOnUse" x="292.5" y="84" width="29" height="38" fill="black">
<rect fill="white" x="292.5" y="84" width="29" height="38"/>
<path d="M303.5 121H295.75C295.117 121 294.65 120.867 294.35 120.6C294.084 120.3 293.95 119.833 293.95 119.2V86.8C293.95 86.1667 294.084 85.7167 294.35 85.45C294.65 85.15 295.117 85 295.75 85H318.05C318.684 85 319.134 85.15 319.4 85.45C319.7 85.7167 319.85 86.1667 319.85 86.8V92.75C319.85 93.3833 319.7 93.85 319.4 94.15C319.134 94.4167 318.684 94.55 318.05 94.55H305.3V99.75H314C314.634 99.75 315.084 99.9 315.35 100.2C315.65 100.467 315.8 100.917 315.8 101.55V107.55C315.8 108.183 315.65 108.65 315.35 108.95C315.084 109.217 314.634 109.35 314 109.35H305.3V119.2C305.3 119.833 305.15 120.3 304.85 120.6C304.584 120.867 304.134 121 303.5 121Z"/>
</mask>
<path d="M303.5 121H295.75C295.117 121 294.65 120.867 294.35 120.6C294.084 120.3 293.95 119.833 293.95 119.2V86.8C293.95 86.1667 294.084 85.7167 294.35 85.45C294.65 85.15 295.117 85 295.75 85H318.05C318.684 85 319.134 85.15 319.4 85.45C319.7 85.7167 319.85 86.1667 319.85 86.8V92.75C319.85 93.3833 319.7 93.85 319.4 94.15C319.134 94.4167 318.684 94.55 318.05 94.55H305.3V99.75H314C314.634 99.75 315.084 99.9 315.35 100.2C315.65 100.467 315.8 100.917 315.8 101.55V107.55C315.8 108.183 315.65 108.65 315.35 108.95C315.084 109.217 314.634 109.35 314 109.35H305.3V119.2C305.3 119.833 305.15 120.3 304.85 120.6C304.584 120.867 304.134 121 303.5 121Z" fill="#3555FD"/>
<path d="M294.35 120.6L293.603 121.264L293.642 121.308L293.686 121.347L294.35 120.6ZM294.35 85.45L293.643 84.7429L293.643 84.7429L294.35 85.45ZM319.4 85.45L318.653 86.1144L318.692 86.1583L318.736 86.1974L319.4 85.45ZM305.3 94.55V93.55H304.3V94.55H305.3ZM305.3 99.75H304.3V100.75H305.3V99.75ZM315.35 100.2L314.603 100.864L314.642 100.908L314.686 100.947L315.35 100.2ZM315.35 108.95L314.643 108.243L314.643 108.243L315.35 108.95ZM305.3 109.35V108.35H304.3V109.35H305.3ZM304.85 120.6L304.143 119.893L304.143 119.893L304.85 120.6ZM303.5 120H295.75V122H303.5V120ZM295.75 120C295.227 120 295.051 119.885 295.015 119.853L293.686 121.347C294.249 121.848 295.007 122 295.75 122V120ZM295.098 119.936C295.065 119.899 294.95 119.723 294.95 119.2H292.95C292.95 119.944 293.102 120.701 293.603 121.264L295.098 119.936ZM294.95 119.2V86.8H292.95V119.2H294.95ZM294.95 86.8C294.95 86.5483 294.977 86.3786 295.009 86.2716C295.04 86.1679 295.067 86.1472 295.057 86.1571L293.643 84.7429C293.096 85.2902 292.95 86.0713 292.95 86.8H294.95ZM295.057 86.1571C295.095 86.1197 295.253 86 295.75 86V84C294.981 84 294.206 84.1803 293.643 84.7429L295.057 86.1571ZM295.75 86H318.05V84H295.75V86ZM318.05 86C318.293 86 318.451 86.0294 318.547 86.0612C318.592 86.0765 318.62 86.0909 318.634 86.1C318.648 86.1087 318.652 86.1138 318.653 86.1144L320.148 84.7856C319.605 84.175 318.806 84 318.05 84V86ZM318.736 86.1974C318.736 86.1979 318.742 86.2024 318.75 86.2161C318.759 86.2306 318.774 86.2579 318.789 86.3037C318.821 86.3991 318.85 86.5571 318.85 86.8H320.85C320.85 86.0438 320.675 85.2454 320.065 84.7026L318.736 86.1974ZM318.85 86.8V92.75H320.85V86.8H318.85ZM318.85 92.75C318.85 93.2475 318.731 93.4055 318.693 93.4429L320.107 94.8571C320.67 94.2945 320.85 93.5191 320.85 92.75H318.85ZM318.693 93.4429C318.703 93.433 318.682 93.4605 318.579 93.4912C318.472 93.5229 318.302 93.55 318.05 93.55V95.55C318.779 95.55 319.56 95.4044 320.107 94.8571L318.693 93.4429ZM318.05 93.55H305.3V95.55H318.05V93.55ZM304.3 94.55V99.75H306.3V94.55H304.3ZM305.3 100.75H314V98.75H305.3V100.75ZM314 100.75C314.243 100.75 314.401 100.779 314.497 100.811C314.542 100.826 314.57 100.841 314.584 100.85C314.598 100.859 314.602 100.864 314.603 100.864L316.098 99.5356C315.555 98.925 314.756 98.75 314 98.75V100.75ZM314.686 100.947C314.686 100.948 314.692 100.952 314.7 100.966C314.709 100.981 314.724 101.008 314.739 101.054C314.771 101.149 314.8 101.307 314.8 101.55H316.8C316.8 100.794 316.625 99.9954 316.015 99.4526L314.686 100.947ZM314.8 101.55V107.55H316.8V101.55H314.8ZM314.8 107.55C314.8 108.048 314.681 108.205 314.643 108.243L316.057 109.657C316.62 109.095 316.8 108.319 316.8 107.55H314.8ZM314.643 108.243C314.653 108.233 314.632 108.26 314.529 108.291C314.422 108.323 314.252 108.35 314 108.35V110.35C314.729 110.35 315.51 110.204 316.057 109.657L314.643 108.243ZM314 108.35H305.3V110.35H314V108.35ZM304.3 109.35V119.2H306.3V109.35H304.3ZM304.3 119.2C304.3 119.698 304.181 119.855 304.143 119.893L305.557 121.307C306.12 120.745 306.3 119.969 306.3 119.2H304.3ZM304.143 119.893C304.153 119.883 304.132 119.91 304.029 119.941C303.922 119.973 303.752 120 303.5 120V122C304.229 122 305.01 121.854 305.557 121.307L304.143 119.893Z" fill="white" mask="url(#path-23-outside-3_127_42)"/>
</svg>
