<svg width="601" height="600" viewBox="0 0 601 600" fill="none" xmlns="http://www.w3.org/2000/svg">
<mask id="path-1-outside-1_103_203" maskUnits="userSpaceOnUse" x="298.607" y="277.005" width="34" height="38" fill="black">
<rect fill="white" x="298.607" y="277.005" width="34" height="38"/>
<path d="M321.057 314.005H301.857C301.224 314.005 300.757 313.872 300.457 313.605C300.19 313.305 300.057 312.838 300.057 312.205V279.805C300.057 279.172 300.19 278.722 300.457 278.455C300.757 278.155 301.224 278.005 301.857 278.005H317.807C321.074 278.005 323.49 278.638 325.057 279.905C326.624 281.138 327.407 283.055 327.407 285.655V288.055C327.407 289.455 327.157 290.605 326.657 291.505C326.19 292.372 325.457 293.022 324.457 293.455C326.59 293.655 328.174 294.388 329.207 295.655C330.24 296.922 330.757 298.772 330.757 301.205V305.805C330.757 308.605 329.957 310.672 328.357 312.005C326.79 313.338 324.357 314.005 321.057 314.005ZM311.307 286.505V291.905H315.557C316.19 291.905 316.657 291.738 316.957 291.405C317.29 291.072 317.457 290.572 317.457 289.905V288.505C317.457 287.838 317.29 287.338 316.957 287.005C316.657 286.672 316.19 286.505 315.557 286.505H311.307ZM311.307 299.605V305.505H317.807C318.44 305.505 318.907 305.338 319.207 305.005C319.54 304.672 319.707 304.172 319.707 303.505V301.555C319.707 300.888 319.54 300.405 319.207 300.105C318.907 299.772 318.44 299.605 317.807 299.605H311.307Z"/>
</mask>
<path d="M300.457 313.605L299.71 314.269L299.749 314.313L299.793 314.352L300.457 313.605ZM300.457 278.455L299.75 277.748H299.75L300.457 278.455ZM325.057 279.905L324.428 280.683L324.438 280.691L325.057 279.905ZM326.657 291.505L325.783 291.019L325.776 291.031L326.657 291.505ZM324.457 293.455L324.059 292.537L324.364 294.451L324.457 293.455ZM329.207 295.655L328.432 296.287H328.432L329.207 295.655ZM328.357 312.005L327.717 311.237L327.709 311.243L328.357 312.005ZM311.307 286.505V285.505H310.307V286.505H311.307ZM311.307 291.905H310.307V292.905H311.307V291.905ZM316.957 291.405L316.25 290.698L316.231 290.716L316.214 290.736L316.957 291.405ZM316.957 287.005L316.214 287.674L316.231 287.693L316.25 287.712L316.957 287.005ZM311.307 299.605V298.605H310.307V299.605H311.307ZM311.307 305.505H310.307V306.505H311.307V305.505ZM319.207 305.005L318.5 304.298L318.481 304.316L318.464 304.336L319.207 305.005ZM319.207 300.105L318.464 300.774L318.499 300.813L318.538 300.848L319.207 300.105ZM321.057 313.005H301.857V315.005H321.057V313.005ZM301.857 313.005C301.334 313.005 301.158 312.89 301.121 312.857L299.793 314.352C300.356 314.853 301.113 315.005 301.857 315.005V313.005ZM301.204 312.941C301.172 312.904 301.057 312.728 301.057 312.205H299.057C299.057 312.948 299.209 313.706 299.71 314.269L301.204 312.941ZM301.057 312.205V279.805H299.057V312.205H301.057ZM301.057 279.805C301.057 279.553 301.084 279.383 301.116 279.276C301.146 279.173 301.174 279.152 301.164 279.162L299.75 277.748C299.203 278.295 299.057 279.076 299.057 279.805H301.057ZM301.164 279.162C301.201 279.125 301.359 279.005 301.857 279.005V277.005C301.088 277.005 300.312 277.185 299.75 277.748L301.164 279.162ZM301.857 279.005H317.807V277.005H301.857V279.005ZM317.807 279.005C320.977 279.005 323.121 279.625 324.428 280.683L325.686 279.127C323.86 277.651 321.17 277.005 317.807 277.005V279.005ZM324.438 280.691C325.695 281.68 326.407 283.26 326.407 285.655H328.407C328.407 282.849 327.553 280.597 325.675 279.119L324.438 280.691ZM326.407 285.655V288.055H328.407V285.655H326.407ZM326.407 288.055C326.407 289.343 326.176 290.312 325.783 291.019L327.531 291.991C328.138 290.898 328.407 289.566 328.407 288.055H326.407ZM325.776 291.031C325.428 291.678 324.877 292.183 324.059 292.537L324.855 294.372C326.037 293.86 326.953 293.065 327.537 291.979L325.776 291.031ZM324.364 294.451C326.317 294.634 327.616 295.287 328.432 296.287L329.982 295.023C328.731 293.49 326.864 292.676 324.55 292.459L324.364 294.451ZM328.432 296.287C329.264 297.306 329.757 298.893 329.757 301.205H331.757C331.757 298.65 331.217 296.537 329.982 295.023L328.432 296.287ZM329.757 301.205V305.805H331.757V301.205H329.757ZM329.757 305.805C329.757 308.417 329.017 310.153 327.717 311.237L328.997 312.773C330.897 311.19 331.757 308.793 331.757 305.805H329.757ZM327.709 311.243C326.404 312.354 324.254 313.005 321.057 313.005V315.005C324.46 315.005 327.176 314.323 329.005 312.766L327.709 311.243ZM310.307 286.505V291.905H312.307V286.505H310.307ZM311.307 292.905H315.557V290.905H311.307V292.905ZM315.557 292.905C316.354 292.905 317.143 292.693 317.7 292.074L316.214 290.736C316.171 290.783 316.027 290.905 315.557 290.905V292.905ZM317.664 292.112C318.251 291.525 318.457 290.726 318.457 289.905H316.457C316.457 290.417 316.329 290.618 316.25 290.698L317.664 292.112ZM318.457 289.905V288.505H316.457V289.905H318.457ZM318.457 288.505C318.457 287.684 318.251 286.885 317.664 286.298L316.25 287.712C316.329 287.792 316.457 287.992 316.457 288.505H318.457ZM317.7 286.336C317.143 285.717 316.354 285.505 315.557 285.505V287.505C316.027 287.505 316.171 287.627 316.214 287.674L317.7 286.336ZM315.557 285.505H311.307V287.505H315.557V285.505ZM310.307 299.605V305.505H312.307V299.605H310.307ZM311.307 306.505H317.807V304.505H311.307V306.505ZM317.807 306.505C318.604 306.505 319.393 306.293 319.95 305.674L318.464 304.336C318.421 304.383 318.277 304.505 317.807 304.505V306.505ZM319.914 305.712C320.501 305.125 320.707 304.326 320.707 303.505H318.707C318.707 304.017 318.579 304.218 318.5 304.298L319.914 305.712ZM320.707 303.505V301.555H318.707V303.505H320.707ZM320.707 301.555C320.707 300.744 320.505 299.928 319.876 299.362L318.538 300.848C318.576 300.882 318.707 301.033 318.707 301.555H320.707ZM319.95 299.436C319.393 298.817 318.604 298.605 317.807 298.605V300.605C318.277 300.605 318.421 300.727 318.464 300.774L319.95 299.436ZM317.807 298.605H311.307V300.605H317.807V298.605Z" fill="white" mask="url(#path-1-outside-1_103_203)"/>
<mask id="path-3-outside-2_103_203" maskUnits="userSpaceOnUse" x="285.646" y="167.005" width="34" height="38" fill="black">
<rect fill="white" x="285.646" y="167.005" width="34" height="38"/>
<path d="M308.096 204.005H288.896C288.263 204.005 287.796 203.872 287.496 203.605C287.23 203.305 287.096 202.838 287.096 202.205V169.805C287.096 169.172 287.23 168.722 287.496 168.455C287.796 168.155 288.263 168.005 288.896 168.005H304.846C308.113 168.005 310.53 168.638 312.096 169.905C313.663 171.138 314.446 173.055 314.446 175.655V178.055C314.446 179.455 314.196 180.605 313.696 181.505C313.23 182.372 312.496 183.022 311.496 183.455C313.63 183.655 315.213 184.388 316.246 185.655C317.28 186.922 317.796 188.772 317.796 191.205V195.805C317.796 198.605 316.996 200.672 315.396 202.005C313.83 203.338 311.396 204.005 308.096 204.005ZM298.346 176.505V181.905H302.596C303.23 181.905 303.696 181.738 303.996 181.405C304.33 181.072 304.496 180.572 304.496 179.905V178.505C304.496 177.838 304.33 177.338 303.996 177.005C303.696 176.672 303.23 176.505 302.596 176.505H298.346ZM298.346 189.605V195.505H304.846C305.48 195.505 305.946 195.338 306.246 195.005C306.58 194.672 306.746 194.172 306.746 193.505V191.555C306.746 190.888 306.58 190.405 306.246 190.105C305.946 189.772 305.48 189.605 304.846 189.605H298.346Z"/>
</mask>
<path d="M287.496 203.605L286.749 204.269L286.788 204.313L286.832 204.352L287.496 203.605ZM287.496 168.455L286.789 167.748H286.789L287.496 168.455ZM312.096 169.905L311.468 170.683L311.478 170.691L312.096 169.905ZM313.696 181.505L312.822 181.019L312.816 181.031L313.696 181.505ZM311.496 183.455L311.099 182.537L311.403 184.451L311.496 183.455ZM316.246 185.655L315.472 186.287H315.472L316.246 185.655ZM315.396 202.005L314.756 201.237L314.748 201.243L315.396 202.005ZM298.346 176.505V175.505H297.346V176.505H298.346ZM298.346 181.905H297.346V182.905H298.346V181.905ZM303.996 181.405L303.289 180.698L303.271 180.716L303.253 180.736L303.996 181.405ZM303.996 177.005L303.253 177.674L303.271 177.693L303.289 177.712L303.996 177.005ZM298.346 189.605V188.605H297.346V189.605H298.346ZM298.346 195.505H297.346V196.505H298.346V195.505ZM306.246 195.005L305.539 194.298L305.521 194.316L305.503 194.336L306.246 195.005ZM306.246 190.105L305.503 190.774L305.538 190.813L305.578 190.848L306.246 190.105ZM308.096 203.005H288.896V205.005H308.096V203.005ZM288.896 203.005C288.373 203.005 288.197 202.89 288.161 202.857L286.832 204.352C287.396 204.853 288.153 205.005 288.896 205.005V203.005ZM288.244 202.941C288.211 202.904 288.096 202.728 288.096 202.205H286.096C286.096 202.948 286.248 203.706 286.749 204.269L288.244 202.941ZM288.096 202.205V169.805H286.096V202.205H288.096ZM288.096 169.805C288.096 169.553 288.124 169.383 288.155 169.276C288.186 169.173 288.214 169.152 288.204 169.162L286.789 167.748C286.242 168.295 286.096 169.076 286.096 169.805H288.096ZM288.204 169.162C288.241 169.125 288.399 169.005 288.896 169.005V167.005C288.127 167.005 287.352 167.185 286.789 167.748L288.204 169.162ZM288.896 169.005H304.846V167.005H288.896V169.005ZM304.846 169.005C308.016 169.005 310.16 169.625 311.468 170.683L312.725 169.127C310.9 167.651 308.21 167.005 304.846 167.005V169.005ZM311.478 170.691C312.734 171.68 313.446 173.26 313.446 175.655H315.446C315.446 172.849 314.592 170.597 312.715 169.119L311.478 170.691ZM313.446 175.655V178.055H315.446V175.655H313.446ZM313.446 178.055C313.446 179.343 313.215 180.312 312.822 181.019L314.571 181.991C315.178 180.898 315.446 179.566 315.446 178.055H313.446ZM312.816 181.031C312.467 181.678 311.916 182.183 311.099 182.537L311.894 184.372C313.077 183.86 313.992 183.065 314.577 181.979L312.816 181.031ZM311.403 184.451C313.356 184.634 314.656 185.287 315.472 186.287L317.021 185.023C315.771 183.49 313.904 182.676 311.59 182.459L311.403 184.451ZM315.472 186.287C316.303 187.306 316.796 188.893 316.796 191.205H318.796C318.796 188.65 318.257 186.537 317.021 185.023L315.472 186.287ZM316.796 191.205V195.805H318.796V191.205H316.796ZM316.796 195.805C316.796 198.417 316.056 200.153 314.756 201.237L316.037 202.773C317.937 201.19 318.796 198.793 318.796 195.805H316.796ZM314.748 201.243C313.444 202.354 311.294 203.005 308.096 203.005V205.005C311.499 205.005 314.216 204.323 316.045 202.766L314.748 201.243ZM297.346 176.505V181.905H299.346V176.505H297.346ZM298.346 182.905H302.596V180.905H298.346V182.905ZM302.596 182.905C303.393 182.905 304.182 182.693 304.74 182.074L303.253 180.736C303.211 180.783 303.067 180.905 302.596 180.905V182.905ZM304.704 182.112C305.291 181.525 305.496 180.726 305.496 179.905H303.496C303.496 180.417 303.369 180.618 303.289 180.698L304.704 182.112ZM305.496 179.905V178.505H303.496V179.905H305.496ZM305.496 178.505C305.496 177.684 305.291 176.885 304.704 176.298L303.289 177.712C303.369 177.792 303.496 177.992 303.496 178.505H305.496ZM304.74 176.336C304.182 175.717 303.393 175.505 302.596 175.505V177.505C303.067 177.505 303.211 177.627 303.253 177.674L304.74 176.336ZM302.596 175.505H298.346V177.505H302.596V175.505ZM297.346 189.605V195.505H299.346V189.605H297.346ZM298.346 196.505H304.846V194.505H298.346V196.505ZM304.846 196.505C305.643 196.505 306.432 196.293 306.99 195.674L305.503 194.336C305.461 194.383 305.317 194.505 304.846 194.505V196.505ZM306.954 195.712C307.541 195.125 307.746 194.326 307.746 193.505H305.746C305.746 194.017 305.619 194.218 305.539 194.298L306.954 195.712ZM307.746 193.505V191.555H305.746V193.505H307.746ZM307.746 191.555C307.746 190.744 307.544 189.928 306.915 189.362L305.578 190.848C305.615 190.882 305.746 191.033 305.746 191.555H307.746ZM306.99 189.436C306.432 188.817 305.643 188.605 304.846 188.605V190.605C305.317 190.605 305.461 190.727 305.503 190.774L306.99 189.436ZM304.846 188.605H298.346V190.605H304.846V188.605Z" fill="white" mask="url(#path-3-outside-2_103_203)"/>
<rect x="2.50012" y="1.00488" width="596.19" height="598" stroke="black" stroke-width="2" stroke-dasharray="7 7"/>
<rect x="1.50061" y="0.00488281" width="598.19" height="450" fill="#011580"/>
<path d="M599.69 210.005V450.005H300.595L599.69 210.005Z" fill="white"/>
<path d="M599.691 213.505L598.694 457.009" stroke="black" stroke-width="2" stroke-dasharray="8 8"/>
<path d="M300.596 449.995V209.995L1.50061 210.194L300.596 449.995Z" fill="#011580"/>
<path d="M1.00006 210V450H300.095L1.00006 210Z" fill="white"/>
<rect width="0.998645" height="1" transform="matrix(1 0 0 -1 599.689 211.005)" fill="white"/>
<path d="M1.96851 210.996L2.49976 458" stroke="black" stroke-width="2" stroke-dasharray="8 8"/>
<path d="M299.5 0L301.494 450" stroke="white" stroke-opacity="0.78" stroke-width="2" stroke-dasharray="33 33"/>
<path d="M482.5 303L117.5 303" stroke="white" stroke-opacity="0.78" stroke-width="2" stroke-dasharray="33 33"/>
<path d="M483.5 303L300.5 451V303H483.5Z" fill="#3555FD"/>
<path d="M116.5 303L300.5 451L301.5 303H116.5Z" fill="#3555FD"/>
<mask id="path-17-outside-3_103_203" maskUnits="userSpaceOnUse" x="283.501" y="194" width="34" height="38" fill="black">
<rect fill="white" x="283.501" y="194" width="34" height="38"/>
<path d="M305.951 231H286.751C286.117 231 285.651 230.867 285.351 230.6C285.084 230.3 284.951 229.833 284.951 229.2V196.8C284.951 196.167 285.084 195.717 285.351 195.45C285.651 195.15 286.117 195 286.751 195H302.701C305.967 195 308.384 195.633 309.951 196.9C311.517 198.133 312.301 200.05 312.301 202.65V205.05C312.301 206.45 312.051 207.6 311.551 208.5C311.084 209.367 310.351 210.017 309.351 210.45C311.484 210.65 313.067 211.383 314.101 212.65C315.134 213.917 315.651 215.767 315.651 218.2V222.8C315.651 225.6 314.851 227.667 313.251 229C311.684 230.333 309.251 231 305.951 231ZM296.201 203.5V208.9H300.451C301.084 208.9 301.551 208.733 301.851 208.4C302.184 208.067 302.351 207.567 302.351 206.9V205.5C302.351 204.833 302.184 204.333 301.851 204C301.551 203.667 301.084 203.5 300.451 203.5H296.201ZM296.201 216.6V222.5H302.701C303.334 222.5 303.801 222.333 304.101 222C304.434 221.667 304.601 221.167 304.601 220.5V218.55C304.601 217.883 304.434 217.4 304.101 217.1C303.801 216.767 303.334 216.6 302.701 216.6H296.201Z"/>
</mask>
<path d="M305.951 231H286.751C286.117 231 285.651 230.867 285.351 230.6C285.084 230.3 284.951 229.833 284.951 229.2V196.8C284.951 196.167 285.084 195.717 285.351 195.45C285.651 195.15 286.117 195 286.751 195H302.701C305.967 195 308.384 195.633 309.951 196.9C311.517 198.133 312.301 200.05 312.301 202.65V205.05C312.301 206.45 312.051 207.6 311.551 208.5C311.084 209.367 310.351 210.017 309.351 210.45C311.484 210.65 313.067 211.383 314.101 212.65C315.134 213.917 315.651 215.767 315.651 218.2V222.8C315.651 225.6 314.851 227.667 313.251 229C311.684 230.333 309.251 231 305.951 231ZM296.201 203.5V208.9H300.451C301.084 208.9 301.551 208.733 301.851 208.4C302.184 208.067 302.351 207.567 302.351 206.9V205.5C302.351 204.833 302.184 204.333 301.851 204C301.551 203.667 301.084 203.5 300.451 203.5H296.201ZM296.201 216.6V222.5H302.701C303.334 222.5 303.801 222.333 304.101 222C304.434 221.667 304.601 221.167 304.601 220.5V218.55C304.601 217.883 304.434 217.4 304.101 217.1C303.801 216.767 303.334 216.6 302.701 216.6H296.201Z" fill="#011580"/>
<path d="M285.351 230.6L284.603 231.264L284.642 231.308L284.686 231.347L285.351 230.6ZM285.351 195.45L284.644 194.743H284.644L285.351 195.45ZM309.951 196.9L309.322 197.678L309.332 197.686L309.951 196.9ZM311.551 208.5L310.677 208.014L310.67 208.026L311.551 208.5ZM309.351 210.45L308.953 209.532L309.257 211.446L309.351 210.45ZM314.101 212.65L313.326 213.282H313.326L314.101 212.65ZM313.251 229L312.611 228.232L312.603 228.238L313.251 229ZM296.201 203.5V202.5H295.201V203.5H296.201ZM296.201 208.9H295.201V209.9H296.201V208.9ZM301.851 208.4L301.144 207.693L301.125 207.711L301.107 207.731L301.851 208.4ZM301.851 204L301.107 204.669L301.125 204.689L301.144 204.707L301.851 204ZM296.201 216.6V215.6H295.201V216.6H296.201ZM296.201 222.5H295.201V223.5H296.201V222.5ZM304.101 222L303.394 221.293L303.375 221.311L303.357 221.331L304.101 222ZM304.101 217.1L303.357 217.769L303.393 217.808L303.432 217.843L304.101 217.1ZM305.951 230H286.751V232H305.951V230ZM286.751 230C286.228 230 286.052 229.885 286.015 229.853L284.686 231.347C285.25 231.848 286.007 232 286.751 232V230ZM286.098 229.936C286.066 229.899 285.951 229.723 285.951 229.2H283.951C283.951 229.944 284.102 230.701 284.603 231.264L286.098 229.936ZM285.951 229.2V196.8H283.951V229.2H285.951ZM285.951 196.8C285.951 196.548 285.978 196.379 286.01 196.272C286.04 196.168 286.068 196.147 286.058 196.157L284.644 194.743C284.096 195.29 283.951 196.071 283.951 196.8H285.951ZM286.058 196.157C286.095 196.12 286.253 196 286.751 196V194C285.982 194 285.206 194.18 284.644 194.743L286.058 196.157ZM286.751 196H302.701V194H286.751V196ZM302.701 196C305.871 196 308.014 196.62 309.322 197.678L310.579 196.122C308.754 194.646 306.064 194 302.701 194V196ZM309.332 197.686C310.588 198.675 311.301 200.256 311.301 202.65H313.301C313.301 199.844 312.446 197.592 310.569 196.114L309.332 197.686ZM311.301 202.65V205.05H313.301V202.65H311.301ZM311.301 205.05C311.301 206.339 311.07 207.307 310.677 208.014L312.425 208.986C313.032 207.893 313.301 206.561 313.301 205.05H311.301ZM310.67 208.026C310.322 208.673 309.77 209.178 308.953 209.532L309.748 211.368C310.931 210.855 311.846 210.06 312.431 208.974L310.67 208.026ZM309.257 211.446C311.21 211.629 312.51 212.282 313.326 213.282L314.876 212.018C313.625 210.485 311.758 209.671 309.444 209.454L309.257 211.446ZM313.326 213.282C314.157 214.301 314.651 215.889 314.651 218.2H316.651C316.651 215.645 316.111 213.532 314.876 212.018L313.326 213.282ZM314.651 218.2V222.8H316.651V218.2H314.651ZM314.651 222.8C314.651 225.412 313.911 227.148 312.611 228.232L313.891 229.768C315.791 228.185 316.651 225.788 316.651 222.8H314.651ZM312.603 228.238C311.298 229.349 309.148 230 305.951 230V232C309.353 232 312.07 231.318 313.899 229.762L312.603 228.238ZM295.201 203.5V208.9H297.201V203.5H295.201ZM296.201 209.9H300.451V207.9H296.201V209.9ZM300.451 209.9C301.247 209.9 302.037 209.688 302.594 209.069L301.107 207.731C301.065 207.778 300.921 207.9 300.451 207.9V209.9ZM302.558 209.107C303.145 208.52 303.351 207.721 303.351 206.9H301.351C301.351 207.413 301.223 207.613 301.144 207.693L302.558 209.107ZM303.351 206.9V205.5H301.351V206.9H303.351ZM303.351 205.5C303.351 204.679 303.145 203.88 302.558 203.293L301.144 204.707C301.223 204.787 301.351 204.987 301.351 205.5H303.351ZM302.594 203.331C302.037 202.712 301.247 202.5 300.451 202.5V204.5C300.921 204.5 301.065 204.622 301.107 204.669L302.594 203.331ZM300.451 202.5H296.201V204.5H300.451V202.5ZM295.201 216.6V222.5H297.201V216.6H295.201ZM296.201 223.5H302.701V221.5H296.201V223.5ZM302.701 223.5C303.497 223.5 304.287 223.288 304.844 222.669L303.357 221.331C303.315 221.378 303.171 221.5 302.701 221.5V223.5ZM304.808 222.707C305.395 222.12 305.601 221.321 305.601 220.5H303.601C303.601 221.013 303.473 221.213 303.394 221.293L304.808 222.707ZM305.601 220.5V218.55H303.601V220.5H305.601ZM305.601 218.55C305.601 217.739 305.399 216.923 304.77 216.357L303.432 217.843C303.469 217.877 303.601 218.028 303.601 218.55H305.601ZM304.844 216.431C304.287 215.812 303.497 215.6 302.701 215.6V217.6C303.171 217.6 303.315 217.722 303.357 217.769L304.844 216.431ZM302.701 215.6H296.201V217.6H302.701V215.6Z" fill="white" mask="url(#path-17-outside-3_103_203)"/>
</svg>
