<svg width="695" height="665" viewBox="0 0 695 665" fill="none" xmlns="http://www.w3.org/2000/svg">
<g filter="url(#filter0_d_16_7)">
<path d="M292.747 75H184.507L92 163.344V371.018L390.918 655.792L690 371.018V163.344L605.5 75H479.021L390.918 147.521L292.747 75Z" fill="#011580"/>
<path d="M292.747 75H184.507L92 163.344V371.018L390.918 655.792L690 371.018V163.344L605.5 75H479.021L390.918 147.521L292.747 75Z" stroke="black"/>
</g>
<g filter="url(#filter1_d_16_7)">
<path d="M259.118 37H147.982L53 127.353V339.75L359.916 631L667 339.75V127.353L580.239 37H450.376L359.916 111.17L259.118 37Z" fill="#001CAD"/>
<path d="M259.118 37H147.982L53 127.353V339.75L359.916 631L667 339.75V127.353L580.239 37H450.376L359.916 111.17L259.118 37Z" stroke="black"/>
</g>
<g filter="url(#filter2_d_16_7)">
<path d="M215.818 1H102.148L5 92.1136V306.299L318.914 600L633 306.299V92.1136L544.261 1H411.436L318.914 75.7948L215.818 1Z" fill="#3555FD"/>
<path d="M215.818 1H102.148L5 92.1136V306.299L318.914 600L633 306.299V92.1136L544.261 1H411.436L318.914 75.7948L215.818 1Z" stroke="black"/>
</g>
<defs>
<filter id="filter0_d_16_7" x="87.5" y="74.5" width="607" height="589.983" filterUnits="userSpaceOnUse" color-interpolation-filters="sRGB">
<feFlood flood-opacity="0" result="BackgroundImageFix"/>
<feColorMatrix in="SourceAlpha" type="matrix" values="0 0 0 0 0 0 0 0 0 0 0 0 0 0 0 0 0 0 127 0" result="hardAlpha"/>
<feOffset dy="4"/>
<feGaussianBlur stdDeviation="2"/>
<feComposite in2="hardAlpha" operator="out"/>
<feColorMatrix type="matrix" values="0 0 0 0 0 0 0 0 0 0 0 0 0 0 0 0 0 0 0.25 0"/>
<feBlend mode="normal" in2="BackgroundImageFix" result="effect1_dropShadow_16_7"/>
<feBlend mode="normal" in="SourceGraphic" in2="effect1_dropShadow_16_7" result="shape"/>
</filter>
<filter id="filter1_d_16_7" x="48.5" y="36.5" width="623" height="603.189" filterUnits="userSpaceOnUse" color-interpolation-filters="sRGB">
<feFlood flood-opacity="0" result="BackgroundImageFix"/>
<feColorMatrix in="SourceAlpha" type="matrix" values="0 0 0 0 0 0 0 0 0 0 0 0 0 0 0 0 0 0 127 0" result="hardAlpha"/>
<feOffset dy="4"/>
<feGaussianBlur stdDeviation="2"/>
<feComposite in2="hardAlpha" operator="out"/>
<feColorMatrix type="matrix" values="0 0 0 0 0 0 0 0 0 0 0 0 0 0 0 0 0 0 0.25 0"/>
<feBlend mode="normal" in2="BackgroundImageFix" result="effect1_dropShadow_16_7"/>
<feBlend mode="normal" in="SourceGraphic" in2="effect1_dropShadow_16_7" result="shape"/>
</filter>
<filter id="filter2_d_16_7" x="0.5" y="0.5" width="637" height="608.185" filterUnits="userSpaceOnUse" color-interpolation-filters="sRGB">
<feFlood flood-opacity="0" result="BackgroundImageFix"/>
<feColorMatrix in="SourceAlpha" type="matrix" values="0 0 0 0 0 0 0 0 0 0 0 0 0 0 0 0 0 0 127 0" result="hardAlpha"/>
<feOffset dy="4"/>
<feGaussianBlur stdDeviation="2"/>
<feComposite in2="hardAlpha" operator="out"/>
<feColorMatrix type="matrix" values="0 0 0 0 0 0 0 0 0 0 0 0 0 0 0 0 0 0 0.25 0"/>
<feBlend mode="normal" in2="BackgroundImageFix" result="effect1_dropShadow_16_7"/>
<feBlend mode="normal" in="SourceGraphic" in2="effect1_dropShadow_16_7" result="shape"/>
</filter>
</defs>
</svg>
